<svg width="259" height="102" viewBox="0 0 259 102" fill="none" xmlns="http://www.w3.org/2000/svg">
<path d="M175.829 20.8067C175.763 20.8067 175.73 20.7412 175.73 20.6104C175.73 20.4795 175.763 20.4141 175.829 20.4141C176.527 20.4141 177.028 20.3596 177.334 20.2505C177.661 20.1415 177.879 19.9343 177.988 19.6289C178.097 19.3018 178.151 18.811 178.151 18.1567V3.00934C178.151 2.35503 178.097 1.8752 177.988 1.56985C177.879 1.26451 177.661 1.05731 177.334 0.948256C177.006 0.817393 176.505 0.751962 175.829 0.751962C175.763 0.751962 175.73 0.686531 175.73 0.555669C175.73 0.424806 175.763 0.359375 175.829 0.359375H189.7C189.918 0.359375 190.027 0.457521 190.027 0.653814L190.093 5.005C190.093 5.04862 190.027 5.08134 189.896 5.10315C189.787 5.12496 189.722 5.10315 189.7 5.03772C189.351 3.77271 188.762 2.83486 187.933 2.22417C187.105 1.61348 186.014 1.30813 184.662 1.30813H183.68C183.026 1.30813 182.546 1.4499 182.241 1.73343C181.936 2.01697 181.783 2.45318 181.783 3.04206V18.0258C181.783 18.6583 181.903 19.1273 182.143 19.4326C182.383 19.738 182.764 19.8906 183.288 19.8906H184.367C186.069 19.8906 187.432 19.5417 188.457 18.8437C189.482 18.1458 190.234 17.0662 190.714 15.6049C190.714 15.5613 190.758 15.5394 190.845 15.5394C190.911 15.5394 190.965 15.5613 191.009 15.6049C191.074 15.6267 191.107 15.6485 191.107 15.6703C190.889 17.3715 190.78 18.9201 190.78 20.3159C190.78 20.4904 190.747 20.6213 190.682 20.7085C190.616 20.774 190.485 20.8067 190.289 20.8067H175.829ZM188.457 13.5111C188.457 12.6168 188.108 11.9189 187.41 11.4173C186.734 10.8938 185.752 10.6321 184.466 10.6321H180.049V9.71606H184.498C185.763 9.71606 186.734 9.49795 187.41 9.06174C188.086 8.62553 188.424 8.01484 188.424 7.22967C188.424 7.16423 188.479 7.13152 188.588 7.13152C188.719 7.13152 188.784 7.16423 188.784 7.22967L188.751 10.1741L188.784 11.7444C188.828 12.486 188.849 13.0749 188.849 13.5111C188.849 13.5547 188.784 13.5765 188.653 13.5765C188.522 13.5765 188.457 13.5547 188.457 13.5111Z" fill="black"/>
<path d="M164.33 21.1998C161.844 21.1998 159.685 20.7417 157.853 19.8257C156.021 18.8879 154.614 17.6228 153.632 16.0307C152.651 14.4385 152.16 12.6719 152.16 10.7307C152.16 8.65875 152.705 6.80486 153.796 5.16908C154.908 3.53329 156.435 2.26829 158.376 1.37406C160.317 0.458019 162.498 0 164.919 0C165.966 0 167.013 0.0872423 168.06 0.261726C169.107 0.414399 169.947 0.621598 170.579 0.883324C170.819 0.970566 170.95 1.0469 170.972 1.11233C171.015 1.15595 171.048 1.33044 171.07 1.63578L171.495 6.18326C171.495 6.24869 171.43 6.29232 171.299 6.31413C171.19 6.33594 171.124 6.30322 171.103 6.21598C170.819 5.49623 170.361 4.71106 169.728 3.86045C169.096 3.00984 168.267 2.26829 167.242 1.63578C166.217 1.00328 165.028 0.68703 163.676 0.68703C162.28 0.68703 161.004 1.06871 159.848 1.83208C158.692 2.59544 157.776 3.68597 157.1 5.10365C156.446 6.52133 156.119 8.16801 156.119 10.0437C156.119 12.0939 156.5 13.926 157.264 15.5399C158.049 17.1539 159.129 18.408 160.503 19.3022C161.877 20.1965 163.425 20.6436 165.148 20.6436C166.043 20.6436 166.73 20.5454 167.209 20.3492C167.689 20.1529 168.038 19.7712 168.256 19.2041C168.474 18.637 168.583 17.7973 168.583 16.685C168.583 15.5509 168.518 14.7657 168.387 14.3295C168.256 13.8714 167.973 13.5661 167.537 13.4134C167.122 13.2608 166.381 13.1844 165.312 13.1844C165.181 13.1844 165.116 13.0972 165.116 12.9227C165.116 12.8573 165.126 12.8027 165.148 12.7591C165.192 12.6937 165.236 12.661 165.279 12.661C167.133 12.77 168.638 12.8245 169.794 12.8245C170.906 12.8245 172.062 12.7918 173.262 12.7264C173.349 12.7264 173.393 12.8027 173.393 12.9554C173.414 13.1081 173.371 13.1844 173.262 13.1844C172.869 13.1626 172.586 13.2389 172.411 13.4134C172.258 13.5661 172.16 13.8933 172.117 14.3949C172.073 14.8965 172.051 15.769 172.051 17.0122C172.051 17.9936 172.084 18.6916 172.149 19.106C172.237 19.5204 172.28 19.7821 172.28 19.8911C172.28 20.022 172.258 20.1092 172.215 20.1529C172.171 20.1965 172.073 20.2401 171.92 20.2837C169.107 20.8944 166.577 21.1998 164.33 21.1998Z" fill="black"/>
<path d="M133.608 12.3992H143.03L143.259 13.3153H133.117L133.608 12.3992ZM150.98 20.4146C151.089 20.4146 151.143 20.48 151.143 20.6109C151.143 20.7417 151.089 20.8072 150.98 20.8072C150.543 20.8072 149.867 20.7854 148.951 20.7417C147.992 20.6981 147.305 20.6763 146.89 20.6763C146.345 20.6763 145.68 20.6981 144.894 20.7417C144.153 20.7854 143.564 20.8072 143.128 20.8072C143.041 20.8072 142.997 20.7417 142.997 20.6109C142.997 20.48 143.041 20.4146 143.128 20.4146C143.695 20.4146 144.098 20.3601 144.338 20.251C144.6 20.1201 144.731 19.902 144.731 19.5967C144.731 19.2259 144.513 18.6043 144.077 17.7319L137.435 4.61291L139.038 1.79936L132.528 16.1615C132.244 16.794 132.103 17.3829 132.103 17.9282C132.103 18.7134 132.375 19.3241 132.921 19.7603C133.488 20.1965 134.24 20.4146 135.178 20.4146C135.287 20.4146 135.342 20.48 135.342 20.6109C135.342 20.7417 135.287 20.8072 135.178 20.8072C134.785 20.8072 134.218 20.7854 133.477 20.7417C132.648 20.6981 131.928 20.6763 131.317 20.6763C130.729 20.6763 130.02 20.6981 129.191 20.7417C128.449 20.7854 127.85 20.8072 127.392 20.8072C127.304 20.8072 127.261 20.7417 127.261 20.6109C127.261 20.48 127.304 20.4146 127.392 20.4146C128.002 20.4146 128.515 20.2946 128.929 20.0547C129.344 19.793 129.758 19.3459 130.172 18.7134C130.587 18.0591 131.078 17.0994 131.645 15.8344L138.744 0.229007C138.788 0.163576 138.886 0.130859 139.038 0.130859C139.213 0.130859 139.311 0.163576 139.333 0.229007L147.512 16.3251C148.275 17.8737 148.908 18.9424 149.409 19.5313C149.911 20.1201 150.434 20.4146 150.98 20.4146Z" fill="black"/>
<path d="M122.018 20.8072C121.516 20.8072 120.589 19.902 119.237 18.0918C117.885 16.2597 116.249 13.7188 114.33 10.469L117.34 9.55297C119.15 12.3011 120.655 14.4494 121.854 15.998C123.076 17.5465 124.155 18.6697 125.093 19.3677C126.031 20.0656 126.947 20.4146 127.841 20.4146C127.885 20.4146 127.907 20.48 127.907 20.6109C127.907 20.7417 127.885 20.8072 127.841 20.8072H122.018ZM114.984 0.261719C116.969 0.261719 118.507 0.632496 119.597 1.37405C120.688 2.0938 121.233 3.10798 121.233 4.41661C121.233 5.6598 120.873 6.78304 120.153 7.78632C119.455 8.7896 118.539 9.57478 117.405 10.1419C116.271 10.6871 115.082 10.9597 113.839 10.9597C112.988 10.9597 112.389 10.9488 112.04 10.927V18.1572C112.04 18.8333 112.094 19.3241 112.203 19.6294C112.312 19.9347 112.52 20.1419 112.825 20.251C113.152 20.3601 113.665 20.4146 114.363 20.4146C114.406 20.4146 114.428 20.48 114.428 20.6109C114.428 20.7417 114.406 20.8072 114.363 20.8072C113.643 20.8072 113.076 20.7963 112.661 20.7744L110.175 20.7417L107.787 20.7744C107.35 20.7963 106.762 20.8072 106.02 20.8072C105.955 20.8072 105.922 20.7417 105.922 20.6109C105.922 20.48 105.955 20.4146 106.02 20.4146C106.718 20.4146 107.22 20.3601 107.525 20.251C107.852 20.1419 108.07 19.9347 108.179 19.6294C108.31 19.3022 108.376 18.8115 108.376 18.1572V3.00983C108.376 2.35552 108.321 1.87569 108.212 1.57035C108.103 1.265 107.885 1.0578 107.558 0.948747C107.231 0.817885 106.729 0.752453 106.053 0.752453C106.009 0.752453 105.987 0.687022 105.987 0.55616C105.987 0.425297 106.009 0.359866 106.053 0.359866L107.787 0.392582C108.79 0.436202 109.586 0.458012 110.175 0.458012C110.916 0.458012 111.691 0.425297 112.498 0.359866C112.781 0.338055 113.13 0.316244 113.545 0.294433C113.981 0.272623 114.461 0.261719 114.984 0.261719ZM117.503 5.6598C117.503 3.87135 117.241 2.63906 116.718 1.96293C116.195 1.28681 115.442 0.948747 114.461 0.948747C113.588 0.948747 112.967 1.11233 112.596 1.43948C112.225 1.76664 112.04 2.3119 112.04 3.07527V10.011C112.563 10.0982 113.196 10.1419 113.937 10.1419C115.202 10.1419 116.107 9.79289 116.653 9.09495C117.22 8.37521 117.503 7.23016 117.503 5.6598Z" fill="black"/>
<path d="M87.3449 12.3992H96.767L96.996 13.3153H86.8542L87.3449 12.3992ZM104.717 20.4146C104.826 20.4146 104.88 20.48 104.88 20.6109C104.88 20.7417 104.826 20.8072 104.717 20.8072C104.281 20.8072 103.605 20.7854 102.689 20.7417C101.729 20.6981 101.042 20.6763 100.627 20.6763C100.082 20.6763 99.417 20.6981 98.6318 20.7417C97.8902 20.7854 97.3014 20.8072 96.8651 20.8072C96.7779 20.8072 96.7343 20.7417 96.7343 20.6109C96.7343 20.48 96.7779 20.4146 96.8651 20.4146C97.4322 20.4146 97.8357 20.3601 98.0756 20.251C98.3374 20.1201 98.4682 19.902 98.4682 19.5967C98.4682 19.2259 98.2501 18.6043 97.8139 17.7319L91.1726 4.61291L92.7757 1.79936L86.2653 16.1615C85.9817 16.794 85.84 17.3829 85.84 17.9282C85.84 18.7134 86.1126 19.3241 86.6579 19.7603C87.2249 20.1965 87.9774 20.4146 88.9152 20.4146C89.0243 20.4146 89.0788 20.48 89.0788 20.6109C89.0788 20.7417 89.0243 20.8072 88.9152 20.8072C88.5227 20.8072 87.9556 20.7854 87.214 20.7417C86.3852 20.6981 85.6655 20.6763 85.0548 20.6763C84.4659 20.6763 83.7571 20.6981 82.9283 20.7417C82.1867 20.7854 81.5869 20.8072 81.1289 20.8072C81.0417 20.8072 80.998 20.7417 80.998 20.6109C80.998 20.48 81.0417 20.4146 81.1289 20.4146C81.7396 20.4146 82.2521 20.2946 82.6665 20.0547C83.0809 19.793 83.4953 19.3459 83.9097 18.7134C84.3241 18.0591 84.8149 17.0994 85.3819 15.8344L92.4812 0.229007C92.5249 0.163576 92.623 0.130859 92.7757 0.130859C92.9502 0.130859 93.0483 0.163576 93.0701 0.229007L101.249 16.3251C102.012 17.8737 102.645 18.9424 103.147 19.5313C103.648 20.1201 104.172 20.4146 104.717 20.4146Z" fill="black"/>
<path d="M71.1038 21.1998C68.6174 21.1998 66.4582 20.7417 64.6261 19.8257C62.794 18.8879 61.3873 17.6228 60.4058 16.0307C59.4243 14.4385 58.9336 12.6719 58.9336 10.7307C58.9336 8.65875 59.4789 6.80486 60.5694 5.16908C61.6817 3.53329 63.2084 2.26829 65.1496 1.37406C67.0907 0.458019 69.2717 0 71.6927 0C72.7396 0 73.7865 0.0872423 74.8334 0.261726C75.8803 0.414399 76.72 0.621598 77.3525 0.883324C77.5924 0.970566 77.7233 1.0469 77.7451 1.11233C77.7887 1.15595 77.8214 1.33044 77.8433 1.63578L78.2686 6.18326C78.2686 6.24869 78.2031 6.29232 78.0723 6.31413C77.9632 6.33594 77.8978 6.30322 77.876 6.21598C77.5924 5.49623 77.1344 4.71106 76.5019 3.86045C75.8694 3.00984 75.0406 2.26829 74.0155 1.63578C72.9904 1.00328 71.8018 0.68703 70.4495 0.68703C69.0536 0.68703 67.7777 1.06871 66.6218 1.83208C65.4658 2.59544 64.5498 3.68597 63.8737 5.10365C63.2193 6.52133 62.8922 8.16801 62.8922 10.0437C62.8922 12.0939 63.2739 13.926 64.0372 15.5399C64.8224 17.1539 65.902 18.408 67.2761 19.3022C68.6501 20.1965 70.1987 20.6436 71.9217 20.6436C72.8159 20.6436 73.503 20.5454 73.9828 20.3492C74.4626 20.1529 74.8116 19.7712 75.0297 19.2041C75.2478 18.637 75.3569 17.7973 75.3569 16.685C75.3569 15.5509 75.2914 14.7657 75.1606 14.3295C75.0297 13.8714 74.7462 13.5661 74.31 13.4134C73.8956 13.2608 73.154 13.1844 72.0853 13.1844C71.9544 13.1844 71.889 13.0972 71.889 12.9227C71.889 12.8573 71.8999 12.8027 71.9217 12.7591C71.9653 12.6937 72.009 12.661 72.0526 12.661C73.9065 12.77 75.4114 12.8245 76.5673 12.8245C77.6797 12.8245 78.8356 12.7918 80.0352 12.7264C80.1224 12.7264 80.1661 12.8027 80.1661 12.9554C80.1879 13.1081 80.1443 13.1844 80.0352 13.1844C79.6426 13.1626 79.3591 13.2389 79.1846 13.4134C79.0319 13.5661 78.9338 13.8933 78.8902 14.3949C78.8465 14.8965 78.8247 15.769 78.8247 17.0122C78.8247 17.9936 78.8574 18.6916 78.9229 19.106C79.0101 19.5204 79.0537 19.7821 79.0537 19.8911C79.0537 20.022 79.0319 20.1092 78.9883 20.1529C78.9447 20.1965 78.8465 20.2401 78.6939 20.2837C75.8803 20.8944 73.3503 21.1998 71.1038 21.1998Z" fill="black"/>
<path d="M230.537 62.6956C230.537 63.9262 232.685 64.5415 236.983 64.5415C238.043 64.5415 238.829 64.428 239.34 64.2008C240.685 63.5571 242.332 63.2352 244.282 63.2352C246.251 63.2352 247.235 63.7369 247.235 64.7403C247.235 65.1379 247.065 65.7248 246.724 66.5011C246.402 67.2584 246.156 67.7222 245.986 67.8926C245.834 68.063 245.228 68.2997 244.168 68.6026C243.108 68.8866 242.417 69.0475 242.095 69.0854C241.792 69.1043 241.584 69.1233 241.47 69.1422C241.376 69.1611 241.253 69.1801 241.101 69.199C240.969 69.2179 240.656 69.2747 240.164 69.3694C239.672 69.4451 239.312 69.4356 239.085 69.341C232.818 72.427 228.511 75.816 226.163 79.5078C225.103 81.1739 224.573 82.6033 224.573 83.7961C224.573 85.6704 225.87 86.6076 228.464 86.6076C230.489 86.6076 233.064 85.8124 236.188 84.2221C239.312 82.6317 242.076 80.7101 244.481 78.4571C246.904 76.1852 248.116 74.2162 248.116 72.5501C248.116 72.02 248.513 71.7549 249.308 71.7549C251.145 71.7549 252.063 72.8435 252.063 75.0208C252.063 76.0432 251.618 77.2643 250.728 78.6843C249.839 80.0853 248.598 81.5147 247.008 82.9725C245.418 84.4114 243.648 85.7556 241.697 87.0052C239.747 88.2547 237.58 89.2771 235.194 90.0723C232.828 90.8675 230.821 91.265 229.173 91.265C227.526 91.265 226.192 91.1041 225.169 90.7822C224.166 90.4793 223.219 90.0155 222.329 89.3907C220.398 88.0465 219.433 86.0112 219.433 83.2849C219.433 81.8082 219.83 80.3125 220.625 78.7979C221.421 77.2643 222.462 75.8728 223.749 74.6232C226.116 72.2756 228.653 70.3255 231.36 68.773C227.46 67.8832 225.51 65.8763 225.51 62.7524C225.51 59.2309 228.217 56.0124 233.632 53.0967C236.642 51.4875 239.908 50.3326 243.43 49.6321C245.096 49.2913 246.487 49.1209 247.604 49.1209C249.876 49.1209 251.59 49.3007 252.745 49.6605C253.445 50.0012 254.013 50.484 254.449 51.1088C254.884 51.7147 255.102 52.2448 255.102 52.6992C255.102 53.1346 255.045 53.5322 254.931 53.8919C254.818 54.2516 254.628 54.5356 254.363 54.7439C253.985 55.0279 253.559 55.2456 253.085 55.3971C252.612 55.5485 252.338 55.6432 252.262 55.6811C250.785 56.3058 249.517 56.6182 248.456 56.6182C246.563 56.6182 245.531 56.3721 245.361 55.8798C245.399 55.3876 245.607 54.8196 245.986 54.1759C244.187 54.2516 242.322 54.6208 240.391 55.2835C238.46 55.9272 236.784 56.694 235.364 57.5838C233.963 58.4547 232.809 59.3635 231.9 60.3101C230.991 61.2567 230.537 62.0519 230.537 62.6956Z" fill="#880000"/>
<path d="M182.997 82.6598L182.628 83.4266C182.628 83.9756 183.394 84.5057 184.928 85.0169C186.48 85.5092 188.175 85.7553 190.011 85.7553C191.867 85.7553 193.902 85.4808 196.117 84.9317C198.332 84.3827 200.254 83.7106 201.882 82.9154C203.529 82.1202 204.883 81.2872 205.943 80.4163C207.022 79.5454 207.562 78.7881 207.562 78.1444C207.562 77.3303 206.615 76.573 204.722 75.8724C202.829 75.1719 200.074 74.4052 196.458 73.5721C192.861 72.7202 190.22 71.6505 188.535 70.363C186.868 69.0756 186.035 67.5137 186.035 65.6772C186.035 63.8218 186.698 62.0516 188.023 60.3666C189.349 58.6816 191.072 57.1859 193.192 55.8795C195.331 54.5732 197.66 53.4088 200.178 52.3865C205.385 50.2849 210.212 49.2342 214.662 49.2342C216.366 49.2342 217.871 49.3856 219.177 49.6885C221.676 50.2755 222.926 51.0517 222.926 52.0173C222.926 52.9828 222.841 53.6455 222.67 54.0052C222.5 54.346 222.358 54.5732 222.244 54.6868C222.15 54.8004 222.017 54.914 221.847 55.0276C221.695 55.1412 221.582 55.2264 221.506 55.2832C220.673 55.9837 218.391 56.4191 214.662 56.5895C213.374 56.6463 212.674 56.7126 212.56 56.7883C212.447 56.864 212.342 56.9019 212.248 56.9019C212.172 56.9019 212.077 56.8262 211.964 56.6747C211.85 56.5232 211.793 56.2771 211.793 55.9363C211.793 55.5955 212.163 54.9708 212.901 54.062C210.591 54.1945 208.12 54.7246 205.489 55.6523C202.876 56.58 200.604 57.6308 198.673 58.8046C196.742 59.9595 195.133 61.105 193.845 62.2409C192.558 63.3579 191.914 64.1531 191.914 64.6264C191.914 65.0808 192.056 65.4595 192.34 65.7624C193.135 66.6144 195.341 67.5042 198.957 68.4319C202.706 69.3975 205.205 70.1737 206.454 70.7606C207.704 71.3475 208.736 71.906 209.55 72.4362C210.383 72.9663 211.045 73.5059 211.538 74.0549C212.693 75.3802 213.27 76.7244 213.27 78.0876C213.27 79.4507 212.901 80.7287 212.163 81.9214C211.443 83.1142 210.345 84.2691 208.868 85.3861C207.41 86.5031 205.688 87.4971 203.7 88.368C199.345 90.3181 194.158 91.2931 188.137 91.2931C183.745 91.2931 180.943 90.1288 179.731 87.8C179.409 87.2131 179.248 86.6073 179.248 85.9825C179.248 85.3388 179.39 84.7613 179.674 84.2502C179.977 83.739 180.337 83.3509 180.753 83.0858C181.567 82.5746 182.145 82.319 182.486 82.319C182.826 82.319 182.997 82.4326 182.997 82.6598Z" fill="#880000"/>
<path d="M150.792 61.3043C151.076 61.3043 151.218 61.4652 151.218 61.7871C151.218 61.9007 151.171 62.0048 151.076 62.0995C149.486 63.6898 147.649 64.485 145.567 64.485C145.075 64.485 144.526 64.2105 143.92 63.6614C143.314 63.0934 143.011 62.2793 143.011 61.2191C143.011 60.1589 143.655 58.985 144.942 57.6976C146.229 56.3913 148.019 55.1606 150.309 54.0058C152.619 52.8319 155.497 51.7906 158.943 50.8819C162.389 49.9731 165.484 49.5187 168.229 49.5187C170.974 49.5187 173.227 49.7459 174.988 50.2003C176.749 50.6357 178.122 51.1848 179.106 51.8474C180.109 52.4911 180.933 53.22 181.577 54.0342C182.656 55.3973 183.196 56.7889 183.196 58.2088C183.196 59.6098 182.741 61.0582 181.832 62.5539C180.924 64.0495 179.74 65.3843 178.282 66.5581C176.844 67.713 175.187 68.7922 173.313 69.7956C169.81 71.651 166.061 73.0142 162.067 73.8851C162.748 74.5856 164.187 76.3463 166.383 79.1673C168.598 81.9693 170.615 84.317 172.432 86.2102C174.269 88.1035 175.689 89.0501 176.692 89.0501L177.629 88.7094C177.838 88.7094 177.942 88.7946 177.942 88.9649C177.942 89.1164 177.591 89.5803 176.891 90.3565C176.209 91.1138 175.613 91.6913 175.102 92.0888C174.591 92.4864 173.89 92.6852 173 92.6852C172.129 92.6852 171.135 92.2592 170.018 91.4073C168.901 90.5553 167.68 89.3531 166.355 87.8006C165.03 86.2481 163.837 84.7903 162.777 83.4271C161.716 82.0451 160.505 80.4263 159.142 78.5709C157.778 76.6966 156.841 75.4281 156.33 74.7654C156.141 75.0684 155.658 75.8257 154.882 77.0374C154.105 78.2301 153.537 79.1105 153.178 79.6785C152.818 80.2465 152.297 81.0795 151.616 82.1776C150.934 83.2567 150.404 84.1277 150.025 84.7903C148.984 86.551 148.255 87.8669 147.839 88.7378C147.441 89.6087 146.779 90.0441 145.851 90.0441L144.857 90.0157L144.005 90.0441C142.831 90.0441 142.244 89.5519 142.244 88.5674C142.244 87.829 142.557 86.7782 143.181 85.4151C143.825 84.033 147.195 78.9117 153.291 70.0512C159.388 61.1718 162.748 56.4386 163.373 55.8517C163.998 55.2458 164.462 54.9051 164.765 54.8293C164.992 54.6589 165.143 54.5737 165.219 54.5737L165.73 54.6589L166.213 54.5737C166.383 54.5737 166.535 54.6495 166.667 54.8009C166.8 54.9335 166.894 55.0187 166.951 55.0565C167.746 55.6434 168.144 56.1357 168.144 56.5333C168.144 56.9309 168.04 57.319 167.832 57.6976C167.642 58.0573 167.103 58.8809 166.213 60.1683C165.323 61.4558 164.149 63.1313 162.691 65.195C161.253 67.2397 160.211 68.7259 159.568 69.6536C161.12 69.5779 162.985 69.1046 165.162 68.2337C167.339 67.3628 169.375 66.3215 171.268 65.1098C173.18 63.8791 174.808 62.5539 176.153 61.1339C177.516 59.695 178.197 58.4455 178.197 57.3852C178.197 56.8173 177.904 56.3061 177.317 55.8517C176.73 55.3784 175.992 55.0092 175.102 54.7441C173.322 54.214 171.315 53.949 169.081 53.949C166.847 53.949 164.017 54.4317 160.59 55.3973C157.163 56.3629 154.664 57.2906 153.093 58.1804C151.521 59.0513 150.385 59.7992 149.685 60.4239C148.984 61.0298 148.634 61.4558 148.634 61.7019C148.634 61.8344 148.823 61.9007 149.202 61.9007C149.599 61.9007 149.95 61.806 150.253 61.6167C150.556 61.4084 150.735 61.3043 150.792 61.3043Z" fill="#880000"/>
<path d="M137.473 52.4436C138.477 52.4436 139.442 52.8602 140.37 53.6932C141.316 54.5262 141.79 55.4539 141.79 56.4763C141.79 57.4987 141.534 58.8334 141.023 60.4806C140.512 62.1088 139.792 63.8506 138.865 65.706C137.956 67.5425 136.839 69.4546 135.514 71.4426C134.207 73.4116 132.778 75.3332 131.225 77.2076C129.692 79.063 127.997 80.8332 126.142 82.5182C124.305 84.1843 122.441 85.6421 120.547 86.8917C116.42 89.618 112.387 90.9811 108.449 90.9811C107.086 90.9811 105.874 90.6214 104.814 89.902C103.754 89.1825 102.93 88.4725 102.343 87.772C100.999 86.1627 100.327 83.9382 100.327 81.0983C100.327 78.2394 101.264 74.8883 103.139 71.045C105.032 67.2017 107.607 63.5761 110.863 60.1682C114.139 56.7414 117.802 53.9393 121.854 51.7621C125.905 49.5659 129.758 48.4678 133.412 48.4678C134.131 48.4678 134.813 48.6287 135.457 48.9506C136.1 49.2724 136.422 49.6511 136.422 50.0865C136.422 50.503 136.318 50.8533 136.11 51.1373C135.902 51.4023 135.703 51.6958 135.514 52.0177C135.324 52.3206 135.163 52.5383 135.031 52.6708C135.656 52.5194 136.47 52.4436 137.473 52.4436ZM126.88 65.564C126.88 65.9426 126.748 66.132 126.483 66.132C126.218 66.132 125.669 65.6776 124.836 64.7688C124.002 63.8411 123.586 63.0649 123.586 62.4401C123.586 60.9823 124.561 59.3257 126.511 57.4703C128.48 55.6149 130.667 54.2044 133.071 53.2388C130.421 53.3903 127.344 54.5168 123.842 56.6183C120.339 58.7198 117.272 61.2568 114.64 64.2292C112.009 67.1827 109.879 70.2688 108.25 73.4873C106.641 76.7059 105.837 79.3186 105.837 81.3254C105.837 82.5561 106.111 83.6163 106.66 84.5061C107.209 85.377 108.137 85.8125 109.443 85.8125C110.769 85.8125 112.359 85.3581 114.214 84.4493C116.07 83.5406 117.878 82.3478 119.638 80.8711C125.697 75.7403 130.43 70.0416 133.838 63.7748C135.22 61.2 135.911 59.4203 135.911 58.4358C135.911 58.0382 135.779 57.8395 135.514 57.8395C134.737 57.8395 133.639 58.3412 132.219 59.3446C130.799 60.3291 129.54 61.4177 128.442 62.6105C127.344 63.8032 126.795 64.6647 126.795 65.1948L126.88 65.564Z" fill="#880000"/>
<path d="M107.285 49.9443H107.655C107.768 49.9443 107.834 49.9538 107.853 49.9727C107.891 49.9916 107.929 50.0106 107.967 50.0295C108.024 50.0295 108.071 50.0484 108.109 50.0863C108.204 50.162 108.336 50.2472 108.507 50.3419C108.734 50.5123 108.847 50.7111 108.847 50.9383C108.847 51.1654 108.62 51.6388 108.166 52.3582C107.73 53.0587 106.594 54.8195 104.758 57.6404C100.517 64.1343 96.7209 70.1549 93.3699 75.7022C87.5765 85.3389 84.6514 90.1857 84.5946 90.2425C84.5378 90.2993 84.4999 90.3561 84.481 90.4129C84.462 90.5265 84.3863 90.5833 84.2538 90.5833L83.8562 90.4981L83.0894 90.6969L82.635 90.6117L82.1522 90.6969H81.9818L80.3915 90.9241C79.4449 90.9241 78.9716 90.6022 78.9716 89.9585C78.9716 89.6935 79.0567 89.3621 79.2271 88.9645C79.8141 87.5825 82.7676 82.5558 88.0876 73.8847C84.5851 73.9793 81.1299 74.0267 77.722 74.0267L71.6162 73.9983C70.6128 75.6075 69.2402 77.8889 67.4983 80.8424C63.7307 87.2795 61.7239 90.5265 61.4778 90.5833C61.2316 90.659 61.0328 90.6969 60.8814 90.6969C60.7299 90.6969 60.5879 90.6117 60.4554 90.4413C60.3229 90.252 60.2282 90.1573 60.1714 90.1573C60.1335 90.1573 60.0389 90.1952 59.8874 90.2709C59.7359 90.3466 59.5182 90.3845 59.2342 90.3845L58.5811 90.3561L58.3255 90.1857C58.3065 90.1857 58.2781 90.2141 58.2403 90.2709C58.2213 90.3277 58.1551 90.3561 58.0415 90.3561C57.2274 90.3561 56.8203 90.0153 56.8203 89.3337C56.8203 88.8793 56.9812 88.283 57.3031 87.5446C57.625 86.8062 58.0415 86.0016 58.5527 85.1307C59.0828 84.2598 60.427 82.2056 62.5853 78.9681C64.7626 75.7117 65.8512 74.074 65.8512 74.0551C65.4915 74.0361 65.075 74.0172 64.6016 73.9983C63.6361 73.9983 62.9545 73.9604 62.5569 73.8847C61.4778 73.6953 60.7394 72.8055 60.3418 71.2152C60.1335 70.4389 60.0389 69.9277 60.0578 69.6816C60.0578 69.1704 60.2755 68.9148 60.711 68.9148L61.4494 69.1136C61.828 69.1326 62.7368 69.1799 64.1757 69.2556C65.6145 69.3314 66.6464 69.3692 67.2712 69.3692L68.8899 69.3124C71.3511 65.4502 74.2952 61.0862 77.722 56.2205C75.2229 58.2652 72.4492 59.2876 69.4011 59.2876C67.9622 59.2876 66.7221 58.9468 65.6808 58.2652C64.6395 57.5647 64.1189 56.6843 64.1189 55.6241C64.1189 54.5639 64.5164 53.7308 65.3116 53.125C66.1068 52.5002 66.8641 52.1878 67.5835 52.1878C68.303 52.1878 68.6627 52.3014 68.6627 52.5286C68.6627 52.6043 68.5586 52.6895 68.3503 52.7842C68.161 52.8789 68.0663 52.9735 68.0663 53.0682C68.0663 53.3711 68.3976 53.6456 69.0603 53.8918C69.7229 54.1189 70.4613 54.2325 71.2754 54.2325C72.1085 54.2325 73.1308 53.9959 74.3425 53.5226C75.5542 53.0303 76.8132 52.4055 78.1196 51.6482C79.9371 50.588 81.376 49.7076 82.4362 49.0071C83.0421 48.7042 83.6101 48.5527 84.1402 48.5527C84.6703 48.5527 85.0489 48.619 85.2761 48.7515C85.5223 48.8651 85.7021 48.9882 85.8157 49.1207C85.9293 49.2343 86.0524 49.3952 86.1849 49.6035C86.3174 49.7928 86.4405 49.9443 86.5541 50.0579C86.6866 50.1525 86.7529 50.2661 86.7529 50.3987C86.7529 50.5312 86.6772 50.7395 86.5257 51.0234C86.3932 51.3074 85.6737 52.4623 84.3674 54.4881C83.061 56.495 81.376 59.0698 79.3123 62.2127C77.2676 65.3366 75.7719 67.6369 74.8253 69.1136C79.8803 69.1136 85.3424 69.019 91.2115 68.8296C98.3492 57.5647 102.117 51.6577 102.514 51.1086C102.912 50.5596 103.272 50.1999 103.594 50.0295C103.915 49.8591 104.313 49.7739 104.786 49.7739L107.285 49.9443Z" fill="#880000"/>
<path d="M39.4972 79.1393H39.3552C38.9766 79.1771 38.5979 79.073 38.2193 78.8269C37.8596 78.5807 37.6797 78.2778 37.6797 77.9181C37.6797 77.5584 37.7744 77.2365 37.9637 76.9525C38.1719 76.6685 38.3045 76.3751 38.3613 76.0722C38.437 75.7692 38.7778 75.3338 39.3836 74.7658C40.0084 74.1978 40.5291 73.8949 40.9456 73.857C41.381 73.8002 42.1383 73.734 43.2175 73.6583C44.2967 73.5825 45.3758 73.5068 46.455 73.4311C47.5341 73.3364 48.5754 73.2891 49.5789 73.2891C50.5823 73.2891 51.1598 73.3459 51.3112 73.4595C51.4816 73.5541 51.6615 73.8097 51.8508 74.2262C52.0591 74.6238 52.2484 74.9173 52.4188 75.1066C52.5892 75.2959 52.6744 75.6083 52.6744 76.0438C52.6744 76.4603 52.504 76.8295 52.1632 77.1513C51.8224 77.4543 51.4343 77.6436 50.9988 77.7193C50.5823 77.7761 50.109 77.8424 49.5789 77.9181C49.0488 77.9749 48.4524 78.0412 47.7897 78.1169C47.146 78.1737 46.5307 78.24 45.9438 78.3157C45.3569 78.3914 44.6848 78.505 43.9275 78.6565C42.4697 78.9405 40.9929 79.1014 39.4972 79.1393Z" fill="#880000"/>
<path d="M15.556 81.4392L15.414 82.0356C15.414 82.1492 15.4614 82.2533 15.556 82.348C15.6696 82.4426 15.8021 82.49 15.9536 82.49C16.1051 82.49 16.2281 82.4142 16.3228 82.2628C19.1438 78.5141 21.4819 75.2198 23.3373 72.3799C25.1928 69.5211 26.5464 67.4195 27.3984 66.0753C28.2693 64.7311 28.9604 63.6614 29.4715 62.8662C30.8347 60.7836 32.1884 58.9188 33.5326 57.2716C28.4208 58.5591 24.4165 59.2028 21.5198 59.2028C18.6231 59.2028 16.5405 59.0229 15.272 58.6632C14.0035 58.2845 13.1705 57.868 12.7729 57.4136C12.3753 56.9403 12.1765 56.467 12.1765 55.9937C12.1765 55.5014 12.1955 55.0281 12.2333 54.5737C12.3091 53.6271 12.877 52.8508 13.9373 52.245C15.0164 51.6392 15.9063 51.3362 16.6068 51.3362C17.3073 51.3362 17.6575 51.4404 17.6575 51.6486C17.6575 51.8569 17.4966 52.1409 17.1748 52.5006C16.8718 52.8414 16.7204 53.078 16.7204 53.2106C16.7204 53.8164 18.9071 54.1193 23.2806 54.1193C27.654 54.1193 32.6806 53.5419 38.3604 52.387C41.6169 49.7364 44.4284 48.4111 46.7949 48.4111C48.3664 48.4111 49.4077 48.8561 49.9188 49.7459C50.2596 50.276 50.43 50.8061 50.43 51.3362C50.43 51.8663 50.1176 52.3965 49.4928 52.9266C48.887 53.4567 48.0634 53.9111 47.0221 54.2897C45.1289 54.9713 42.8948 55.5109 40.32 55.9085C39.2408 57.2906 37.7073 59.4394 35.7193 62.3551C33.7503 65.2707 32.4061 67.2397 31.6867 68.2621C30.9672 69.2844 29.8029 71.102 28.1936 73.7147C26.6032 76.3274 25.2212 78.5898 24.0473 80.502C22.8735 82.3953 21.6239 84.2696 20.2987 86.125C17.5913 89.9494 15.1774 91.8616 13.0569 91.8616C12.1671 91.8616 11.4003 91.625 10.7566 91.1517C10.1129 90.6783 9.79102 89.9116 9.79102 88.8513C9.79102 87.7722 10.3779 86.4374 11.5518 84.8471C12.7445 83.2378 13.6154 82.206 14.1645 81.7516C14.7135 81.2972 15.0827 81.07 15.272 81.07C15.4614 81.07 15.556 81.1931 15.556 81.4392Z" fill="#880000"/>
<path d="M258.999 35.659V38.3859H0V35.659H258.999Z" fill="#880000"/>
<path d="M258.999 99.2732V102H0V99.2732H258.999Z" fill="#880000"/>
</svg>
