<svg width="595" height="310" viewBox="0 0 595 310" fill="none" xmlns="http://www.w3.org/2000/svg">
<path d="M83.6254 139.091C83.9855 139.019 84.4167 139.62 84.9192 140.892C86.0404 146.533 83.1831 157.892 76.3473 174.971C69.5116 192.049 61.3929 208.322 51.9913 223.789C42.5897 239.257 35.1885 247.527 29.7877 248.601C28.3475 248.887 27.4485 248.13 27.0907 246.33C25.5878 238.769 26.8599 228.535 30.9069 215.629C34.9301 202.603 41.0778 188.968 49.35 174.723C57.5984 160.358 66.8901 146.534 77.225 133.252C87.5599 119.969 98.8285 108.559 111.031 99.0229C123.353 89.4624 134.915 83.6087 145.717 81.4617C153.998 79.8158 158.556 81.0931 159.391 85.2937C160.631 91.5346 154.523 102.542 141.065 118.317C127.728 134.068 115.618 145.956 104.738 153.983C104.786 154.223 105.049 154.295 105.53 154.199C110.667 152.43 115.036 151.187 118.637 150.471C130.158 148.181 136.695 150.937 138.245 158.738C139.676 165.939 137.013 175.763 130.255 188.21C123.497 200.657 114.508 212.237 103.288 222.951C92.188 233.64 81.7774 239.952 72.056 241.884C64.9749 243.291 60.8261 240.934 59.6095 234.814C58.7746 230.613 59.2968 225.394 61.176 219.157C63.0314 212.8 65.2331 207.871 67.7811 204.37C68.4058 203.747 68.8381 203.411 69.0782 203.364C69.3182 203.316 69.4501 203.352 69.474 203.472C67.5492 207.597 65.9834 212.587 64.7766 218.441C63.5458 224.175 63.336 229.083 64.1471 233.163C65.1967 238.444 68.0619 240.619 72.7425 239.689C79.1035 238.424 87.2699 232.435 97.2418 221.72C107.214 211.004 115.747 199.328 122.841 186.689C129.912 173.931 132.827 164.431 131.586 158.19C130.513 152.789 126.076 150.864 118.274 152.415C110.113 154.037 103.943 156.261 99.7642 159.088L97.4227 160.489C90.0256 165.328 86.027 167.807 85.4269 167.926C84.8268 168.046 84.5029 167.985 84.4552 167.745C84.3837 167.385 84.7683 166.81 85.6092 166.019C95.8644 159.239 106.158 150.145 116.491 138.734C126.824 127.323 134.948 116.726 140.863 106.942C146.754 97.0376 149.318 90.1653 148.555 86.3247C148.149 84.2844 146.626 83.5267 143.986 84.0515C131.744 86.4847 118.247 94.8438 103.495 109.129C88.8398 123.27 75.9342 138.998 64.7786 156.311C53.743 173.6 44.7115 190.616 37.6842 207.358C30.6568 224.1 27.9065 236.312 29.4333 243.993C29.6957 245.313 30.1869 245.902 30.907 245.758C33.1874 245.305 38.3317 237.92 46.3401 223.603C54.4446 209.142 62.2867 193.36 69.8664 176.259C77.4461 159.158 81.5758 147.295 82.2557 140.673C82.3287 139.785 82.7853 139.258 83.6254 139.091ZM173.083 166.036C173.011 165.676 172.735 165.544 172.255 165.639C169.015 166.283 164.534 170.106 158.815 177.106C153.095 184.107 148.382 191.469 144.678 199.191C150.297 196.078 156.519 190.35 163.344 182.007C170.29 173.64 173.536 168.317 173.083 166.036ZM139.941 216.788C140.251 218.348 141.006 219.009 142.206 218.771C143.647 218.485 146.696 216.88 151.355 213.958C155.991 210.916 159.738 208.113 162.596 205.548L178.02 190.88L178.666 193.184C167.734 204.09 159.374 211.304 153.586 214.825C147.918 218.322 144.064 220.273 142.024 220.678C138.664 221.346 136.566 219.58 135.731 215.379C134.61 209.739 135.529 203.692 138.488 197.24C141.448 190.788 145.27 185.225 149.955 180.551C154.76 175.854 159.457 171.863 164.044 168.581C168.752 165.275 172.426 163.36 175.066 162.835C177.707 162.31 179.206 162.948 179.563 164.748C180.446 169.189 176.239 175.639 166.942 184.099C157.764 192.536 149.898 198.466 143.342 201.89C140.431 208.582 139.297 213.548 139.941 216.788ZM176.747 195.063L175.777 193.01L180.967 188.049C188.775 180.259 193.581 174.937 195.384 172.083C197.164 169.11 198.234 167.275 198.595 166.58C200.928 161.999 202.227 159.433 202.491 158.881C204.027 159.075 205.033 160.372 205.511 162.772C203.802 166.73 201.396 171.574 198.294 177.306C195.167 182.918 192.606 187.607 190.61 191.372C188.59 195.017 187.627 197.08 187.723 197.56C187.818 198.04 187.926 198.268 188.046 198.244C188.286 198.197 189.067 197.418 190.388 195.907C191.806 194.253 195.615 190.19 201.814 183.718C214.332 170.75 222.309 162.552 225.745 159.125C229.157 155.577 231.403 153.696 232.483 153.481C233.683 153.243 234.522 154.323 234.999 156.724C235.452 159.004 234.344 162.843 231.674 168.239C229.004 173.635 225.902 178.743 222.368 183.562C212.946 196.414 208.342 203.38 208.557 204.46C208.58 204.58 208.832 204.592 209.313 204.497C210.753 204.211 217.912 197.86 230.789 185.444L237.204 179.116L237.849 181.421C221.079 198.104 210.594 206.862 206.393 207.697C205.673 207.84 205.241 207.552 205.098 206.832C204.215 202.391 205.938 196.622 210.266 189.523C214.69 182.281 219.186 175.711 223.753 169.813C228.295 163.795 230.412 160.006 230.102 158.446C230.054 158.206 229.91 158.11 229.67 158.157C226.523 160.529 219.484 167.48 208.551 179.01C197.714 190.396 191.371 197.084 189.521 199.074C184.715 204.396 182.156 207.212 181.843 207.524C181.627 207.692 181.146 208.411 180.401 209.682C178.694 212.392 176.94 213.926 175.14 214.283C172.212 214.616 170.676 214.734 170.532 214.638C170.388 214.542 170.304 214.434 170.28 214.314C170.256 214.194 171.05 212.851 172.661 210.285C174.176 207.863 175.69 205.441 177.205 203.019C182.159 194.674 185.537 188.762 187.341 185.285L176.747 195.063ZM271.535 146.468C271.463 146.108 271.187 145.975 270.707 146.071C267.467 146.715 262.987 150.537 257.267 157.538C251.547 164.538 246.835 171.9 243.13 179.623C248.749 176.51 254.971 170.782 261.796 162.439C268.742 154.072 271.988 148.748 271.535 146.468ZM238.393 197.22C238.703 198.78 239.458 199.441 240.659 199.202C242.099 198.916 245.148 197.312 249.807 194.39C254.443 191.347 258.19 188.544 261.048 185.98L276.473 171.311L277.118 173.616C266.186 184.522 257.826 191.735 252.038 195.256C246.371 198.753 242.517 200.704 240.476 201.11C237.116 201.778 235.018 200.012 234.183 195.811C233.062 190.17 233.981 184.124 236.941 177.672C239.9 171.22 243.722 165.657 248.407 160.983C253.213 156.285 257.909 152.295 262.496 149.013C267.204 145.707 270.878 143.791 273.518 143.266C276.159 142.742 277.658 143.379 278.016 145.18C278.898 149.62 274.691 156.071 265.394 164.531C256.216 172.967 248.35 178.897 241.795 182.321C238.883 189.013 237.749 193.979 238.393 197.22ZM340.688 158.735C342.418 156.769 345.556 151.841 350.101 143.952C354.646 136.062 356.811 131.577 356.596 130.497C356.501 130.016 355.973 129.872 355.013 130.063C346.492 131.756 337.772 138.729 328.854 150.982C319.913 163.114 316.145 172.721 317.553 179.802C317.696 180.522 318.128 180.81 318.848 180.667C319.568 180.524 320.624 179.877 322.018 178.727C323.507 177.433 325.237 175.779 327.207 173.766C329.274 171.608 330.968 169.775 332.289 168.264C337.311 162.775 340.111 159.598 340.688 158.735ZM287.729 255.719C289.169 255.433 297.297 241.716 312.112 214.568L319.543 201.114C319.496 200.874 319.352 200.778 319.112 200.826C312.119 208.329 305.691 215.844 299.826 223.373C293.986 231.021 290.223 237.196 288.537 241.898C286.732 246.623 286.211 250.906 286.974 254.747C287.117 255.467 287.369 255.791 287.729 255.719ZM339.044 178.711C341.085 178.306 348.604 171.883 361.601 159.444L368.232 153.26L368.841 155.385C362.21 162.192 355.891 168.064 349.886 173.001L335.185 184.718C328.256 199.445 319.166 215.536 307.914 232.993C296.566 250.594 289.632 259.645 287.112 260.146C284.591 260.647 283.164 260.058 282.83 258.377C281.089 249.616 285.674 238.163 296.586 224.017C300.552 218.862 305.707 212.785 312.05 205.785C318.418 198.905 322.311 194.638 323.729 192.984C325.821 189.075 328.01 185.022 330.294 180.825C335.273 171.975 337.93 167.143 338.267 166.328C338.219 166.087 337.955 166.015 337.475 166.111C337.115 166.182 334.112 169.274 328.465 175.387C322.938 181.476 319.155 184.723 317.115 185.129C315.194 185.51 313.876 183.901 313.161 180.3C311.181 170.339 314.889 159.496 324.286 147.773C333.804 136.025 346.543 128.565 362.506 125.392C363.826 125.13 364.629 125.719 364.915 127.159C348.439 159.128 339.815 176.312 339.044 178.711ZM421.858 136.8L423.62 138.134C418.767 142.592 414.827 146.307 411.8 149.279C408.773 152.251 406.359 153.916 404.559 154.274C401.918 154.799 400.371 153.921 399.918 151.641C399.584 149.961 399.828 146.481 400.65 141.203C401.569 135.78 402.185 131.977 402.5 129.794L401.852 129.361C401.372 129.457 400.88 129.804 400.375 130.403C390.186 142.534 383.625 150.638 380.692 154.714C377.88 158.766 375.175 163.046 372.578 167.555C370.1 172.04 368.718 174.498 368.429 174.929C368.261 175.337 368.128 175.613 368.032 175.757C367.744 176.188 366.579 176.607 364.539 177.012C362.379 177.442 361.263 177.477 361.191 177.116C361.36 176.709 362.526 174.73 364.69 171.181C369.956 162.524 374.621 154.299 378.686 146.504L374.074 150.602C369.221 155.06 365.701 158.38 363.515 160.561L362.401 158.724L372.311 149.268C375.867 145.817 378.799 142.365 381.107 138.912C383.535 135.435 385.11 132.689 385.832 130.674C386.555 128.659 387.217 126.968 387.818 125.601C388.42 124.234 389.081 123.478 389.801 123.335C390.521 123.192 391.745 123.386 393.472 123.916C393.71 125.116 393.168 127.407 391.844 130.789C390.52 134.171 389.136 137.253 387.693 140.035L385.492 144.028C385.54 144.268 385.624 144.376 385.744 144.353C386.104 144.281 386.488 144.018 386.897 143.562C387.282 142.987 388.928 140.913 391.836 137.341C394.84 133.624 397.46 130.484 399.694 127.919C401.905 125.234 404.5 122.597 407.479 120.009C410.578 117.397 412.908 115.936 414.468 115.625C416.028 115.315 416.88 115.52 417.023 116.24C417.214 117.201 414.679 119.825 409.418 124.115C408.241 125.097 406.892 128.983 405.373 135.773C403.949 142.419 403.523 147.182 404.096 150.062C404.215 150.662 404.815 150.855 405.895 150.64C407.095 150.402 409.161 148.868 412.092 146.04L421.858 136.8ZM448.252 117.332L448.216 117.152C446.054 118.829 443.987 122.234 442.013 127.367C440.015 132.38 439.098 136.555 439.262 139.891C446.138 129.292 449.135 121.772 448.252 117.332ZM417.385 162.579C421.946 161.672 428.372 155.405 436.666 143.775L436.487 142.875C435.747 139.155 436.641 134.236 439.168 128.12C441.791 121.86 444.448 117.651 447.138 115.494C446.707 115.206 446.191 115.121 445.591 115.241C441.15 116.123 434.783 122.691 426.489 134.944C418.315 147.173 414.789 156.108 415.91 161.749C416.053 162.469 416.545 162.746 417.385 162.579ZM411.303 161.168C409.514 152.166 412.898 142.199 421.454 131.266C430.106 120.19 437.853 113.972 444.694 112.612C448.055 111.944 450.033 113.11 450.629 116.111C452.323 124.632 449.456 134.06 442.028 144.394C442.796 144.491 443.54 144.468 444.26 144.324C447.621 143.657 452.064 140.59 457.59 135.125L458.848 136.747C452.193 143.434 446.885 147.171 442.924 147.959C441.364 148.269 440.164 148.195 439.325 147.738C435.407 152.509 431.107 156.608 426.423 160.034C421.739 163.46 418.197 165.412 415.797 165.889C413.517 166.342 412.019 164.768 411.303 161.168ZM477.63 113.177C478.448 111.642 479.374 109.711 480.409 107.384C481.443 105.058 482.441 103.799 483.401 103.608C484.361 103.418 485.56 104.115 486.998 105.7C487.428 107.861 483.374 116.027 474.838 130.2C466.422 144.349 462.321 151.963 462.536 153.043C462.584 153.283 462.968 153.332 463.688 153.189C464.408 153.045 468.119 149.75 474.823 143.303C488.853 129.785 500.461 115.688 509.646 101.012C512.001 97.799 514.259 95.9778 516.42 95.5484C516.54 95.5246 516.66 95.5007 516.78 95.4769C519.084 95.1437 520.284 95.2171 520.379 95.6971L520.271 96.093C516.064 101.919 509.993 111.547 502.058 124.977C494.123 138.406 490.358 146.141 490.763 148.181C490.859 148.661 491.266 148.83 491.987 148.687C492.827 148.52 500.07 141.965 513.716 129.022L520.167 122.874L520.776 124.999C519.527 126.245 517.905 127.815 515.911 129.709C500.271 144.545 490.95 152.261 487.95 152.857C486.87 153.072 486.21 152.579 485.972 151.379C485.733 150.179 486.494 146.472 488.253 140.259C490.132 134.022 491.577 129.992 492.587 128.169L490.029 130.362C474.482 146.926 464.909 155.566 461.308 156.281C459.868 156.568 458.993 155.931 458.683 154.37C458.349 152.69 458.591 150.459 459.411 147.676C460.206 144.773 460.989 142.434 461.759 140.659C462.649 138.861 463.972 136.414 465.727 133.321C467.459 130.107 468.373 128.428 468.469 128.284L456.073 139.357L455.139 137.484L460.509 132.487C469.614 123.69 475.322 117.254 477.63 113.177ZM474.727 201.522L552.101 66.3739C552.558 65.5345 553.747 64.924 555.667 64.5423C557.588 64.1607 558.643 64.4499 558.834 65.41C558.906 65.7701 558.701 66.3098 558.22 67.0292L526.514 121.239C526.057 122.078 525.853 122.618 525.9 122.858C525.948 123.098 526.032 123.206 526.152 123.182C526.392 123.134 527.413 121.996 529.216 119.766C530.994 117.416 536.905 111.376 546.948 101.645C557.087 91.7696 563.776 86.51 567.017 85.866C568.337 85.6036 569.164 86.3125 569.498 87.9927C570.142 91.2332 569.213 95.6597 566.711 101.272C564.184 106.765 561.154 111.921 557.621 116.74C548.535 129.4 544.063 136.09 544.206 136.81C544.325 137.41 544.625 137.663 545.105 137.567C551.397 134.071 556.765 130.322 561.209 126.319L576.633 111.651L577.279 113.956C566.346 124.862 557.987 132.075 552.199 135.596C546.531 139.093 542.797 141.02 540.997 141.378C539.317 141.712 538.369 141.339 538.155 140.259C537.725 138.098 539.867 133.181 544.58 125.508C549.412 117.81 554.281 110.293 559.185 102.955C564.066 95.4976 566.387 91.1687 566.148 89.9686C566.1 89.7285 565.896 89.6443 565.536 89.7159C562.896 90.2407 557.492 94.4339 549.323 102.295C541.25 110.013 535.904 115.442 533.285 118.583C530.762 121.58 528.466 124.469 526.399 127.25C524.308 129.911 522.578 132.189 521.208 134.083C519.957 135.953 518.695 137.764 517.421 139.514C516.244 141.121 515.27 142.499 514.501 143.65C513.731 144.801 508.489 153.89 498.774 170.917C489.082 188.064 483.527 198.089 482.107 200.991C480.712 204.013 478.994 205.726 476.954 206.132C474.769 206.441 473.606 206.236 473.463 205.516C473.319 204.796 473.741 203.464 474.727 201.522Z" fill="#E2E2E2"/>
</svg>
