<svg width="82" height="19" viewBox="0 0 82 19" fill="none" xmlns="http://www.w3.org/2000/svg">
<path d="M14.64 12.984H15L15.312 16.728C13.536 17.904 11.88 18.216 9.312 18.216C4.248 18.216 0.984 14.616 0.984 9.552C0.984 4.464 4.248 0.887999 9.312 0.887999C11.784 0.887999 13.8 1.128 15.312 2.352L15 6.096H14.64C13.632 2.496 11.64 1.248 9.312 1.248C6.72 1.248 4.68 2.64 4.68 9.552C4.68 16.536 6.792 17.856 9.312 17.856C11.712 17.856 14.184 16.128 14.64 12.984ZM25.5519 12.456C25.5519 8.112 24.7359 7.056 22.9359 7.056C21.1599 7.056 20.3199 8.112 20.3199 12.456C20.3199 16.8 21.1599 17.856 22.9359 17.856C24.7359 17.856 25.5519 16.8 25.5519 12.456ZM28.5759 12.456C28.5759 15.6 26.6079 18.216 22.9359 18.216C19.2879 18.216 17.3199 15.6 17.3199 12.456C17.3199 9.288 19.2879 6.696 22.9359 6.696C26.6079 6.696 28.5759 9.288 28.5759 12.456ZM41.4604 17.64V18H36.9724V17.64C37.8844 17.376 37.9324 16.656 37.9324 15.432V10.512C37.9324 9.12 37.1164 8.16 35.7244 8.16C34.6444 8.16 33.5644 9.264 33.4684 10.176V15.456C33.4684 16.776 33.6124 17.4 34.4524 17.64V18H29.9884V17.64C30.9004 17.376 30.9244 16.68 30.9244 15.456V9.408C30.9244 8.568 30.7084 8.28 29.7244 7.872V7.512L33.4684 6.696V9.24C33.9964 7.8 35.7964 6.696 37.3084 6.696C39.2044 6.696 40.4764 7.536 40.4764 10.44V15.432C40.4764 16.752 40.5964 17.424 41.4604 17.64ZM49.3937 15.84L49.7057 16.032C49.2977 17.112 48.0257 18.216 46.5137 18.216C44.7137 18.216 43.6097 17.448 43.6097 14.544V7.272H42.4097L42.3377 6.912H43.6097V3.6L46.1537 3.192V6.912H49.0097L48.9137 7.272H46.1537V14.472C46.1537 16.104 46.7777 16.776 47.9537 16.776C48.6497 16.776 49.2017 16.272 49.3937 15.84ZM57.1208 12.216C54.5528 12.792 53.5688 13.872 53.5688 15.216C53.5688 15.552 53.7848 16.944 55.2968 16.944C56.3288 16.944 56.9048 16.2 57.1208 15.624C57.1208 15.576 57.1208 12.216 57.1208 12.216ZM61.5128 16.416L61.8728 16.56C61.7048 17.304 60.7448 18.216 59.3528 18.216C59.3528 18.216 57.3608 18.24 57.1448 16.224C56.8088 17.328 55.3928 18.216 53.7128 18.216C53.7128 18.216 50.9528 18.216 50.9528 15.768C50.9528 13.248 52.9688 12.864 57.1208 11.808V10.368C57.1208 7.896 55.8248 6.576 54.0248 7.44C53.1848 7.872 53.0648 8.304 53.2088 8.328C53.5448 8.376 53.8088 8.52 54.0248 8.808C54.4328 9.36 54.2888 10.128 53.7368 10.536C53.1848 10.92 52.3928 10.8 52.0088 10.248C51.7208 9.84 51.6968 9.312 51.9128 8.928C52.1288 8.544 52.4888 7.872 53.7848 7.176C54.8408 6.624 56.0648 6.696 56.0648 6.696C58.9448 6.696 59.7128 8.664 59.7128 11.496V15.336C59.7128 15.336 59.7128 16.92 60.8408 16.92C60.8408 16.92 61.3688 16.92 61.5128 16.416ZM72.8123 14.928L73.1003 15.096C72.7883 16.296 71.4683 18.216 68.4922 18.216C65.5883 18.216 63.2363 15.6 63.2363 12.432C63.2363 9.6 65.3723 6.696 69.2603 6.696C71.3003 6.696 72.1643 7.584 72.4763 7.944C72.7643 8.304 72.9323 8.88 72.7163 9.336C72.4523 10.008 71.6603 10.392 70.9643 10.128C70.2683 9.864 69.9563 9.072 70.2203 8.4C70.3403 8.04 70.6043 7.776 70.9163 7.656C71.1323 7.584 70.5323 7.056 69.2603 7.056C68.3483 7.056 65.8763 7.8 65.8763 12.096C65.8763 15 67.4603 16.224 69.1403 16.488C70.6283 16.704 72.3083 15.792 72.8123 14.928ZM81.4093 15.84L81.7213 16.032C81.3133 17.112 80.0413 18.216 78.5293 18.216C76.7293 18.216 75.6253 17.448 75.6253 14.544V7.272H74.4253L74.3533 6.912H75.6253V3.6L78.1693 3.192V6.912H81.0253L80.9293 7.272H78.1693V14.472C78.1693 16.104 78.7933 16.776 79.9693 16.776C80.6653 16.776 81.2173 16.272 81.4093 15.84Z" fill="black"/>
</svg>
