<svg width="431" height="94" viewBox="0 0 431 94" fill="none" xmlns="http://www.w3.org/2000/svg">
<path d="M73.08 65.248H75L76.664 85.216C67.192 91.488 58.36 93.152 44.664 93.152C17.656 93.152 0.248 73.952 0.248 46.944C0.248 19.808 17.656 0.735992 44.664 0.735992C57.848 0.735992 68.6 2.016 76.664 8.544L75 28.512H73.08C67.704 9.312 57.08 2.656 44.664 2.656C30.84 2.656 19.96 10.08 19.96 46.944C19.96 84.192 31.224 91.232 44.664 91.232C57.464 91.232 70.648 82.016 73.08 65.248ZM131.277 62.432C131.277 39.264 126.925 33.632 117.325 33.632C107.853 33.632 103.373 39.264 103.373 62.432C103.373 85.6 107.853 91.232 117.325 91.232C126.925 91.232 131.277 85.6 131.277 62.432ZM147.405 62.432C147.405 79.2 136.909 93.152 117.325 93.152C97.869 93.152 87.373 79.2 87.373 62.432C87.373 45.536 97.869 31.712 117.325 31.712C136.909 31.712 147.405 45.536 147.405 62.432ZM216.122 90.08V92H192.186V90.08C197.05 88.672 197.306 84.832 197.306 78.304V52.064C197.306 44.64 192.954 39.52 185.53 39.52C179.77 39.52 174.01 45.408 173.498 50.272V78.432C173.498 85.472 174.266 88.8 178.746 90.08V92H154.938V90.08C159.802 88.672 159.93 84.96 159.93 78.432V46.176C159.93 41.696 158.778 40.16 153.53 37.984V36.064L173.498 31.712V45.28C176.314 37.6 185.914 31.712 193.978 31.712C204.09 31.712 210.874 36.192 210.874 51.68V78.304C210.874 85.344 211.514 88.928 216.122 90.08ZM258.433 80.48L260.097 81.504C257.921 87.264 251.137 93.152 243.073 93.152C233.473 93.152 227.585 89.056 227.585 73.568V34.784H221.185L220.801 32.864H227.585V15.2L241.153 13.024V32.864H256.385L255.873 34.784H241.153V73.184C241.153 81.888 244.481 85.472 250.753 85.472C254.465 85.472 257.409 82.784 258.433 80.48ZM299.644 61.152C285.948 64.224 280.7 69.984 280.7 77.152C280.7 78.944 281.852 86.368 289.916 86.368C295.42 86.368 298.492 82.4 299.644 79.328C299.644 79.072 299.644 61.152 299.644 61.152ZM323.068 83.552L324.988 84.32C324.092 88.288 318.972 93.152 311.548 93.152C311.548 93.152 300.924 93.28 299.772 82.528C297.98 88.416 290.428 93.152 281.468 93.152C281.468 93.152 266.748 93.152 266.748 80.096C266.748 66.656 277.5 64.608 299.644 58.976V51.296C299.644 38.112 292.732 31.072 283.132 35.68C278.652 37.984 278.012 40.288 278.78 40.416C280.572 40.672 281.98 41.44 283.132 42.976C285.308 45.92 284.54 50.016 281.596 52.192C278.652 54.24 274.428 53.6 272.38 50.656C270.844 48.48 270.716 45.664 271.868 43.616C273.02 41.568 274.94 37.984 281.852 34.272C287.484 31.328 294.012 31.712 294.012 31.712C309.372 31.712 313.468 42.208 313.468 57.312V77.792C313.468 77.792 313.468 86.24 319.484 86.24C319.484 86.24 322.3 86.24 323.068 83.552ZM383.332 75.616L384.868 76.512C383.204 82.912 376.164 93.152 360.292 93.152C344.804 93.152 332.26 79.2 332.26 62.304C332.26 47.2 343.652 31.712 364.388 31.712C375.268 31.712 379.876 36.448 381.54 38.368C383.076 40.288 383.972 43.36 382.82 45.792C381.412 49.376 377.188 51.424 373.476 50.016C369.764 48.608 368.1 44.384 369.508 40.8C370.148 38.88 371.556 37.472 373.22 36.832C374.372 36.448 371.172 33.632 364.388 33.632C359.524 33.632 346.34 37.6 346.34 60.512C346.34 76 354.788 82.528 363.748 83.936C371.684 85.088 380.644 80.224 383.332 75.616ZM429.183 80.48L430.847 81.504C428.671 87.264 421.887 93.152 413.823 93.152C404.223 93.152 398.335 89.056 398.335 73.568V34.784H391.935L391.551 32.864H398.335V15.2L411.903 13.024V32.864H427.135L426.623 34.784H411.903V73.184C411.903 81.888 415.231 85.472 421.503 85.472C425.215 85.472 428.159 82.784 429.183 80.48Z" fill="black"/>
</svg>
