<svg width="615" height="128" viewBox="0 0 615 128" fill="none" xmlns="http://www.w3.org/2000/svg">
<path d="M0.432 5.88799H81.712V30.08H79.792C79.024 8.19199 54.704 7.808 53.808 7.808H48.816V82.048C48.816 90.624 53.552 94.08 58.928 94.08V96H23.088V94.08C28.464 94.08 33.2 90.624 33.2 82.048V7.808H28.208C26.288 7.808 3.12 8.19199 2.352 30.08H0.432V5.88799ZM147.018 94.08V96H123.082V94.08C127.946 92.672 128.202 88.704 128.202 82.176V56.448C128.202 48.128 124.362 43.776 116.17 43.776C111.306 43.776 106.698 48 104.266 52.736V82.176C104.266 89.216 104.906 92.8 109.514 93.952V96H85.578V93.952C90.442 92.544 90.698 88.704 90.698 82.176V14.848C90.698 10.368 89.546 8.96 84.298 7.55199V5.632L104.266 1.02399V49.92C106.57 42.88 116.682 35.712 124.874 35.712C135.242 35.712 141.77 40.576 141.77 55.936V82.176C141.77 89.216 142.538 92.928 147.018 94.08ZM187.394 65.152C173.698 68.224 168.45 73.984 168.45 81.152C168.45 82.944 169.602 90.368 177.666 90.368C183.17 90.368 186.242 86.4 187.394 83.328C187.394 83.072 187.394 65.152 187.394 65.152ZM210.818 87.552L212.738 88.32C211.842 92.288 206.722 97.152 199.298 97.152C199.298 97.152 188.674 97.28 187.522 86.528C185.73 92.416 178.178 97.152 169.218 97.152C169.218 97.152 154.498 97.152 154.498 84.096C154.498 70.656 165.25 68.608 187.394 62.976V55.296C187.394 42.112 180.482 35.072 170.882 39.68C166.402 41.984 165.762 44.288 166.53 44.416C168.322 44.672 169.73 45.44 170.882 46.976C173.058 49.92 172.29 54.016 169.346 56.192C166.402 58.24 162.178 57.6 160.13 54.656C158.594 52.48 158.466 49.664 159.618 47.616C160.77 45.568 162.69 41.984 169.602 38.272C175.234 35.328 181.762 35.712 181.762 35.712C197.122 35.712 201.218 46.208 201.218 61.312V81.792C201.218 81.792 201.218 90.24 207.234 90.24C207.234 90.24 210.05 90.24 210.818 87.552ZM278.122 94.08V96H254.186V94.08C259.05 92.672 259.306 88.832 259.306 82.304V56.064C259.306 48.64 254.954 43.52 247.53 43.52C241.77 43.52 236.01 49.408 235.498 54.272V82.432C235.498 89.472 236.266 92.8 240.746 94.08V96H216.938V94.08C221.802 92.672 221.93 88.96 221.93 82.432V50.176C221.93 45.696 220.778 44.16 215.53 41.984V40.064L235.498 35.712V49.28C238.314 41.6 247.914 35.712 255.978 35.712C266.09 35.712 272.874 40.192 272.874 55.68V82.304C272.874 89.344 273.514 92.928 278.122 94.08ZM347.569 94.08V96H332.849C324.017 96 322.353 93.696 313.393 80.896C310.449 76.672 304.945 69.376 304.945 69.376L316.977 56.576C316.977 56.576 335.665 38.4 318.769 38.784V36.864H348.721V38.784C344.625 38.912 334.385 39.808 315.569 61.696C329.777 81.664 336.177 88.32 336.177 88.32C340.145 93.568 345.009 93.952 347.569 94.08ZM307.121 94.08V96H283.185V94.08C288.049 92.672 288.305 88.832 288.305 82.304V14.848C288.305 10.368 287.153 8.448 281.905 7.03999V5.12L301.873 1.02399V82.304C301.873 89.344 302.513 92.928 307.121 94.08ZM423.725 36.864H448.685V38.656C445.101 38.656 439.981 39.424 432.173 58.88L412.461 111.744C409.389 119.808 405.805 123.136 403.629 124.8C401.581 126.464 397.613 127.232 394.925 125.952C390.957 124.16 389.293 119.552 390.957 115.584C392.749 111.616 397.357 109.824 401.325 111.616C403.373 112.512 404.653 114.304 405.165 116.224C405.677 117.888 408.621 116.608 410.541 111.488L415.917 96.768C404.269 70.784 391.853 44.416 391.853 44.416C389.549 39.04 385.197 38.784 383.277 38.656V36.864H411.565V38.656C404.141 38.656 407.981 47.232 407.981 47.232L422.701 78.72L430.381 58.496C430.381 58.496 438.573 38.528 423.725 38.656V36.864ZM495.152 66.432C495.152 43.264 490.8 37.632 481.2 37.632C471.728 37.632 467.248 43.264 467.248 66.432C467.248 89.6 471.728 95.232 481.2 95.232C490.8 95.232 495.152 89.6 495.152 66.432ZM511.28 66.432C511.28 83.2 500.784 97.152 481.2 97.152C461.744 97.152 451.248 83.2 451.248 66.432C451.248 49.536 461.744 35.712 481.2 35.712C500.784 35.712 511.28 49.536 511.28 66.432ZM583.069 92.288V94.08L566.301 97.024C562.973 97.536 562.973 94.848 562.973 94.848V83.84C560.285 90.88 550.813 97.152 542.493 97.152C532.893 97.152 525.341 93.312 525.341 77.696V49.664C525.341 41.6 525.597 40.832 518.173 40.064V38.144L538.781 35.712V77.312C538.781 85.76 543.389 89.344 550.813 89.344C555.677 89.344 560.541 85.504 562.973 80.256V49.664C562.973 41.856 563.357 40.576 556.957 40.064V38.144L576.541 35.712V84.736C576.541 90.88 577.693 91.648 583.069 92.288ZM609.433 69.632H602.137L598.681 0.639992H613.145L609.433 69.632ZM614.297 88.448C614.297 83.712 610.457 79.872 605.721 79.872C600.985 79.872 597.145 83.712 597.145 88.448C597.145 93.312 600.985 97.152 605.721 97.152C610.457 97.152 614.297 93.312 614.297 88.448Z" fill="black"/>
</svg>
