<svg width="899" height="106" viewBox="0 0 899 106" fill="none" xmlns="http://www.w3.org/2000/svg">
<path d="M72.16 93.8892C72.16 93.8892 65.9273 105.247 44.0437 105.247C19.3901 105.247 8.58681 97.0748 8.58681 97.0748V70.4821H10.6644C12.8804 83.0859 19.9441 103.169 44.0437 103.169C61.9107 103.169 65.6503 81.4239 49.0299 69.5126L27.0078 55.3852C10.5259 44.8589 0.553593 31.7011 11.6339 15.9117C11.6339 15.9117 18.4206 5.24687 39.0576 5.24687C60.9412 5.24687 72.5755 11.8951 72.5755 11.8951V35.1637H70.498C68.5589 24.6374 61.6337 7.32443 39.0576 7.32443C24.0992 7.32443 15.6505 26.1609 35.041 38.7648L57.2016 53.3077C75.6226 65.496 81.0242 80.5929 72.16 93.8892ZM126.445 91.5347L128.245 92.6427C125.891 98.8754 118.55 105.247 109.824 105.247C99.4366 105.247 93.0654 100.814 93.0654 84.0555V42.0889H86.1402L85.7247 40.0113H93.0654V20.8978L107.747 18.5432V40.0113H124.229L123.675 42.0889H107.747V83.64C107.747 93.0582 111.348 96.9363 118.135 96.9363C122.151 96.9363 125.337 94.0277 126.445 91.5347ZM171.038 70.6206C156.218 73.9447 150.539 80.1774 150.539 87.9336C150.539 89.8726 151.786 97.9058 160.511 97.9058C166.467 97.9058 169.791 93.6122 171.038 90.2881C171.038 90.0111 171.038 70.6206 171.038 70.6206ZM196.384 94.8588L198.461 95.6898C197.492 99.9834 191.952 105.247 183.918 105.247C183.918 105.247 172.423 105.385 171.176 93.7507C169.237 100.122 161.065 105.247 151.37 105.247C151.37 105.247 135.442 105.247 135.442 91.1192C135.442 76.5763 147.076 74.3602 171.038 68.266V59.9558C171.038 45.6899 163.558 38.0722 153.171 43.0584C148.323 45.5514 147.63 48.0445 148.461 48.183C150.401 48.46 151.924 49.291 153.171 50.9531C155.525 54.1387 154.694 58.5708 151.509 60.9254C148.323 63.1414 143.752 62.4489 141.536 59.2633C139.874 56.9087 139.736 53.8617 140.982 51.6456C142.229 49.4295 144.306 45.5514 151.786 41.5348C157.88 38.3493 164.943 38.7648 164.943 38.7648C181.564 38.7648 185.996 50.1221 185.996 66.4655V88.6261C185.996 88.6261 185.996 97.7673 192.506 97.7673C192.506 97.7673 195.553 97.7673 196.384 94.8588ZM249.405 15.4961C247.604 19.2357 243.172 20.8978 239.432 19.2357C235.554 17.4352 234.031 13.1416 235.693 9.26348C236.662 7.32443 238.186 6.0779 239.986 5.66238C241.648 5.38538 239.571 2.89231 235 2.89231C229.045 2.89231 225.444 10.3715 225.444 40.0113H240.679L240.263 42.0889H225.444V90.2881C225.444 97.7673 226.69 100.814 231.676 101.922V104H205.36V101.922C210.624 100.676 210.762 97.2133 210.762 90.2881V42.0889H201.898L201.759 40.0113H210.762C210.762 8.98647 218.518 0.953262 234.862 0.953262C241.787 0.953262 247.05 4.96987 248.435 7.04742C249.959 9.26348 250.513 12.8646 249.405 15.4961ZM293.093 15.4961C291.292 19.2357 286.86 20.8978 283.121 19.2357C279.242 17.4352 277.719 13.1416 279.381 9.26348C280.35 7.32443 281.874 6.0779 283.675 5.66238C285.337 5.38538 283.259 2.89231 278.688 2.89231C272.733 2.89231 269.132 10.3715 269.132 40.0113H284.367L283.952 42.0889H269.132V90.2881C269.132 97.7673 270.378 100.814 275.364 101.922V104H249.049V101.922C254.312 100.676 254.45 97.2133 254.45 90.2881V42.0889H245.586L245.448 40.0113H254.45C254.45 8.98647 262.207 0.953262 278.55 0.953262C285.475 0.953262 290.738 4.96987 292.123 7.04742C293.647 9.26348 294.201 12.8646 293.093 15.4961ZM329.556 6.4934H368.199V8.57096C362.243 8.57096 357.395 11.618 357.395 20.2053V88.2106C357.395 97.6288 362.381 101.922 368.199 101.922V104H329.556V101.922C335.512 101.922 340.359 97.6288 340.359 88.2106V20.2053C340.359 11.618 335.65 8.57096 329.556 8.57096V6.4934ZM442.476 101.922V104H416.575V101.922C421.839 100.399 422.116 96.2438 422.116 89.1801V60.7869C422.116 52.7536 417.406 47.2135 409.373 47.2135C403.141 47.2135 396.908 53.5847 396.354 58.8478V89.3186C396.354 96.9363 397.185 100.537 402.032 101.922V104H376.271V101.922C381.534 100.399 381.672 96.3823 381.672 89.3186V54.4157C381.672 49.5681 380.426 47.906 374.747 45.5514V43.4739L396.354 38.7648V53.4462C399.401 45.1359 409.789 38.7648 418.514 38.7648C429.456 38.7648 436.797 43.6124 436.797 60.3713V89.1801C436.797 96.7978 437.489 100.676 442.476 101.922ZM488.259 91.5347L490.059 92.6427C487.705 98.8754 480.364 105.247 471.638 105.247C461.25 105.247 454.879 100.814 454.879 84.0555V42.0889H447.954L447.538 40.0113H454.879V20.8978L469.561 18.5432V40.0113H486.043L485.489 42.0889H469.561V83.64C469.561 93.0582 473.162 96.9363 479.948 96.9363C483.965 96.9363 487.151 94.0277 488.259 91.5347ZM512.076 68.6816H541.716C541.716 49.8451 534.375 40.8423 527.311 40.8423C519.278 40.8423 512.076 53.3077 512.076 68.6816ZM551.965 86.41L553.904 87.3796C552.103 94.1662 544.07 105.247 526.619 105.247C509.029 105.247 496.563 89.7341 496.563 72.4212C496.563 52.4766 509.721 38.7648 527.865 38.7648C546.009 38.7648 556.12 49.014 556.12 70.7591H512.076C512.907 86.8255 520.525 94.1662 530.497 95.6898C538.53 96.9363 548.918 93.0582 551.965 86.41ZM602.911 39.3188C605.682 38.6263 609.975 39.1803 612.468 41.5348C615.931 44.9974 615.931 50.6761 612.468 54.1387C609.006 57.6013 603.465 57.7398 599.726 54.2772C598.064 52.4766 597.233 50.2606 597.371 48.183C597.648 46.244 590.169 48.5985 585.46 57.3243V89.0416C585.46 96.7978 586.153 100.537 591.139 101.922V104H565.1V101.922C570.363 100.26 570.64 96.2438 570.64 89.0416V54.4157C570.64 49.7066 569.394 47.629 563.715 45.5514V43.4739L585.46 38.7648V53.7232C591.693 43.3354 598.479 40.4268 602.911 39.3188ZM661.562 40.0113H688.432V41.9504C684.277 41.9504 679.152 42.2274 671.119 61.6179L654.222 105.247H652.421C627.906 52.0611 626.382 49.1525 626.382 49.1525C623.058 42.0889 619.319 42.0889 616.826 41.9504V40.0113H647.574V41.9504C639.125 41.9504 644.111 52.0611 644.111 52.0611L659.623 85.4405L668.765 61.7564C668.765 61.7564 676.659 41.9504 661.562 41.9504V40.0113ZM705.271 27.4075C700.7 27.4075 697.099 23.8064 697.099 19.2357C697.099 14.6651 700.7 10.9255 705.271 10.9255C709.842 10.9255 713.72 14.6651 713.72 19.2357C713.72 23.8064 709.842 27.4075 705.271 27.4075ZM719.675 101.922V104H693.914V101.922C699.177 100.26 699.454 96.2438 699.454 89.1801V54.5542C699.454 49.8451 698.069 47.906 692.39 45.5514V43.4739L713.997 38.7648V89.1801C713.997 96.7978 714.689 100.537 719.675 101.922ZM745.395 68.6816H775.035C775.035 49.8451 767.694 40.8423 760.63 40.8423C752.597 40.8423 745.395 53.3077 745.395 68.6816ZM785.284 86.41L787.223 87.3796C785.423 94.1662 777.389 105.247 759.938 105.247C742.348 105.247 729.883 89.7341 729.883 72.4212C729.883 52.4766 743.04 38.7648 761.184 38.7648C779.328 38.7648 789.439 49.014 789.439 70.7591H745.395C746.226 86.8255 753.844 94.1662 763.816 95.6898C771.849 96.9363 782.237 93.0582 785.284 86.41ZM872.619 40.0113H898.519V41.9504C895.472 41.9504 889.24 42.5044 882.592 61.3409L866.525 105.247H864.725L845.334 61.8949L829.683 105.247H827.744C804.198 52.0611 802.398 48.5985 802.398 48.5985C799.351 42.3659 795.75 42.0889 793.534 41.9504V40.0113H823.173V41.9504C815.14 41.9504 819.572 50.6761 819.572 50.6761L834.808 84.8865L844.226 59.1248C839.932 49.7066 839.378 48.5985 839.378 48.5985C836.331 42.3659 833.007 42.0889 830.791 41.9504V40.0113H860.569V41.9504C851.705 41.9504 856.553 50.8146 856.553 50.8146L871.65 84.8865L880.375 60.6483C880.375 60.6483 887.301 41.9504 872.619 41.9504V40.0113Z" fill="#EFEFEF"/>
</svg>
