<svg width="521" height="126" viewBox="0 0 521 126" fill="none" xmlns="http://www.w3.org/2000/svg">
<path d="M73.08 65.248H75L76.664 85.216C67.192 91.488 58.36 93.152 44.664 93.152C17.656 93.152 0.248 73.952 0.248 46.944C0.248 19.808 17.656 0.735992 44.664 0.735992C57.848 0.735992 68.6 2.016 76.664 8.544L75 28.512H73.08C67.704 9.312 57.08 2.656 44.664 2.656C30.84 2.656 19.96 10.08 19.96 46.944C19.96 84.192 31.224 91.232 44.664 91.232C57.464 91.232 70.648 82.016 73.08 65.248ZM131.277 62.432C131.277 39.264 126.925 33.632 117.325 33.632C107.853 33.632 103.373 39.264 103.373 62.432C103.373 85.6 107.853 91.232 117.325 91.232C126.925 91.232 131.277 85.6 131.277 62.432ZM147.405 62.432C147.405 79.2 136.909 93.152 117.325 93.152C97.869 93.152 87.373 79.2 87.373 62.432C87.373 45.536 97.869 31.712 117.325 31.712C136.909 31.712 147.405 45.536 147.405 62.432ZM249.018 90.08V92H225.082V90.08C229.946 88.672 230.202 84.832 230.202 78.304V52.064C230.202 43.872 226.618 39.52 219.706 39.52C214.074 39.52 208.57 45.664 208.57 50.528C208.57 51.04 208.57 51.552 208.57 52.192L208.698 78.304C208.698 85.344 209.338 88.928 213.946 90.08V92H190.01V90.08C194.874 88.672 195.13 84.832 195.13 78.304V52.064C195.13 43.872 191.674 39.52 184.762 39.52C179.13 39.52 174.01 45.792 173.498 50.272V78.432C173.498 85.472 174.266 88.8 178.746 90.08V92H154.938V90.08C159.802 88.672 159.93 84.96 159.93 78.432V46.816C159.93 42.336 158.778 40.16 153.53 37.984V36.064L173.498 31.712V44.896C176.698 37.472 184.25 31.712 192.314 31.712C201.274 31.712 206.778 35.808 208.442 45.408C211.002 37.6 219.194 31.712 227.258 31.712C237.498 31.712 243.77 36.192 243.77 51.68V78.304C243.77 85.344 244.41 88.928 249.018 90.08ZM304.355 64.48C304.355 44 298.467 36.064 287.715 36.064C279.651 36.064 274.659 42.208 273.891 50.4V74.08C274.787 86.368 281.827 91.232 289.123 91.232C298.083 91.232 304.355 84.448 304.355 64.48ZM320.099 62.944C320.099 83.168 306.915 93.152 289.379 93.152C283.235 93.152 277.859 91.488 273.891 88.8V112.992C273.891 120.032 274.531 122.848 279.139 124V125.92H255.203V124C260.067 122.592 260.323 119.52 260.323 112.992V45.024C260.323 40.544 259.171 39.392 253.923 37.984V36.064L273.891 31.712V41.824C277.859 34.656 286.819 31.712 293.091 31.712C308.835 31.712 320.099 44 320.099 62.944ZM364.144 61.152C350.448 64.224 345.2 69.984 345.2 77.152C345.2 78.944 346.352 86.368 354.416 86.368C359.92 86.368 362.992 82.4 364.144 79.328C364.144 79.072 364.144 61.152 364.144 61.152ZM387.568 83.552L389.488 84.32C388.592 88.288 383.472 93.152 376.048 93.152C376.048 93.152 365.424 93.28 364.272 82.528C362.48 88.416 354.928 93.152 345.968 93.152C345.968 93.152 331.248 93.152 331.248 80.096C331.248 66.656 342 64.608 364.144 58.976V51.296C364.144 38.112 357.232 31.072 347.632 35.68C343.152 37.984 342.512 40.288 343.28 40.416C345.072 40.672 346.48 41.44 347.632 42.976C349.808 45.92 349.04 50.016 346.096 52.192C343.152 54.24 338.928 53.6 336.88 50.656C335.344 48.48 335.216 45.664 336.368 43.616C337.52 41.568 339.44 37.984 346.352 34.272C351.984 31.328 358.512 31.712 358.512 31.712C373.872 31.712 377.968 42.208 377.968 57.312V77.792C377.968 77.792 377.968 86.24 383.984 86.24C383.984 86.24 386.8 86.24 387.568 83.552ZM454.872 90.08V92H430.936V90.08C435.8 88.672 436.056 84.832 436.056 78.304V52.064C436.056 44.64 431.704 39.52 424.28 39.52C418.52 39.52 412.76 45.408 412.248 50.272V78.432C412.248 85.472 413.016 88.8 417.496 90.08V92H393.688V90.08C398.552 88.672 398.68 84.96 398.68 78.432V46.176C398.68 41.696 397.528 40.16 392.28 37.984V36.064L412.248 31.712V45.28C415.064 37.6 424.664 31.712 432.728 31.712C442.84 31.712 449.624 36.192 449.624 51.68V78.304C449.624 85.344 450.264 88.928 454.872 90.08ZM495.1 32.864H520.06V34.656C516.476 34.656 511.356 35.424 503.548 54.88L483.836 107.744C480.764 115.808 477.18 119.136 475.004 120.8C472.956 122.464 468.988 123.232 466.3 121.952C462.332 120.16 460.668 115.552 462.332 111.584C464.124 107.616 468.732 105.824 472.7 107.616C474.748 108.512 476.028 110.304 476.54 112.224C477.052 113.888 479.996 112.608 481.916 107.488L487.292 92.768C475.644 66.784 463.228 40.416 463.228 40.416C460.924 35.04 456.572 34.784 454.652 34.656V32.864H482.94V34.656C475.516 34.656 479.356 43.232 479.356 43.232L494.076 74.72L501.756 54.496C501.756 54.496 509.948 34.528 495.1 34.656V32.864Z" fill="black"/>
</svg>
