<svg width="95" height="21" viewBox="0 0 95 21" fill="none" xmlns="http://www.w3.org/2000/svg">
<path d="M23.8324 16.5816C23.8324 18.6586 24.9678 19.4617 26.1586 19.4617V19.8771H18.4322V19.4617C19.5953 19.4617 20.4261 18.6586 20.4261 16.5816V1.57186L13.4198 20.1263H13.0044L5.25026 3.34422V12.9261C5.25026 14.5323 5.47181 19.4617 8.93346 19.4617V19.8771H0.819346V19.4617C4.58562 19.4617 4.83486 14.5046 4.83486 12.9261V2.67959C3.81021 0.851835 2.42555 0.851835 1.73322 0.796449V0.381049H7.99189L14.9152 15.2523L20.4261 0.381049H25.9648V0.796449C24.774 0.796449 23.8324 1.46109 23.8324 3.23345V16.5816ZM30.0694 4.56273C29.1556 4.56273 28.4355 3.8427 28.4355 2.92883C28.4355 2.01495 29.1556 1.26723 30.0694 1.26723C30.9833 1.26723 31.7587 2.01495 31.7587 2.92883C31.7587 3.8427 30.9833 4.56273 30.0694 4.56273ZM32.9495 19.4617V19.8771H27.7986V19.4617C28.8509 19.1294 28.9063 18.3263 28.9063 16.9139V9.9906C28.9063 9.04903 28.6294 8.66132 27.494 8.19054V7.77514L31.8141 6.83357V16.9139C31.8141 18.437 31.9526 19.1847 32.9495 19.4617ZM43.9076 18.6863C43.9076 18.6863 42.9107 20.1263 40.2244 20.1263C36.8735 20.1263 35.295 18.9355 35.295 18.9355V15.3077H35.7104C36.015 16.7754 36.7905 19.7109 40.2244 19.7109C42.6614 19.7109 42.6614 16.997 40.5567 15.6123L37.7597 13.923C35.0735 12.2061 34.4088 10.2675 35.7381 8.329C35.7381 8.329 36.6797 6.83357 39.4767 6.83357C42.6614 6.83357 44.0184 7.69206 44.0184 7.69206V10.9322H43.603C43.3261 9.63059 42.4953 7.24897 39.4767 7.24897C37.2612 7.24897 36.7628 9.60289 39.1721 11.126L41.9691 12.8707C44.4615 14.4215 45.2646 16.7477 43.9076 18.6863ZM55.9423 18.6863C55.9423 18.6863 54.9453 20.1263 52.2591 20.1263C48.9082 20.1263 47.3297 18.9355 47.3297 18.9355V15.3077H47.7451C48.0497 16.7754 48.8251 19.7109 52.2591 19.7109C54.6961 19.7109 54.6961 16.997 52.5914 15.6123L49.7944 13.923C47.1081 12.2061 46.4435 10.2675 47.7728 8.329C47.7728 8.329 48.7143 6.83357 51.5113 6.83357C54.6961 6.83357 56.053 7.69206 56.053 7.69206V10.9322H55.6376C55.3607 9.63059 54.5299 7.24897 51.5113 7.24897C49.2959 7.24897 48.7974 9.60289 51.2067 11.126L54.0037 12.8707C56.4961 14.4215 57.2992 16.7477 55.9423 18.6863ZM61.4136 4.56273C60.4997 4.56273 59.7797 3.8427 59.7797 2.92883C59.7797 2.01495 60.4997 1.26723 61.4136 1.26723C62.3275 1.26723 63.1029 2.01495 63.1029 2.92883C63.1029 3.8427 62.3275 4.56273 61.4136 4.56273ZM64.2937 19.4617V19.8771H59.1428V19.4617C60.1951 19.1294 60.2505 18.3263 60.2505 16.9139V9.9906C60.2505 9.04903 59.9736 8.66132 58.8382 8.19054V7.77514L63.1583 6.83357V16.9139C63.1583 18.437 63.2968 19.1847 64.2937 19.4617ZM75.9718 13.4799C75.9718 8.46747 75.0302 7.24897 72.9533 7.24897C70.904 7.24897 69.9347 8.46747 69.9347 13.4799C69.9347 18.4924 70.904 19.7109 72.9533 19.7109C75.0302 19.7109 75.9718 18.4924 75.9718 13.4799ZM79.4612 13.4799C79.4612 17.1078 77.1903 20.1263 72.9533 20.1263C68.7439 20.1263 66.473 17.1078 66.473 13.4799C66.473 9.82444 68.7439 6.83357 72.9533 6.83357C77.1903 6.83357 79.4612 9.82444 79.4612 13.4799ZM94.3283 19.4617V19.8771H89.1497V19.4617C90.202 19.1571 90.2574 18.3263 90.2574 16.9139V11.2368C90.2574 9.63059 89.3158 8.52286 87.7096 8.52286C86.4634 8.52286 85.2172 9.79674 85.1065 10.8491V16.9416C85.1065 18.4647 85.2726 19.1847 86.2419 19.4617V19.8771H81.0909V19.4617C82.1433 19.1571 82.171 18.3539 82.171 16.9416V9.9629C82.171 8.99364 81.9217 8.66132 80.7863 8.19054V7.77514L85.1065 6.83357V9.76905C85.7157 8.10746 87.7927 6.83357 89.5374 6.83357C91.7251 6.83357 93.1929 7.80283 93.1929 11.1537V16.9139C93.1929 18.437 93.3314 19.2124 94.3283 19.4617Z" fill="black"/>
</svg>
