<svg width="217" height="47" viewBox="0 0 217 47" fill="none" xmlns="http://www.w3.org/2000/svg">
<path d="M54.08 38.384C54.08 43.184 56.704 45.04 59.456 45.04V46H41.6V45.04C44.288 45.04 46.208 43.184 46.208 38.384V3.696L30.016 46.576H29.056L11.136 7.792V29.936C11.136 33.648 11.648 45.04 19.648 45.04V46H0.896V45.04C9.6 45.04 10.176 33.584 10.176 29.936V6.256C7.808 2.032 4.608 2.032 3.008 1.904V0.943996H17.472L33.472 35.312L46.208 0.943996H59.008V1.904C56.256 1.904 54.08 3.44 54.08 7.536V38.384ZM68.494 10.608C66.382 10.608 64.718 8.944 64.718 6.832C64.718 4.72 66.382 2.992 68.494 2.992C70.606 2.992 72.398 4.72 72.398 6.832C72.398 8.944 70.606 10.608 68.494 10.608ZM75.15 45.04V46H63.246V45.04C65.678 44.272 65.806 42.416 65.806 39.152V23.152C65.806 20.976 65.166 20.08 62.542 18.992V18.032L72.526 15.856V39.152C72.526 42.672 72.846 44.4 75.15 45.04ZM100.475 43.248C100.475 43.248 98.1705 46.576 91.9625 46.576C84.2185 46.576 80.5705 43.824 80.5705 43.824V35.44H81.5305C82.2345 38.832 84.0265 45.616 91.9625 45.616C97.5945 45.616 97.5945 39.344 92.7305 36.144L86.2665 32.24C80.0585 28.272 78.5225 23.792 81.5945 19.312C81.5945 19.312 83.7705 15.856 90.2345 15.856C97.5945 15.856 100.731 17.84 100.731 17.84V25.328H99.7705C99.1305 22.32 97.2105 16.816 90.2345 16.816C85.1145 16.816 83.9625 22.256 89.5305 25.776L95.9945 29.808C101.755 33.392 103.611 38.768 100.475 43.248ZM128.287 43.248C128.287 43.248 125.983 46.576 119.775 46.576C112.031 46.576 108.383 43.824 108.383 43.824V35.44H109.343C110.047 38.832 111.839 45.616 119.775 45.616C125.407 45.616 125.407 39.344 120.543 36.144L114.079 32.24C107.871 28.272 106.335 23.792 109.407 19.312C109.407 19.312 111.583 15.856 118.047 15.856C125.407 15.856 128.543 17.84 128.543 17.84V25.328H127.583C126.943 22.32 125.023 16.816 118.047 16.816C112.927 16.816 111.775 22.256 117.343 25.776L123.807 29.808C129.567 33.392 131.423 38.768 128.287 43.248ZM140.932 10.608C138.82 10.608 137.156 8.944 137.156 6.832C137.156 4.72 138.82 2.992 140.932 2.992C143.044 2.992 144.836 4.72 144.836 6.832C144.836 8.944 143.044 10.608 140.932 10.608ZM147.588 45.04V46H135.684V45.04C138.116 44.272 138.244 42.416 138.244 39.152V23.152C138.244 20.976 137.604 20.08 134.98 18.992V18.032L144.964 15.856V39.152C144.964 42.672 145.284 44.4 147.588 45.04ZM174.576 31.216C174.576 19.632 172.4 16.816 167.6 16.816C162.864 16.816 160.624 19.632 160.624 31.216C160.624 42.8 162.864 45.616 167.6 45.616C172.4 45.616 174.576 42.8 174.576 31.216ZM182.64 31.216C182.64 39.6 177.392 46.576 167.6 46.576C157.872 46.576 152.624 39.6 152.624 31.216C152.624 22.768 157.872 15.856 167.6 15.856C177.392 15.856 182.64 22.768 182.64 31.216ZM216.999 45.04V46H205.031V45.04C207.463 44.336 207.591 42.416 207.591 39.152V26.032C207.591 22.32 205.415 19.76 201.703 19.76C198.823 19.76 195.943 22.704 195.687 25.136V39.216C195.687 42.736 196.071 44.4 198.311 45.04V46H186.407V45.04C188.839 44.336 188.903 42.48 188.903 39.216V23.088C188.903 20.848 188.327 20.08 185.703 18.992V18.032L195.687 15.856V22.64C197.095 18.8 201.895 15.856 205.927 15.856C210.983 15.856 214.375 18.096 214.375 25.84V39.152C214.375 42.672 214.695 44.464 216.999 45.04Z" fill="black"/>
</svg>
