<svg width="319" height="93" viewBox="0 0 319 93" fill="none" xmlns="http://www.w3.org/2000/svg">
<path d="M64.274 0.887993H101.906V2.808C82.962 2.67999 83.346 27.128 83.346 33.016V91H77.842L22.674 20.728V58.616C22.674 64.376 22.546 89.08 39.826 89.08V91H1.938V89.08C20.754 89.08 20.754 64.376 20.754 58.616V18.68L15.634 12.152C7.442 1.91199 3.73 3.064 0.402 2.808V0.887993H27.922L81.426 68.344V33.016C81.426 27.128 81.426 2.67999 64.274 2.808V0.887993ZM123.444 58.36H150.836C150.836 40.952 144.052 32.632 137.524 32.632C130.1 32.632 123.444 44.152 123.444 58.36ZM160.308 74.744L162.1 75.64C160.436 81.912 153.012 92.152 136.884 92.152C120.628 92.152 109.108 77.816 109.108 61.816C109.108 43.384 121.268 30.712 138.036 30.712C154.804 30.712 164.148 40.184 164.148 60.28H123.444C124.212 75.128 131.252 81.912 140.468 83.32C147.892 84.472 157.492 80.888 160.308 74.744ZM241.02 31.864H264.956V33.656C262.14 33.656 256.38 34.168 250.236 51.576L235.388 92.152H233.724L215.804 52.088L201.34 92.152H199.548C177.788 43 176.124 39.8 176.124 39.8C173.308 34.04 169.98 33.784 167.932 33.656V31.864H195.324V33.656C187.9 33.656 191.996 41.72 191.996 41.72L206.076 73.336L214.78 49.528C210.812 40.824 210.3 39.8 210.3 39.8C207.484 34.04 204.412 33.784 202.364 33.656V31.864H229.884V33.656C221.692 33.656 226.172 41.848 226.172 41.848L240.124 73.336L248.188 50.936C248.188 50.936 254.588 33.656 241.02 33.656V31.864ZM311.949 85.496C311.949 85.496 307.341 92.152 294.925 92.152C279.437 92.152 272.141 86.648 272.141 86.648V69.88H274.061C275.469 76.664 279.053 90.232 294.925 90.232C306.189 90.232 306.189 77.688 296.461 71.288L283.533 63.48C271.117 55.544 268.045 46.584 274.189 37.624C274.189 37.624 278.541 30.712 291.469 30.712C306.189 30.712 312.461 34.68 312.461 34.68V49.656H310.541C309.261 43.64 305.421 32.632 291.469 32.632C281.229 32.632 278.925 43.512 290.061 50.552L302.989 58.616C314.509 65.784 318.221 76.536 311.949 85.496Z" fill="black"/>
</svg>
