<svg width="78" height="18" viewBox="0 0 78 18" fill="none" xmlns="http://www.w3.org/2000/svg">
<path d="M10.344 4.688C10.344 0.415999 8.28 0.464 5.832 0.464H5.088V8.912H5.832C8.376 8.912 10.344 8.912 10.344 4.688ZM16.32 16.64V17H14.304C10.608 16.976 11.112 16.976 9.576 11.768C8.856 9.272 6.528 9.272 6.216 9.272H5.088V14.288C5.088 15.944 5.76 16.64 6.768 16.64V17H0.576V16.64C1.608 16.64 2.184 15.968 2.184 14.144V2.456C2.184 0.967999 1.632 0.464 0.576 0.464V0.103999H5.832C10.608 0.103999 13.632 0.68 13.632 4.688C13.632 7.784 11.76 8.816 9.048 9.056C10.632 9.008 12.408 9.608 13.608 14.408C14.088 16.232 15.696 16.592 16.32 16.64ZM20.0286 10.88H25.1646C25.1646 7.616 23.8926 6.056 22.6686 6.056C21.2766 6.056 20.0286 8.216 20.0286 10.88ZM26.9406 13.952L27.2766 14.12C26.9646 15.296 25.5726 17.216 22.5486 17.216C19.5006 17.216 17.3406 14.528 17.3406 11.528C17.3406 8.072 19.6206 5.696 22.7646 5.696C25.9086 5.696 27.6606 7.472 27.6606 11.24H20.0286C20.1726 14.024 21.4926 15.296 23.2206 15.56C24.6126 15.776 26.4126 15.104 26.9406 13.952ZM39.2966 13.928L39.5846 14.096C39.2726 15.296 37.9526 17.216 34.9766 17.216C32.0726 17.216 29.7206 14.6 29.7206 11.432C29.7206 8.6 31.8566 5.696 35.7446 5.696C37.7846 5.696 38.6486 6.584 38.9606 6.944C39.2486 7.304 39.4166 7.88 39.2006 8.336C38.9366 9.008 38.1446 9.392 37.4486 9.128C36.7526 8.864 36.4406 8.072 36.7046 7.4C36.8246 7.04 37.0886 6.776 37.4006 6.656C37.6166 6.584 37.0166 6.056 35.7446 6.056C34.8326 6.056 32.3606 6.8 32.3606 11.096C32.3606 14 33.9446 15.224 35.6246 15.488C37.1126 15.704 38.7926 14.792 39.2966 13.928ZM47.5577 5.792C48.0377 5.672 48.7817 5.768 49.2137 6.176C49.8137 6.776 49.8137 7.76 49.2137 8.36C48.6137 8.96 47.6537 8.984 47.0057 8.384C46.7177 8.072 46.5737 7.688 46.5977 7.328C46.6457 6.992 45.3497 7.4 44.5337 8.912V14.408C44.5337 15.752 44.6537 16.4 45.5177 16.64V17H41.0057V16.64C41.9177 16.352 41.9657 15.656 41.9657 14.408V8.408C41.9657 7.592 41.7497 7.232 40.7657 6.872V6.512L44.5337 5.696V8.288C45.6137 6.488 46.7897 5.984 47.5577 5.792ZM62.5208 16.304V16.64L59.3768 17.192C58.7528 17.288 58.7528 16.784 58.7528 16.784V14.72C58.2488 16.04 56.4728 17.216 54.9128 17.216C53.1128 17.216 51.6968 16.496 51.6968 13.568V8.312C51.6968 6.8 51.7448 6.656 50.3528 6.512V6.152L54.2168 5.696V13.496C54.2168 15.08 55.0808 15.752 56.4728 15.752C57.3848 15.752 58.2968 15.032 58.7528 14.048V8.312C58.7528 6.848 58.8248 6.608 57.6248 6.512V6.152L61.2968 5.696V14.888C61.2968 16.04 61.5128 16.184 62.5208 16.304ZM65.904 3.728C65.112 3.728 64.488 3.104 64.488 2.312C64.488 1.52 65.112 0.871999 65.904 0.871999C66.696 0.871999 67.368 1.52 67.368 2.312C67.368 3.104 66.696 3.728 65.904 3.728ZM68.4 16.64V17H63.936V16.64C64.848 16.352 64.896 15.656 64.896 14.432V8.432C64.896 7.616 64.656 7.28 63.672 6.872V6.512L67.416 5.696V14.432C67.416 15.752 67.536 16.4 68.4 16.64ZM76.7687 14.84L77.0807 15.032C76.6727 16.112 75.4007 17.216 73.8887 17.216C72.0887 17.216 70.9847 16.448 70.9847 13.544V6.272H69.7847L69.7127 5.912H70.9847V2.6L73.5287 2.192V5.912H76.3847L76.2887 6.272H73.5287V13.472C73.5287 15.104 74.1527 15.776 75.3287 15.776C76.0247 15.776 76.5767 15.272 76.7687 14.84Z" fill="black"/>
</svg>
