<svg width="99" height="25" viewBox="0 0 99 25" fill="none" xmlns="http://www.w3.org/2000/svg">
<path d="M14.64 12.984H15L15.312 16.728C13.536 17.904 11.88 18.216 9.312 18.216C4.248 18.216 0.984 14.616 0.984 9.552C0.984 4.464 4.248 0.887999 9.312 0.887999C11.784 0.887999 13.8 1.128 15.312 2.352L15 6.096H14.64C13.632 2.496 11.64 1.248 9.312 1.248C6.72 1.248 4.68 2.64 4.68 9.552C4.68 16.536 6.792 17.856 9.312 17.856C11.712 17.856 14.184 16.128 14.64 12.984ZM25.5519 12.456C25.5519 8.112 24.7359 7.056 22.9359 7.056C21.1599 7.056 20.3199 8.112 20.3199 12.456C20.3199 16.8 21.1599 17.856 22.9359 17.856C24.7359 17.856 25.5519 16.8 25.5519 12.456ZM28.5759 12.456C28.5759 15.6 26.6079 18.216 22.9359 18.216C19.2879 18.216 17.3199 15.6 17.3199 12.456C17.3199 9.288 19.2879 6.696 22.9359 6.696C26.6079 6.696 28.5759 9.288 28.5759 12.456ZM47.6284 17.64V18H43.1404V17.64C44.0524 17.376 44.1004 16.656 44.1004 15.432V10.512C44.1004 8.976 43.4284 8.16 42.1324 8.16C41.0764 8.16 40.0444 9.312 40.0444 10.224C40.0444 10.32 40.0444 10.416 40.0444 10.536L40.0684 15.432C40.0684 16.752 40.1884 17.424 41.0524 17.64V18H36.5644V17.64C37.4764 17.376 37.5244 16.656 37.5244 15.432V10.512C37.5244 8.976 36.8764 8.16 35.5804 8.16C34.5244 8.16 33.5644 9.336 33.4684 10.176V15.456C33.4684 16.776 33.6124 17.4 34.4524 17.64V18H29.9884V17.64C30.9004 17.376 30.9244 16.68 30.9244 15.456V9.528C30.9244 8.688 30.7084 8.28 29.7244 7.872V7.512L33.4684 6.696V9.168C34.0684 7.776 35.4844 6.696 36.9964 6.696C38.6764 6.696 39.7084 7.464 40.0204 9.264C40.5004 7.8 42.0364 6.696 43.5484 6.696C45.4684 6.696 46.6444 7.536 46.6444 10.44V15.432C46.6444 16.752 46.7644 17.424 47.6284 17.64ZM58.0041 12.84C58.0041 9 56.9001 7.512 54.8841 7.512C53.3721 7.512 52.4361 8.664 52.2921 10.2V14.64C52.4601 16.944 53.7801 17.856 55.1481 17.856C56.8281 17.856 58.0041 16.584 58.0041 12.84ZM60.9561 12.552C60.9561 16.344 58.4841 18.216 55.1961 18.216C54.0441 18.216 53.0361 17.904 52.2921 17.4V21.936C52.2921 23.256 52.4121 23.784 53.2761 24V24.36H48.7881V24C49.7001 23.736 49.7481 23.16 49.7481 21.936V9.192C49.7481 8.352 49.5321 8.136 48.5481 7.872V7.512L52.2921 6.696V8.592C53.0361 7.248 54.7161 6.696 55.8921 6.696C58.8441 6.696 60.9561 9 60.9561 12.552ZM69.2145 12.216C66.6465 12.792 65.6625 13.872 65.6625 15.216C65.6625 15.552 65.8785 16.944 67.3905 16.944C68.4225 16.944 68.9985 16.2 69.2145 15.624C69.2145 15.576 69.2145 12.216 69.2145 12.216ZM73.6065 16.416L73.9665 16.56C73.7985 17.304 72.8385 18.216 71.4465 18.216C71.4465 18.216 69.4545 18.24 69.2385 16.224C68.9025 17.328 67.4865 18.216 65.8065 18.216C65.8065 18.216 63.0465 18.216 63.0465 15.768C63.0465 13.248 65.0625 12.864 69.2145 11.808V10.368C69.2145 7.896 67.9185 6.576 66.1185 7.44C65.2785 7.872 65.1585 8.304 65.3025 8.328C65.6385 8.376 65.9025 8.52 66.1185 8.808C66.5265 9.36 66.3825 10.128 65.8305 10.536C65.2785 10.92 64.4865 10.8 64.1025 10.248C63.8145 9.84 63.7905 9.312 64.0065 8.928C64.2225 8.544 64.5825 7.872 65.8785 7.176C66.9345 6.624 68.1585 6.696 68.1585 6.696C71.0385 6.696 71.8065 8.664 71.8065 11.496V15.336C71.8065 15.336 71.8065 16.92 72.9345 16.92C72.9345 16.92 73.4625 16.92 73.6065 16.416ZM86.226 17.64V18H81.738V17.64C82.65 17.376 82.698 16.656 82.698 15.432V10.512C82.698 9.12 81.882 8.16 80.49 8.16C79.41 8.16 78.33 9.264 78.234 10.176V15.456C78.234 16.776 78.378 17.4 79.218 17.64V18H74.754V17.64C75.666 17.376 75.69 16.68 75.69 15.456V9.408C75.69 8.568 75.474 8.28 74.49 7.872V7.512L78.234 6.696V9.24C78.762 7.8 80.562 6.696 82.074 6.696C83.97 6.696 85.242 7.536 85.242 10.44V15.432C85.242 16.752 85.362 17.424 86.226 17.64ZM93.7688 6.912H98.4488V7.248C97.7768 7.248 96.8168 7.392 95.3528 11.04L91.6568 20.952C91.0808 22.464 90.4088 23.088 90.0008 23.4C89.6168 23.712 88.8728 23.856 88.3688 23.616C87.6248 23.28 87.3128 22.416 87.6248 21.672C87.9608 20.928 88.8248 20.592 89.5688 20.928C89.9528 21.096 90.1928 21.432 90.2888 21.792C90.3848 22.104 90.9368 21.864 91.2968 20.904L92.3047 18.144C90.1208 13.272 87.7928 8.328 87.7928 8.328C87.3608 7.32 86.5448 7.272 86.1848 7.248V6.912H91.4888V7.248C90.0968 7.248 90.8168 8.856 90.8168 8.856L93.5768 14.76L95.0168 10.968C95.0168 10.968 96.5528 7.224 93.7688 7.248V6.912Z" fill="black"/>
</svg>
