<svg width="79" height="19" viewBox="0 0 79 19" fill="none" xmlns="http://www.w3.org/2000/svg">
<path d="M13.12 16.248C13.12 16.248 12.04 18.216 8.248 18.216C3.976 18.216 2.104 16.8 2.104 16.8V12.192H2.464C2.848 14.376 4.072 17.856 8.248 17.856C11.344 17.856 11.992 14.088 9.112 12.024L5.296 9.576C2.44 7.752 0.712 5.472 2.632 2.736C2.632 2.736 3.808 0.887999 7.384 0.887999C11.176 0.887999 13.192 2.04 13.192 2.04V6.072H12.832C12.496 4.248 11.296 1.248 7.384 1.248C4.792 1.248 3.328 4.512 6.688 6.696L10.528 9.216C13.72 11.328 14.656 13.944 13.12 16.248ZM18.6145 11.88H23.7505C23.7505 8.616 22.4785 7.056 21.2545 7.056C19.8625 7.056 18.6145 9.216 18.6145 11.88ZM25.5265 14.952L25.8625 15.12C25.5505 16.296 24.1585 18.216 21.1345 18.216C18.0865 18.216 15.9265 15.528 15.9265 12.528C15.9265 9.072 18.2065 6.696 21.3505 6.696C24.4945 6.696 26.2465 8.472 26.2465 12.24H18.6145C18.7585 15.024 20.0785 16.296 21.8065 16.56C23.1985 16.776 24.9985 16.104 25.5265 14.952ZM34.3546 6.792C34.8346 6.672 35.5786 6.768 36.0106 7.176C36.6106 7.776 36.6106 8.76 36.0106 9.36C35.4106 9.96 34.4506 9.984 33.8026 9.384C33.5146 9.072 33.3706 8.688 33.3946 8.328C33.4426 7.992 32.1466 8.4 31.3306 9.912V15.408C31.3306 16.752 31.4506 17.4 32.3146 17.64V18H27.8026V17.64C28.7146 17.352 28.7626 16.656 28.7626 15.408V9.408C28.7626 8.592 28.5466 8.232 27.5626 7.872V7.512L31.3306 6.696V9.288C32.4106 7.488 33.5866 6.984 34.3546 6.792ZM44.5176 6.912H49.1736V7.248C48.4536 7.248 47.5656 7.296 46.1736 10.656L43.2456 18.216H42.9336C38.6856 9 38.4216 8.496 38.4216 8.496C37.8456 7.272 37.1976 7.272 36.7656 7.248V6.912H42.0936V7.248C40.6296 7.248 41.4936 9 41.4936 9L44.1816 14.784L45.7656 10.68C45.7656 10.68 47.1336 7.248 44.5176 7.248V6.912ZM52.0915 4.728C51.2995 4.728 50.6755 4.104 50.6755 3.312C50.6755 2.52 51.2995 1.872 52.0915 1.872C52.8835 1.872 53.5555 2.52 53.5555 3.312C53.5555 4.104 52.8835 4.728 52.0915 4.728ZM54.5875 17.64V18H50.1235V17.64C51.0355 17.352 51.0835 16.656 51.0835 15.432V9.432C51.0835 8.616 50.8435 8.28 49.8595 7.872V7.512L53.6035 6.696V15.432C53.6035 16.752 53.7235 17.4 54.5875 17.64ZM66.1482 14.928L66.4362 15.096C66.1242 16.296 64.8042 18.216 61.8282 18.216C58.9242 18.216 56.5722 15.6 56.5722 12.432C56.5722 9.6 58.7082 6.696 62.5962 6.696C64.6362 6.696 65.5002 7.584 65.8122 7.944C66.1002 8.304 66.2682 8.88 66.0522 9.336C65.7882 10.008 64.9962 10.392 64.3002 10.128C63.6042 9.864 63.2922 9.072 63.5562 8.4C63.6762 8.04 63.9402 7.776 64.2522 7.656C64.4682 7.584 63.8682 7.056 62.5962 7.056C61.6842 7.056 59.2122 7.8 59.2122 12.096C59.2122 15 60.7962 16.224 62.4762 16.488C63.9642 16.704 65.6442 15.792 66.1482 14.928ZM70.8333 11.88H75.9693C75.9693 8.616 74.6973 7.056 73.4733 7.056C72.0813 7.056 70.8333 9.216 70.8333 11.88ZM77.7453 14.952L78.0813 15.12C77.7693 16.296 76.3773 18.216 73.3533 18.216C70.3053 18.216 68.1453 15.528 68.1453 12.528C68.1453 9.072 70.4253 6.696 73.5693 6.696C76.7133 6.696 78.4653 8.472 78.4653 12.24H70.8333C70.9773 15.024 72.2973 16.296 74.0253 16.56C75.4173 16.776 77.2173 16.104 77.7453 14.952Z" fill="black"/>
</svg>
