<svg width="152" height="41" viewBox="0 0 152 41" fill="none" xmlns="http://www.w3.org/2000/svg">
<path d="M16.84 17.8H27.2V18.4C24.88 18.4 24.48 18.96 24.48 27.68C22 28.64 18.48 29.36 14.2 29.36C5.56 29.36 0.56 22.88 0.56 14.92C0.56 6.96 5.56 0.479998 14.2 0.479998C18.68 0.479998 21.84 1.04 24.32 2.68L24.04 9.32H22.92C22.04 2.88 18.92 1.08 14.2 1.08C9.64 1.08 6.8 3.92 6.8 14.92C6.8 25.92 9.72 28.76 14.2 28.76C18.88 28.76 20.16 27.92 20.16 24.28C20.16 18.56 19.32 18.4 16.84 18.4V17.8ZM40.0988 10.32C40.8988 10.12 42.1388 10.28 42.8588 10.96C43.8588 11.96 43.8588 13.6 42.8588 14.6C41.8588 15.6 40.2588 15.64 39.1788 14.64C38.6988 14.12 38.4588 13.48 38.4987 12.88C38.5788 12.32 36.4188 13 35.0588 15.52V24.68C35.0588 26.92 35.2588 28 36.6988 28.4V29H29.1788V28.4C30.6988 27.92 30.7788 26.76 30.7788 24.68V14.68C30.7788 13.32 30.4188 12.72 28.7788 12.12V11.52L35.0588 10.16V14.48C36.8588 11.48 38.8188 10.64 40.0988 10.32ZM50.0372 18.8H58.5972C58.5972 13.36 56.4772 10.76 54.4372 10.76C52.1172 10.76 50.0372 14.36 50.0372 18.8ZM61.5572 23.92L62.1172 24.2C61.5972 26.16 59.2772 29.36 54.2372 29.36C49.1572 29.36 45.5572 24.88 45.5572 19.88C45.5572 14.12 49.3572 10.16 54.5972 10.16C59.8372 10.16 62.7572 13.12 62.7572 19.4H50.0372C50.2772 24.04 52.4772 26.16 55.3572 26.6C57.6772 26.96 60.6772 25.84 61.5572 23.92ZM70.3106 18.8H78.8706C78.8706 13.36 76.7506 10.76 74.7106 10.76C72.3906 10.76 70.3106 14.36 70.3106 18.8ZM81.8306 23.92L82.3906 24.2C81.8706 26.16 79.5506 29.36 74.5106 29.36C69.4306 29.36 65.8306 24.88 65.8306 19.88C65.8306 14.12 69.6306 10.16 74.8706 10.16C80.1106 10.16 83.0306 13.12 83.0306 19.4H70.3106C70.5506 24.04 72.7506 26.16 75.6306 26.6C77.9506 26.96 80.9506 25.84 81.8306 23.92ZM97.1041 25.4L97.6241 25.72C96.9441 27.52 94.8241 29.36 92.3041 29.36C89.3041 29.36 87.4641 28.08 87.4641 23.24V11.12H85.4641L85.3441 10.52H87.4641V5L91.7041 4.32V10.52H96.4641L96.3041 11.12H91.7041V23.12C91.7041 25.84 92.7441 26.96 94.7041 26.96C95.8641 26.96 96.7841 26.12 97.1041 25.4ZM102.903 6.88C101.583 6.88 100.543 5.84 100.543 4.52C100.543 3.2 101.583 2.12 102.903 2.12C104.223 2.12 105.343 3.2 105.343 4.52C105.343 5.84 104.223 6.88 102.903 6.88ZM107.063 28.4V29H99.6225V28.4C101.143 27.92 101.223 26.76 101.223 24.72V14.72C101.223 13.36 100.823 12.8 99.1825 12.12V11.52L105.423 10.16V24.72C105.423 26.92 105.623 28 107.063 28.4ZM128.53 28.4V29H121.05V28.4C122.57 27.96 122.65 26.76 122.65 24.72V16.52C122.65 14.2 121.29 12.6 118.97 12.6C117.17 12.6 115.37 14.44 115.21 15.96V24.76C115.21 26.96 115.45 28 116.85 28.4V29H109.41V28.4C110.93 27.96 110.97 26.8 110.97 24.76V14.68C110.97 13.28 110.61 12.8 108.97 12.12V11.52L115.21 10.16V14.4C116.09 12 119.09 10.16 121.61 10.16C124.77 10.16 126.89 11.56 126.89 16.4V24.72C126.89 26.92 127.09 28.04 128.53 28.4ZM143.113 16.64C143.113 12.16 141.273 11.2 139.553 11.2C137.553 11.2 136.073 12.16 136.073 16.64C136.073 21.12 137.793 22.12 139.553 22.12C141.393 22.12 143.113 21.12 143.113 16.64ZM150.753 13.68C149.872 14.44 148.593 14.32 147.873 13.48C147.513 13.04 147.353 12.52 147.473 12C147.513 11.68 146.393 11.88 145.713 12.8C146.673 13.8 147.193 15.2 147.193 16.64C147.193 19.88 144.353 22.72 139.553 22.72C137.993 22.72 136.793 22.52 135.793 22.08C134.353 22.48 132.113 26.2 136.593 26.2H141.793C144.553 26.2 149.273 26.28 148.553 31.92C148.553 31.92 148.393 35.16 144.193 37.52C138.673 40.6 131.873 40.12 130.273 36.96C128.832 34.16 130.953 31.08 133.433 29.8C132.313 29.28 131.513 28.2 131.513 26.6C131.513 26.6 131.393 23.08 135.192 21.8C133.153 20.92 131.993 18.76 131.993 16.64C131.993 13.4 134.833 10.6 139.553 10.6C142.073 10.6 143.993 11.28 145.273 12.4C146.353 10.8 148.033 10.24 148.953 10.12C149.673 10 150.473 10.24 150.993 10.8C151.713 11.68 151.593 12.96 150.753 13.68ZM133.233 35.76C135.273 38.2 140.233 39.2 143.873 37C146.753 35.24 146.433 32.76 146.433 32.76C146.433 32.76 146.193 30.68 143.033 30.68H137.513C137.073 30.68 135.553 30.76 134.073 30.16C130.313 32.44 133.273 35.8 133.233 35.76Z" fill="black"/>
</svg>
