<svg width="41" height="13" viewBox="0 0 41 13" fill="none" xmlns="http://www.w3.org/2000/svg">
<path d="M13.9731 10.096C13.9731 11.296 14.6291 11.76 15.3171 11.76V12H10.8531V11.76C11.5251 11.76 12.0051 11.296 12.0051 10.096V1.424L7.95713 12.144H7.71713L3.23713 2.448V7.984C3.23713 8.912 3.36513 11.76 5.36513 11.76V12H0.677125V11.76C2.85313 11.76 2.99713 8.896 2.99713 7.984V2.064C2.40513 1.008 1.60513 1.008 1.20513 0.976V0.735999H4.82113L8.82113 9.328L12.0051 0.735999H15.2051V0.976C14.5171 0.976 13.9731 1.36 13.9731 2.384V10.096ZM18.0086 7.92H21.4326C21.4326 5.744 20.5846 4.704 19.7686 4.704C18.8406 4.704 18.0086 6.144 18.0086 7.92ZM22.6166 9.968L22.8406 10.08C22.6326 10.864 21.7046 12.144 19.6886 12.144C17.6566 12.144 16.2166 10.352 16.2166 8.352C16.2166 6.048 17.7366 4.464 19.8326 4.464C21.9286 4.464 23.0966 5.648 23.0966 8.16H18.0086C18.1046 10.016 18.9846 10.864 20.1366 11.04C21.0646 11.184 22.2646 10.736 22.6166 9.968ZM31.734 11.76V12H28.742V11.76C29.35 11.584 29.382 11.104 29.382 10.288V7.008C29.382 6.08 28.838 5.44 27.91 5.44C27.19 5.44 26.47 6.176 26.406 6.784V10.304C26.406 11.184 26.502 11.6 27.062 11.76V12H24.086V11.76C24.694 11.584 24.71 11.12 24.71 10.304V6.272C24.71 5.712 24.566 5.52 23.91 5.248V5.008L26.406 4.464V6.16C26.758 5.2 27.958 4.464 28.966 4.464C30.23 4.464 31.078 5.024 31.078 6.96V10.288C31.078 11.168 31.158 11.616 31.734 11.76ZM40.2274 11.536V11.76L38.1314 12.128C37.7154 12.192 37.7154 11.856 37.7154 11.856V10.48C37.3794 11.36 36.1954 12.144 35.1554 12.144C33.9554 12.144 33.0114 11.664 33.0114 9.712V6.208C33.0114 5.2 33.0434 5.104 32.1154 5.008V4.768L34.6914 4.464V9.664C34.6914 10.72 35.2674 11.168 36.1954 11.168C36.8034 11.168 37.4114 10.688 37.7154 10.032V6.208C37.7154 5.232 37.7634 5.072 36.9634 5.008V4.768L39.4114 4.464V10.592C39.4114 11.36 39.5554 11.456 40.2274 11.536Z" fill="white"/>
</svg>
