<svg width="75" height="22" viewBox="0 0 75 22" fill="none" xmlns="http://www.w3.org/2000/svg">
<path d="M15.1271 0.0364462H23.8818V0.483114C19.4747 0.453335 19.564 6.14089 19.564 7.51067V21H18.2836L5.44933 4.652V13.4662C5.44933 14.8062 5.41956 20.5533 9.43955 20.5533V21H0.625333V20.5533C5.00267 20.5533 5.00267 14.8062 5.00267 13.4662V4.17556L3.81156 2.65689C1.90578 0.274669 1.04222 0.542669 0.268 0.483114V0.0364462H6.67022L19.1173 15.7293V7.51067C19.1173 6.14089 19.1173 0.453335 15.1271 0.483114V0.0364462ZM28.8923 13.4067H35.2648C35.2648 9.35689 33.6866 7.42133 32.1679 7.42133C30.4408 7.42133 28.8923 10.1013 28.8923 13.4067ZM37.4683 17.2182L37.8852 17.4267C37.4981 18.8858 35.771 21.268 32.019 21.268C28.2372 21.268 25.5572 17.9329 25.5572 14.2107C25.5572 9.92267 28.3861 6.97467 32.287 6.97467C36.1879 6.97467 38.3617 9.17822 38.3617 13.8533H28.8923C29.071 17.3076 30.7088 18.8858 32.8528 19.2133C34.5799 19.4813 36.8132 18.6476 37.4683 17.2182ZM56.2451 7.24267H61.8135V7.65956C61.1584 7.65956 59.8184 7.77867 58.3891 11.8284L54.9349 21.268H54.5478L50.3789 11.9476L47.014 21.268H46.5971C41.5349 9.83333 41.1478 9.08889 41.1478 9.08889C40.4927 7.74889 39.7184 7.68933 39.242 7.65956V7.24267H45.6144V7.65956C43.8873 7.65956 44.8402 9.53556 44.8402 9.53556L48.1158 16.8907L50.1407 11.352C49.2175 9.32711 49.0984 9.08889 49.0984 9.08889C48.4433 7.74889 47.7287 7.68933 47.2522 7.65956V7.24267H53.6544V7.65956C51.7487 7.65956 52.7909 9.56534 52.7909 9.56534L56.0367 16.8907L57.9127 11.6796C57.9127 11.6796 59.4015 7.65956 56.2451 7.65956V7.24267ZM72.7459 19.7196C72.7459 19.7196 71.6739 21.268 68.7855 21.268C65.1824 21.268 63.4851 19.9876 63.4851 19.9876V16.0867H63.9317C64.2593 17.6649 65.0931 20.8213 68.7855 20.8213C71.4059 20.8213 71.4059 17.9031 69.1428 16.4142L66.1353 14.5978C63.2468 12.7516 62.5322 10.6671 63.9615 8.58267C63.9615 8.58267 64.9739 6.97467 67.9815 6.97467C71.4059 6.97467 72.865 7.89778 72.865 7.89778V11.3818H72.4184C72.1206 9.98222 71.2273 7.42133 67.9815 7.42133C65.5993 7.42133 65.0633 9.95245 67.6539 11.5902L70.6615 13.4662C73.3415 15.1338 74.205 17.6351 72.7459 19.7196Z" fill="white"/>
</svg>
