<svg width="98" height="23" viewBox="0 0 98 23" fill="none" xmlns="http://www.w3.org/2000/svg">
<path d="M16.0378 19.8262C16.0378 19.8262 14.6978 22.268 9.99289 22.268C4.69244 22.268 2.36978 20.5111 2.36978 20.5111V14.7938H2.81644C3.29289 17.5036 4.81156 21.8213 9.99289 21.8213C13.8342 21.8213 14.6382 17.1462 11.0649 14.5853L6.33022 11.548C2.78667 9.28489 0.642667 6.456 3.02489 3.06134C3.02489 3.06134 4.484 0.768446 8.92089 0.768446C13.6258 0.768446 16.1271 2.19778 16.1271 2.19778V7.20045H15.6804C15.2636 4.93734 13.7747 1.21511 8.92089 1.21511C5.70489 1.21511 3.88844 5.26489 8.05733 7.97467L12.8218 11.1013C16.7822 13.7218 17.9436 16.9676 16.0378 19.8262ZM22.855 14.4067H29.2275C29.2275 10.3569 27.6492 8.42133 26.1306 8.42133C24.4035 8.42133 22.855 11.1013 22.855 14.4067ZM31.431 18.2182L31.8479 18.4267C31.4608 19.8858 29.7337 22.268 25.9817 22.268C22.1999 22.268 19.5199 18.9329 19.5199 15.2107C19.5199 10.9227 22.3488 7.97467 26.2497 7.97467C30.1506 7.97467 32.3244 10.1782 32.3244 14.8533H22.855C23.0337 18.3076 24.6715 19.8858 26.8155 20.2133C28.5426 20.4813 30.7759 19.6476 31.431 18.2182ZM42.3844 8.09378C42.9799 7.94489 43.903 8.064 44.439 8.57022C45.1835 9.31467 45.1835 10.5356 44.439 11.28C43.6946 12.0244 42.5035 12.0542 41.6995 11.3098C41.3421 10.9227 41.1635 10.4462 41.1932 9.99956C41.2528 9.58267 39.6448 10.0889 38.6324 11.9649V18.784C38.6324 20.4516 38.7812 21.2556 39.8532 21.5533V22H34.255V21.5533C35.3866 21.196 35.4461 20.3324 35.4461 18.784V11.3396C35.4461 10.3271 35.1781 9.88045 33.9572 9.43378V8.98711L38.6324 7.97467V11.1907C39.9724 8.95733 41.4315 8.332 42.3844 8.09378ZM54.9941 8.24267H60.771V8.65956C59.8776 8.65956 58.7759 8.71911 57.0487 12.888L53.4159 22.268H53.0287C47.7581 10.8333 47.4305 10.208 47.4305 10.208C46.7159 8.68933 45.9119 8.68933 45.3759 8.65956V8.24267H51.9865V8.65956C50.1701 8.65956 51.2421 10.8333 51.2421 10.8333L54.5772 18.0098L56.5425 12.9178C56.5425 12.9178 58.2399 8.65956 54.9941 8.65956V8.24267ZM64.3913 5.53289C63.4086 5.53289 62.6344 4.75867 62.6344 3.776C62.6344 2.79334 63.4086 1.98934 64.3913 1.98934C65.374 1.98934 66.2077 2.79334 66.2077 3.776C66.2077 4.75867 65.374 5.53289 64.3913 5.53289ZM67.4882 21.5533V22H61.9495V21.5533C63.0811 21.196 63.1406 20.3324 63.1406 18.8138V11.3693C63.1406 10.3569 62.8429 9.94 61.622 9.43378V8.98711L66.2673 7.97467V18.8138C66.2673 20.4516 66.4162 21.2556 67.4882 21.5533ZM81.832 18.1884L82.1893 18.3969C81.8022 19.8858 80.1644 22.268 76.472 22.268C72.8689 22.268 69.9507 19.0222 69.9507 15.0916C69.9507 11.5778 72.6009 7.97467 77.4249 7.97467C79.956 7.97467 81.028 9.07645 81.4151 9.52311C81.7724 9.96978 81.9809 10.6844 81.7129 11.2502C81.3853 12.084 80.4027 12.5604 79.5391 12.2329C78.6756 11.9053 78.2884 10.9227 78.616 10.0889C78.7649 9.64222 79.0924 9.31467 79.4796 9.16578C79.7476 9.07645 79.0031 8.42133 77.4249 8.42133C76.2933 8.42133 73.2262 9.34445 73.2262 14.6747C73.2262 18.2778 75.1916 19.7964 77.276 20.124C79.1222 20.392 81.2067 19.2604 81.832 18.1884ZM87.6449 14.4067H94.0174C94.0174 10.3569 92.4392 8.42133 90.9205 8.42133C89.1934 8.42133 87.6449 11.1013 87.6449 14.4067ZM96.2209 18.2182L96.6378 18.4267C96.2507 19.8858 94.5236 22.268 90.7716 22.268C86.9898 22.268 84.3098 18.9329 84.3098 15.2107C84.3098 10.9227 87.1387 7.97467 91.0396 7.97467C94.9405 7.97467 97.1143 10.1782 97.1143 14.8533H87.6449C87.8236 18.3076 89.4614 19.8858 91.6054 20.2133C93.3325 20.4813 95.5658 19.6476 96.2209 18.2182Z" fill="white"/>
</svg>
