<svg width="101" height="23" viewBox="0 0 101 23" fill="none" xmlns="http://www.w3.org/2000/svg">
<path d="M17.1644 15.5635H17.6111L17.9982 20.2088C15.7947 21.6679 13.74 22.055 10.5538 22.055C4.27067 22.055 0.220889 17.5884 0.220889 11.3053C0.220889 4.99238 4.27067 0.555494 10.5538 0.555494C13.6209 0.555494 16.1222 0.853274 17.9982 2.37194L17.6111 7.01727H17.1644C15.9138 2.55061 13.4422 1.00216 10.5538 1.00216C7.33778 1.00216 4.80667 2.72927 4.80667 11.3053C4.80667 19.9706 7.42711 21.6084 10.5538 21.6084C13.5316 21.6084 16.5987 19.4644 17.1644 15.5635ZM30.7033 14.9084C30.7033 9.51861 29.6909 8.20838 27.4575 8.20838C25.254 8.20838 24.2118 9.51861 24.2118 14.9084C24.2118 20.2982 25.254 21.6084 27.4575 21.6084C29.6909 21.6084 30.7033 20.2982 30.7033 14.9084ZM34.4553 14.9084C34.4553 18.8093 32.0135 22.055 27.4575 22.055C22.9313 22.055 20.4895 18.8093 20.4895 14.9084C20.4895 10.9777 22.9313 7.76172 27.4575 7.76172C32.0135 7.76172 34.4553 10.9777 34.4553 14.9084ZM50.4416 21.3404V21.787H44.8731V21.3404C46.0047 21.0128 46.0642 20.1195 46.0642 18.6008V12.4964C46.0642 10.7693 45.0518 9.57816 43.3247 9.57816C41.9847 9.57816 40.6447 10.9479 40.5256 12.0795V18.6306C40.5256 20.2684 40.7042 21.0426 41.7465 21.3404V21.787H36.2078V21.3404C37.3393 21.0128 37.3691 20.1493 37.3691 18.6306V11.1266C37.3691 10.0844 37.1011 9.72705 35.8802 9.22083V8.77416L40.5256 7.76172V10.9182C41.1807 9.13149 43.414 7.76172 45.29 7.76172C47.6425 7.76172 49.2207 8.80394 49.2207 12.407V18.6008C49.2207 20.2386 49.3696 21.0724 50.4416 21.3404ZM60.2847 19.107L60.6719 19.3453C60.1656 20.6853 58.5874 22.055 56.7114 22.055C54.4781 22.055 53.1083 21.1022 53.1083 17.499V8.47638H51.6194L51.5301 8.02972H53.1083V3.92038L56.2647 3.41416V8.02972H59.8083L59.6892 8.47638H56.2647V17.4097C56.2647 19.4346 57.039 20.2684 58.4981 20.2684C59.3616 20.2684 60.0465 19.643 60.2847 19.107ZM69.872 14.6106C66.6858 15.3253 65.4649 16.6653 65.4649 18.3328C65.4649 18.7497 65.7329 20.4768 67.6089 20.4768C68.8894 20.4768 69.604 19.5537 69.872 18.839C69.872 18.7795 69.872 14.6106 69.872 14.6106ZM75.3214 19.8217L75.768 20.0004C75.5596 20.9235 74.3685 22.055 72.6414 22.055C72.6414 22.055 70.1698 22.0848 69.9018 19.5835C69.4849 20.9533 67.728 22.055 65.6436 22.055C65.6436 22.055 62.2191 22.055 62.2191 19.0177C62.2191 15.891 64.7205 15.4146 69.872 14.1044V12.3177C69.872 9.2506 68.264 7.61283 66.0307 8.68483C64.9885 9.22083 64.8396 9.75683 65.0183 9.78661C65.4351 9.84616 65.7627 10.0248 66.0307 10.3822C66.5369 11.067 66.3583 12.0199 65.6734 12.5262C64.9885 13.0026 64.0058 12.8537 63.5294 12.1688C63.172 11.6626 63.1423 11.0075 63.4103 10.531C63.6783 10.0546 64.1249 9.22083 65.7329 8.35727C67.0431 7.67238 68.5618 7.76172 68.5618 7.76172C72.1351 7.76172 73.088 10.2035 73.088 13.7173V18.4817C73.088 18.4817 73.088 20.447 74.4876 20.447C74.4876 20.447 75.1427 20.447 75.3214 19.8217ZM89.3411 17.9755L89.6984 18.1839C89.3113 19.6728 87.6736 22.055 83.9811 22.055C80.378 22.055 77.4598 18.8093 77.4598 14.8786C77.4598 11.3648 80.11 7.76172 84.934 7.76172C87.4651 7.76172 88.5371 8.86349 88.9242 9.31016C89.2816 9.75683 89.49 10.4715 89.222 11.0373C88.8944 11.871 87.9118 12.3475 87.0482 12.0199C86.1847 11.6924 85.7976 10.7097 86.1251 9.87594C86.274 9.42927 86.6016 9.10172 86.9887 8.95283C87.2567 8.86349 86.5122 8.20838 84.934 8.20838C83.8024 8.20838 80.7353 9.13149 80.7353 14.4617C80.7353 18.0648 82.7007 19.5835 84.7851 19.911C86.6313 20.179 88.7158 19.0475 89.3411 17.9755ZM100.008 19.107L100.395 19.3453C99.8887 20.6853 98.3105 22.055 96.4345 22.055C94.2012 22.055 92.8314 21.1022 92.8314 17.499V8.47638H91.3425L91.2532 8.02972H92.8314V3.92038L95.9878 3.41416V8.02972H99.5314L99.4123 8.47638H95.9878V17.4097C95.9878 19.4346 96.7621 20.2684 98.2212 20.2684C99.0847 20.2684 99.7696 19.643 100.008 19.107Z" fill="white"/>
</svg>
