<svg width="50" height="29" viewBox="0 0 50 29" fill="none" xmlns="http://www.w3.org/2000/svg">
<path d="M0.565778 0.0364462H19.4747V5.66445H19.028C18.8493 0.572446 13.1916 0.483114 12.9831 0.483114H11.8218V17.7542C11.8218 19.7493 12.9236 20.5533 14.1742 20.5533V21H5.83644V20.5533C7.08711 20.5533 8.18889 19.7493 8.18889 17.7542V0.483114H7.02755C6.58089 0.483114 1.19111 0.572446 1.01244 5.66445H0.565778V0.0364462ZM28.8244 14.1213C28.8244 8.73156 27.812 7.42133 25.5786 7.42133C23.3751 7.42133 22.3329 8.73156 22.3329 14.1213C22.3329 19.5111 23.3751 20.8213 25.5786 20.8213C27.812 20.8213 28.8244 19.5111 28.8244 14.1213ZM32.5764 14.1213C32.5764 18.0222 30.1346 21.268 25.5786 21.268C21.0524 21.268 18.6106 18.0222 18.6106 14.1213C18.6106 10.1907 21.0524 6.97467 25.5786 6.97467C30.1346 6.97467 32.5764 10.1907 32.5764 14.1213ZM45.9124 14.5978C45.9124 9.83333 44.5427 7.98711 42.0413 7.98711C40.1653 7.98711 39.004 9.41645 38.8253 11.3222V16.8311C39.0338 19.6898 40.6716 20.8213 42.3689 20.8213C44.4533 20.8213 45.9124 19.2431 45.9124 14.5978ZM49.5751 14.2404C49.5751 18.9453 46.508 21.268 42.4284 21.268C40.9991 21.268 39.7484 20.8809 38.8253 20.2556V25.8836C38.8253 27.5213 38.9742 28.1764 40.0462 28.4444V28.8911H34.4778V28.4444C35.6093 28.1169 35.6689 27.4022 35.6689 25.8836V10.0716C35.6689 9.02933 35.4009 8.76133 34.18 8.43378V7.98711L38.8253 6.97467V9.32711C39.7484 7.65956 41.8329 6.97467 43.292 6.97467C46.9547 6.97467 49.5751 9.83333 49.5751 14.2404Z" fill="white"/>
</svg>
