<svg width="96" height="22" viewBox="0 0 96 22" fill="none" xmlns="http://www.w3.org/2000/svg">
<path d="M12.8342 5.93695C12.8342 0.636509 10.2733 0.696066 7.236 0.696066H6.31289V11.1778H7.236C10.3924 11.1778 12.8342 11.1778 12.8342 5.93695ZM20.2489 20.7663V21.213H17.7476C13.1618 21.1832 13.7871 21.1832 11.8813 14.7214C10.988 11.6245 8.09955 11.6245 7.71244 11.6245H6.31289V17.8481C6.31289 19.9027 7.14667 20.7663 8.39733 20.7663V21.213H0.714667V20.7663C1.99511 20.7663 2.70978 19.9325 2.70978 17.6694V3.16762C2.70978 1.3214 2.02489 0.696066 0.714667 0.696066V0.249398H7.236C13.1618 0.249398 16.9138 0.964066 16.9138 5.93695C16.9138 9.77829 14.5911 11.0587 11.2262 11.3565C13.1916 11.297 15.3951 12.0414 16.884 17.997C17.4796 20.2601 19.4747 20.7067 20.2489 20.7663ZM24.8502 13.6196H31.2227C31.2227 9.56984 29.6445 7.63429 28.1258 7.63429C26.3987 7.63429 24.8502 10.3143 24.8502 13.6196ZM33.4262 17.4312L33.8431 17.6396C33.456 19.0987 31.7289 21.481 27.9769 21.481C24.1951 21.481 21.5151 18.1458 21.5151 14.4236C21.5151 10.1356 24.344 7.18762 28.2449 7.18762C32.1458 7.18762 34.3196 9.39118 34.3196 14.0663H24.8502C25.0289 17.5205 26.6667 19.0987 28.8107 19.4263C30.5378 19.6943 32.7711 18.8605 33.4262 17.4312ZM48.7569 17.4014L49.1142 17.6098C48.7271 19.0987 47.0894 21.481 43.3969 21.481C39.7938 21.481 36.8756 18.2352 36.8756 14.3045C36.8756 10.7907 39.5258 7.18762 44.3498 7.18762C46.8809 7.18762 47.9529 8.2894 48.34 8.73606C48.6974 9.18273 48.9058 9.8974 48.6378 10.4632C48.3102 11.297 47.3276 11.7734 46.464 11.4458C45.6005 11.1183 45.2134 10.1356 45.5409 9.30184C45.6898 8.85518 46.0174 8.52762 46.4045 8.37873C46.6725 8.2894 45.928 7.63429 44.3498 7.63429C43.2182 7.63429 40.1511 8.5574 40.1511 13.8876C40.1511 17.4907 42.1165 19.0094 44.2009 19.337C46.0471 19.605 48.1316 18.4734 48.7569 17.4014ZM59.0067 7.30673C59.6023 7.15784 60.5254 7.27695 61.0614 7.78318C61.8059 8.52762 61.8059 9.74851 61.0614 10.493C60.317 11.2374 59.1259 11.2672 58.3219 10.5227C57.9645 10.1356 57.7859 9.65918 57.8156 9.21251C57.8752 8.79562 56.2672 9.30184 55.2547 11.1778V17.997C55.2547 19.6645 55.4036 20.4685 56.4756 20.7663V21.213H50.8774V20.7663C52.009 20.409 52.0685 19.5454 52.0685 17.997V10.5525C52.0685 9.54006 51.8005 9.0934 50.5796 8.64673V8.20006L55.2547 7.18762V10.4036C56.5947 8.17029 58.0539 7.54495 59.0067 7.30673ZM77.572 20.3494V20.7663L73.6711 21.4512C72.8969 21.5703 72.8969 20.945 72.8969 20.945V18.3841C72.2716 20.0218 70.068 21.481 68.1325 21.481C65.8991 21.481 64.1423 20.5876 64.1423 16.9547V10.4334C64.1423 8.5574 64.2018 8.37873 62.4747 8.20006V7.7534L67.2689 7.18762V16.8654C67.2689 18.8307 68.3409 19.6645 70.068 19.6645C71.1996 19.6645 72.3311 18.7712 72.8969 17.5503V10.4334C72.8969 8.61695 72.9863 8.31918 71.4974 8.20006V7.7534L76.0534 7.18762V18.5925C76.0534 20.0218 76.3214 20.2005 77.572 20.3494ZM81.7698 4.74584C80.7871 4.74584 80.0129 3.97162 80.0129 2.98895C80.0129 2.00629 80.7871 1.20229 81.7698 1.20229C82.7524 1.20229 83.5862 2.00629 83.5862 2.98895C83.5862 3.97162 82.7524 4.74584 81.7698 4.74584ZM84.8667 20.7663V21.213H79.328V20.7663C80.4595 20.409 80.5191 19.5454 80.5191 18.0267V10.5823C80.5191 9.56984 80.2213 9.15295 79.0004 8.64673V8.20006L83.6458 7.18762V18.0267C83.6458 19.6645 83.7947 20.4685 84.8667 20.7663ZM95.25 18.533L95.6371 18.7712C95.1309 20.1112 93.5527 21.481 91.6767 21.481C89.4434 21.481 88.0736 20.5281 88.0736 16.925V7.90229H86.5847L86.4954 7.45562H88.0736V3.34629L91.23 2.84006V7.45562H94.7736L94.6545 7.90229H91.23V16.8356C91.23 18.8605 92.0042 19.6943 93.4634 19.6943C94.3269 19.6943 95.0118 19.069 95.25 18.533Z" fill="white"/>
</svg>
