<svg width="122" height="30" viewBox="0 0 122 30" fill="none" xmlns="http://www.w3.org/2000/svg">
<path d="M17.1644 15.5635H17.6111L17.9982 20.2088C15.7947 21.6679 13.74 22.055 10.5538 22.055C4.27067 22.055 0.220889 17.5884 0.220889 11.3053C0.220889 4.99238 4.27067 0.555494 10.5538 0.555494C13.6209 0.555494 16.1222 0.853274 17.9982 2.37194L17.6111 7.01727H17.1644C15.9138 2.55061 13.4422 1.00216 10.5538 1.00216C7.33778 1.00216 4.80667 2.72927 4.80667 11.3053C4.80667 19.9706 7.42711 21.6084 10.5538 21.6084C13.5316 21.6084 16.5987 19.4644 17.1644 15.5635ZM30.7033 14.9084C30.7033 9.51861 29.6909 8.20838 27.4575 8.20838C25.254 8.20838 24.2118 9.51861 24.2118 14.9084C24.2118 20.2982 25.254 21.6084 27.4575 21.6084C29.6909 21.6084 30.7033 20.2982 30.7033 14.9084ZM34.4553 14.9084C34.4553 18.8093 32.0135 22.055 27.4575 22.055C22.9313 22.055 20.4895 18.8093 20.4895 14.9084C20.4895 10.9777 22.9313 7.76172 27.4575 7.76172C32.0135 7.76172 34.4553 10.9777 34.4553 14.9084ZM58.0945 21.3404V21.787H52.526V21.3404C53.6576 21.0128 53.7171 20.1195 53.7171 18.6008V12.4964C53.7171 10.5906 52.8833 9.57816 51.2753 9.57816C49.9651 9.57816 48.6847 11.0075 48.6847 12.139C48.6847 12.2582 48.6847 12.3773 48.6847 12.5262L48.7145 18.6008C48.7145 20.2386 48.8633 21.0724 49.9353 21.3404V21.787H44.3669V21.3404C45.4985 21.0128 45.558 20.1195 45.558 18.6008V12.4964C45.558 10.5906 44.754 9.57816 43.146 9.57816C41.8358 9.57816 40.6447 11.0373 40.5256 12.0795V18.6306C40.5256 20.2684 40.7042 21.0426 41.7465 21.3404V21.787H36.2078V21.3404C37.3393 21.0128 37.3691 20.1493 37.3691 18.6306V11.2755C37.3691 10.2333 37.1011 9.72705 35.8802 9.22083V8.77416L40.5256 7.76172V10.8288C41.27 9.10172 43.0269 7.76172 44.9029 7.76172C46.9873 7.76172 48.2678 8.71461 48.6549 10.9479C49.2505 9.13149 51.1562 7.76172 53.0322 7.76172C55.4145 7.76172 56.8736 8.80394 56.8736 12.407V18.6008C56.8736 20.2386 57.0225 21.0724 58.0945 21.3404ZM70.968 15.3848C70.968 10.6204 69.5982 8.77416 67.0969 8.77416C65.2209 8.77416 64.0595 10.2035 63.8809 12.1093V17.6182C64.0893 20.4768 65.7271 21.6084 67.4244 21.6084C69.5089 21.6084 70.968 20.0302 70.968 15.3848ZM74.6307 15.0275C74.6307 19.7324 71.5635 22.055 67.484 22.055C66.0547 22.055 64.804 21.6679 63.8809 21.0426V26.6706C63.8809 28.3084 64.0298 28.9635 65.1018 29.2315V29.6782H59.5333V29.2315C60.6649 28.9039 60.7244 28.1893 60.7244 26.6706V10.8586C60.7244 9.81638 60.4564 9.54838 59.2355 9.22083V8.77416L63.8809 7.76172V10.1142C64.804 8.44661 66.8884 7.76172 68.3475 7.76172C72.0102 7.76172 74.6307 10.6204 74.6307 15.0275ZM84.8772 14.6106C81.691 15.3253 80.4701 16.6653 80.4701 18.3328C80.4701 18.7497 80.7381 20.4768 82.6141 20.4768C83.8946 20.4768 84.6092 19.5537 84.8772 18.839C84.8772 18.7795 84.8772 14.6106 84.8772 14.6106ZM90.3266 19.8217L90.7732 20.0004C90.5648 20.9235 89.3737 22.055 87.6466 22.055C87.6466 22.055 85.175 22.0848 84.907 19.5835C84.4901 20.9533 82.7332 22.055 80.6488 22.055C80.6488 22.055 77.2243 22.055 77.2243 19.0177C77.2243 15.891 79.7257 15.4146 84.8772 14.1044V12.3177C84.8772 9.2506 83.2692 7.61283 81.0359 8.68483C79.9937 9.22083 79.8448 9.75683 80.0235 9.78661C80.4403 9.84616 80.7679 10.0248 81.0359 10.3822C81.5421 11.067 81.3635 12.0199 80.6786 12.5262C79.9937 13.0026 79.011 12.8537 78.5346 12.1688C78.1772 11.6626 78.1475 11.0075 78.4155 10.531C78.6835 10.0546 79.1301 9.22083 80.7381 8.35727C82.0483 7.67238 83.567 7.76172 83.567 7.76172C87.1403 7.76172 88.0932 10.2035 88.0932 13.7173V18.4817C88.0932 18.4817 88.0932 20.447 89.4928 20.447C89.4928 20.447 90.1479 20.447 90.3266 19.8217ZM105.984 21.3404V21.787H100.416V21.3404C101.547 21.0128 101.607 20.1195 101.607 18.6008V12.4964C101.607 10.7693 100.594 9.57816 98.8672 9.57816C97.5272 9.57816 96.1872 10.9479 96.0681 12.0795V18.6306C96.0681 20.2684 96.2468 21.0426 97.289 21.3404V21.787H91.7503V21.3404C92.8819 21.0128 92.9117 20.1493 92.9117 18.6306V11.1266C92.9117 10.0844 92.6437 9.72705 91.4228 9.22083V8.77416L96.0681 7.76172V10.9182C96.7232 9.13149 98.9565 7.76172 100.833 7.76172C103.185 7.76172 104.763 8.80394 104.763 12.407V18.6008C104.763 20.2386 104.912 21.0724 105.984 21.3404ZM115.343 8.02972H121.149V8.44661C120.316 8.44661 119.124 8.62527 117.308 13.1515L112.722 25.4497C112.008 27.3257 111.174 28.0999 110.668 28.487C110.191 28.8742 109.268 29.0528 108.643 28.755C107.72 28.3382 107.332 27.2662 107.72 26.343C108.136 25.4199 109.208 25.003 110.132 25.4199C110.608 25.6284 110.906 26.0453 111.025 26.4919C111.144 26.879 111.829 26.5813 112.276 25.3902L113.526 21.9657C110.816 15.9208 107.928 9.78661 107.928 9.78661C107.392 8.53594 106.38 8.47638 105.933 8.44661V8.02972H112.514V8.44661C110.787 8.44661 111.68 10.4417 111.68 10.4417L115.104 17.767L116.891 13.0622C116.891 13.0622 118.797 8.41683 115.343 8.44661V8.02972Z" fill="white"/>
</svg>
