<svg width="668" height="33" viewBox="0 0 668 33" fill="none" xmlns="http://www.w3.org/2000/svg">
<path d="M6.60398 2.09023H5.22144V12.3965H7.10672C9.05485 12.3965 11.1287 11.7994 11.1287 7.02339C11.1287 2.40445 8.52069 2.09023 6.60398 2.09023ZM15.999 18.178C15.999 23.6453 11.8828 23.8024 6.44688 23.8024H0.162592V23.5196C1.51371 23.5196 1.98503 22.1685 1.98503 20.0319V5.38948C1.98503 3.44135 1.54513 1.96455 0.162592 1.96455V1.68175H6.44688C10.8145 1.68175 14.5222 1.93313 14.5222 7.05482C14.5222 11.9566 9.90323 12.4593 9.2748 12.4593C11.3172 12.4593 15.999 12.8678 15.999 18.178ZM12.4798 18.0523C12.4798 12.962 9.43191 12.8049 7.10672 12.8049H5.22144V23.394H6.60398C9.62044 23.394 12.4798 23.4568 12.4798 18.0523ZM26.6737 9.09721C27.2393 9.03436 28.0248 9.19147 28.4647 9.69421C29.0931 10.4483 28.9989 11.5167 28.2447 12.1451C27.522 12.7421 26.4537 12.6792 25.7939 11.9251C25.5111 11.5795 25.354 11.1396 25.4482 10.7311C25.5425 10.197 23.4373 10.9511 22.4632 13.0563V20.8802C22.4632 22.6398 22.6203 23.1112 23.7515 23.394V23.8024H18.4413V23.394C19.6353 23.0483 19.6981 22.5142 19.6981 20.8802V12.1765C19.6981 11.0768 19.4153 10.6369 18.127 10.2912V9.91416L22.4632 9.00294V12.3022C23.6258 10.1655 25.4168 9.25431 26.6737 9.09721ZM32.6833 6.39497C31.772 6.39497 31.0808 5.67227 31.0808 4.79247C31.0808 3.88125 31.772 3.18998 32.6833 3.18998C33.5631 3.18998 34.2858 3.88125 34.2858 4.79247C34.2858 5.67227 33.5631 6.39497 32.6833 6.39497ZM35.6369 23.394V23.8024H30.3581V23.394C31.5521 23.0483 31.6149 22.4827 31.6149 20.8802V12.1765C31.6149 11.0768 31.3636 10.6369 30.0439 10.2912V9.91416L34.3486 9.00294V20.8802C34.3486 22.6398 34.5057 23.1112 35.6369 23.394ZM51.9168 23.4254V23.8024H46.6381V23.4254C47.8321 23.0797 47.8949 22.4827 47.8949 20.8802V14.1246C47.8949 11.988 46.7637 10.574 44.6899 10.574C43.056 10.574 41.7363 12.1451 41.4849 13.2763V20.9117C41.4849 22.6398 41.642 23.1112 42.7732 23.394V23.8024H37.4944V23.394C38.6884 23.0483 38.7199 22.5142 38.7199 20.9117V12.1451C38.7199 11.0453 38.4685 10.6369 37.1488 10.2912V9.91416L41.4849 9.00294V12.3022C42.1448 10.4797 44.3129 9.00294 46.2924 9.00294C48.8376 9.00294 50.6286 10.2284 50.6286 14.0304V20.8802C50.6286 22.6084 50.8171 23.1426 51.9168 23.4254ZM63.8211 13.8104C63.8211 10.2912 61.9987 9.41142 60.6476 9.41142C59.0765 9.41142 57.5054 10.2912 57.5054 13.8104C57.5054 17.3296 59.265 18.2408 60.6476 18.2408C62.093 18.2408 63.8211 17.3296 63.8211 13.8104ZM69.1628 11.2653C68.5344 11.768 67.6231 11.7052 67.1518 11.0768C66.9004 10.7625 66.7748 10.3855 66.869 10.0399C66.9319 9.78848 65.9578 9.91416 65.3922 10.7311C66.1778 11.5167 66.5548 12.6792 66.5548 13.8104C66.5548 16.3556 64.3239 18.6493 60.6476 18.6493C59.4221 18.6493 58.4795 18.4608 57.6625 18.1152C56.1857 18.3665 54.6147 21.6029 58.3224 21.6029H62.093C64.261 21.6029 68.063 21.4772 67.4974 25.5934C67.4974 25.5934 67.4032 28.0443 64.1039 29.8982C59.7992 32.3176 54.866 31.8463 53.5778 29.4583C52.4152 27.3216 53.7977 24.9964 55.8715 23.8339C54.9603 23.394 54.4576 22.5456 54.4576 21.4144C54.4576 21.4144 54.3319 18.775 57.2541 17.9266C55.5887 17.2039 54.7718 15.4758 54.7718 13.8104C54.7718 11.2653 57.0341 9.00294 60.6476 9.00294C62.5329 9.00294 64.0725 9.56853 65.1094 10.4797C65.9264 9.25431 67.1832 8.81442 67.9373 8.72015C68.4401 8.68873 69.0371 8.84584 69.3827 9.25431C69.8541 9.88274 69.7598 10.7625 69.1628 11.2653ZM55.683 28.7042C57.1598 30.4638 61.0875 31.2807 63.884 29.5525C66.3349 28.0443 66.1149 26.0648 66.1149 26.0648C66.1149 26.0648 65.9892 24.4623 63.287 24.4623H58.9508C58.6052 24.4623 57.3798 24.4937 56.28 24.0538C53.295 26.0333 55.7458 28.767 55.683 28.7042ZM73.3102 6.39497C72.3989 6.39497 71.7077 5.67227 71.7077 4.79247C71.7077 3.88125 72.3989 3.18998 73.3102 3.18998C74.19 3.18998 74.9127 3.88125 74.9127 4.79247C74.9127 5.67227 74.19 6.39497 73.3102 6.39497ZM76.2638 23.394V23.8024H70.985V23.394C72.179 23.0483 72.2418 22.4827 72.2418 20.8802V12.1765C72.2418 11.0768 71.9905 10.6369 70.6708 10.2912V9.91416L74.9755 9.00294V20.8802C74.9755 22.6398 75.1326 23.1112 76.2638 23.394ZM92.5437 23.4254V23.8024H87.265V23.4254C88.459 23.0797 88.5218 22.4827 88.5218 20.8802V14.1246C88.5218 11.988 87.3906 10.574 85.3168 10.574C83.6829 10.574 82.3632 12.1451 82.1118 13.2763V20.9117C82.1118 22.6398 82.2689 23.1112 83.4001 23.394V23.8024H78.1213V23.394C79.3153 23.0483 79.3468 22.5142 79.3468 20.9117V12.1451C79.3468 11.0453 79.0954 10.6369 77.7757 10.2912V9.91416L82.1118 9.00294V12.3022C82.7717 10.4797 84.9398 9.00294 86.9193 9.00294C89.4645 9.00294 91.2555 10.2284 91.2555 14.0304V20.8802C91.2555 22.6084 91.444 23.1426 92.5437 23.4254ZM104.448 13.8104C104.448 10.2912 102.626 9.41142 101.274 9.41142C99.7034 9.41142 98.1323 10.2912 98.1323 13.8104C98.1323 17.3296 99.8919 18.2408 101.274 18.2408C102.72 18.2408 104.448 17.3296 104.448 13.8104ZM109.79 11.2653C109.161 11.768 108.25 11.7052 107.779 11.0768C107.527 10.7625 107.402 10.3855 107.496 10.0399C107.559 9.78848 106.585 9.91416 106.019 10.7311C106.805 11.5167 107.182 12.6792 107.182 13.8104C107.182 16.3556 104.951 18.6493 101.274 18.6493C100.049 18.6493 99.1064 18.4608 98.2894 18.1152C96.8126 18.3665 95.2416 21.6029 98.9493 21.6029H102.72C104.888 21.6029 108.69 21.4772 108.124 25.5934C108.124 25.5934 108.03 28.0443 104.731 29.8982C100.426 32.3176 95.4929 31.8463 94.2047 29.4583C93.0421 27.3216 94.4246 24.9964 96.4984 23.8339C95.5872 23.394 95.0845 22.5456 95.0845 21.4144C95.0845 21.4144 94.9588 18.775 97.881 17.9266C96.2156 17.2039 95.3987 15.4758 95.3987 13.8104C95.3987 11.2653 97.661 9.00294 101.274 9.00294C103.16 9.00294 104.699 9.56853 105.736 10.4797C106.553 9.25431 107.81 8.81442 108.564 8.72015C109.067 8.68873 109.664 8.84584 110.01 9.25431C110.481 9.88274 110.387 10.7625 109.79 11.2653ZM96.3099 28.7042C97.7867 30.4638 101.714 31.2807 104.511 29.5525C106.962 28.0443 106.742 26.0648 106.742 26.0648C106.742 26.0648 106.616 24.4623 103.914 24.4623H99.5777C99.2321 24.4623 98.0067 24.4937 96.9069 24.0538C93.9219 26.0333 96.3727 28.767 96.3099 28.7042ZM129.239 22.5456C129.239 22.5456 128.171 24.0852 125.249 24.0852C121.447 24.0852 119.75 22.8284 119.75 22.8284V18.5551H120.159C120.378 20.6289 121.164 23.6767 125.249 23.6767C128.579 23.6767 128.171 20.3461 125.783 18.775L122.609 16.8583C119.593 14.8473 118.902 12.962 120.159 10.794C120.159 10.794 121.101 9.00294 124.306 9.00294C127.92 9.00294 129.428 10.0084 129.428 10.0084V13.8418H129.051C128.831 11.988 127.951 9.41142 124.306 9.41142C121.321 9.41142 121.101 12.365 123.835 14.0932L127.008 16.0728C129.836 17.8324 130.748 20.3775 129.239 22.5456ZM134.895 6.39497C133.984 6.39497 133.292 5.67227 133.292 4.79247C133.292 3.88125 133.984 3.18998 134.895 3.18998C135.775 3.18998 136.497 3.88125 136.497 4.79247C136.497 5.67227 135.775 6.39497 134.895 6.39497ZM137.849 23.394V23.8024H132.57V23.394C133.764 23.0483 133.827 22.4827 133.827 20.8802V12.1765C133.827 11.0768 133.575 10.6369 132.256 10.2912V9.91416L136.56 9.00294V20.8802C136.56 22.6398 136.717 23.1112 137.849 23.394ZM154.128 23.4254V23.8024H148.85V23.4254C150.044 23.0797 150.107 22.4827 150.107 20.8802V14.1246C150.107 11.988 148.975 10.574 146.902 10.574C145.268 10.574 143.948 12.1451 143.697 13.2763V20.9117C143.697 22.6398 143.854 23.1112 144.985 23.394V23.8024H139.706V23.394C140.9 23.0483 140.931 22.5142 140.931 20.9117V12.1451C140.931 11.0453 140.68 10.6369 139.36 10.2912V9.91416L143.697 9.00294V12.3022C144.356 10.4797 146.524 9.00294 148.504 9.00294C151.049 9.00294 152.84 10.2284 152.84 14.0304V20.8802C152.84 22.6084 153.029 23.1426 154.128 23.4254ZM168.672 19.7805L169.018 19.9376C168.672 21.5087 167.07 24.0852 163.205 24.0852C159.686 24.0852 156.355 21.1945 156.355 16.5755C156.355 12.7107 159.183 9.00294 163.99 9.00294C167.07 9.00294 168.012 10.4169 168.295 10.9196C168.546 11.3595 168.609 11.9566 168.327 12.4593C167.918 13.1191 166.975 13.4019 166.316 12.9935C165.593 12.585 165.373 11.6738 165.781 11.0139C166.001 10.6369 166.347 10.3855 166.661 10.3541C166.944 10.2912 166.096 9.41142 163.99 9.41142C162.734 9.41142 159.277 10.3541 159.277 16.2299C159.277 20.4089 161.634 22.1371 163.865 22.357C166.158 22.5456 168.107 21.0688 168.672 19.7805ZM174.153 15.8528H181.506C181.506 11.2653 179.464 9.41142 177.955 9.41142C176.164 9.41142 174.153 11.8937 174.153 15.8528ZM183.329 19.9376L183.706 20.0947C183.36 21.5715 181.632 24.0852 177.924 24.0852C173.996 24.0852 171.2 20.8174 171.2 16.6698C171.2 12.0194 174.153 9.00294 178.05 9.00294C181.695 9.00294 184.208 11.3281 184.208 16.2613H174.153C174.279 20.5032 176.164 22.1999 178.647 22.4513C180.532 22.6398 182.763 21.4772 183.329 19.9376ZM194.49 9.09721C195.055 9.03436 195.841 9.19147 196.281 9.69421C196.909 10.4483 196.815 11.5167 196.061 12.1451C195.338 12.7421 194.27 12.6792 193.61 11.9251C193.327 11.5795 193.17 11.1396 193.264 10.7311C193.359 10.197 191.253 10.9511 190.279 13.0563V20.8802C190.279 22.6398 190.436 23.1112 191.568 23.394V23.8024H186.257V23.394C187.451 23.0483 187.514 22.5142 187.514 20.8802V12.1765C187.514 11.0768 187.231 10.6369 185.943 10.2912V9.91416L190.279 9.00294V12.3022C191.442 10.1655 193.233 9.25431 194.49 9.09721ZM200.499 6.39497C199.588 6.39497 198.897 5.67227 198.897 4.79247C198.897 3.88125 199.588 3.18998 200.499 3.18998C201.379 3.18998 202.102 3.88125 202.102 4.79247C202.102 5.67227 201.379 6.39497 200.499 6.39497ZM203.453 23.394V23.8024H198.174V23.394C199.368 23.0483 199.431 22.4827 199.431 20.8802V12.1765C199.431 11.0768 199.18 10.6369 197.86 10.2912V9.91416L202.165 9.00294V20.8802C202.165 22.6398 202.322 23.1112 203.453 23.394ZM213.889 21.2259L214.203 21.383C213.763 22.7655 212.349 24.0852 210.526 24.0852C208.233 24.0852 206.85 23.0797 206.85 19.2777V9.69421H205.248L205.185 9.28574H206.85V4.8239L209.584 4.384V9.28574H213.323L213.229 9.69421H209.584V19.1835C209.584 21.6972 210.495 22.5456 211.972 22.5456C212.883 22.5456 213.637 21.8857 213.889 21.2259ZM224.647 9.28574H230.712V9.66279C229.612 9.66279 228.544 9.94559 226.69 14.6902L221.82 27.9815C221.191 29.8039 220.343 30.5266 219.903 30.9037C219.463 31.2493 218.615 31.4064 218.018 31.1236C217.169 30.7466 216.824 29.7725 217.169 28.9241C217.578 28.0757 218.552 27.6987 219.369 28.0757C219.809 28.2643 220.091 28.6727 220.217 29.0812C220.343 29.5211 221.003 29.0812 221.442 27.9186L222.856 23.9281C219.117 15.6643 216.981 11.2653 216.981 11.2653C216.352 9.8199 215.252 9.69421 214.781 9.66279V9.28574H221.285V9.66279C219.243 9.66279 220.343 11.9566 220.343 11.9566L224.239 20.3147L226.313 14.596C226.313 14.596 228.292 9.63137 224.647 9.66279V9.28574ZM248.503 16.0413C244.859 16.9211 243.256 18.3037 243.256 20.189C243.256 21.1002 243.822 22.6713 245.738 22.6713C247.404 22.6713 248.189 21.4772 248.503 20.7231C248.503 20.6917 248.503 16.0413 248.503 16.0413ZM252.745 22.6084C252.745 22.6084 253.468 22.6084 253.688 21.7915L254.065 21.9486C253.877 22.8912 252.808 24.0852 251.174 24.0852C251.174 24.0852 248.692 24.1481 248.503 21.4458C248.064 22.9541 246.241 24.0852 244.042 24.0852C244.042 24.0852 240.46 24.0852 240.46 20.8488C240.46 17.7067 243.13 17.0154 248.503 15.6329V13.8104C248.503 10.574 246.87 8.75157 244.356 9.91416C243.13 10.5112 242.942 11.1082 243.13 11.1396C243.507 11.2024 243.853 11.3595 244.104 11.7052C244.576 12.3336 244.45 13.2763 243.79 13.7476C243.162 14.2503 242.251 14.1246 241.779 13.4648C241.434 12.9935 241.371 12.365 241.622 11.9251C241.842 11.4538 242.376 10.5112 244.073 9.59995C245.424 8.90868 246.964 9.00294 246.964 9.00294C250.389 9.00294 251.331 11.5481 251.331 15.2872V20.6289C251.331 20.6289 251.3 22.6084 252.745 22.6084ZM269.504 23.4254V23.8024H264.225V23.4254C265.419 23.0797 265.482 22.4827 265.482 20.8802V14.1246C265.482 11.988 264.351 10.574 262.277 10.574C260.643 10.574 259.323 12.1451 259.072 13.2763V20.9117C259.072 22.6398 259.229 23.1112 260.36 23.394V23.8024H255.082V23.394C256.276 23.0483 256.307 22.5142 256.307 20.9117V12.1451C256.307 11.0453 256.056 10.6369 254.736 10.2912V9.91416L259.072 9.00294V12.3022C259.732 10.4797 261.9 9.00294 263.88 9.00294C266.425 9.00294 268.216 10.2284 268.216 14.0304V20.8802C268.216 22.6084 268.404 23.1426 269.504 23.4254ZM282.728 19.4663V13.9675C282.728 10.9196 280.843 9.41142 278.926 9.41142C276.852 9.41142 274.747 10.8882 274.747 15.9157C274.747 20.9117 276.349 23.174 279.083 23.174C281.157 23.174 282.728 21.6658 282.728 19.4663ZM287.033 23.0797V23.4882L283.608 24.0538C282.728 24.2109 282.728 23.4882 282.728 23.4882V21.76C281.754 23.3625 279.649 24.0852 278.109 24.0852C273.899 24.0852 271.479 20.7546 271.479 16.3556C271.479 11.4852 274.653 9.00294 278.863 9.00294C280.403 9.00294 281.691 9.44284 282.728 10.1655V3.62988C282.728 2.53013 282.414 2.12165 281.125 1.87028V1.4618L285.43 0.613426V21.3516C285.43 22.8912 285.776 23.0797 287.033 23.0797ZM299.379 15.8528H306.731C306.731 11.2653 304.689 9.41142 303.181 9.41142C301.39 9.41142 299.379 11.8937 299.379 15.8528ZM308.554 19.9376L308.931 20.0947C308.585 21.5715 306.857 24.0852 303.149 24.0852C299.222 24.0852 296.425 20.8174 296.425 16.6698C296.425 12.0194 299.379 9.00294 303.275 9.00294C306.92 9.00294 309.434 11.3281 309.434 16.2613H299.379C299.505 20.5032 301.39 22.1999 303.872 22.4513C305.757 22.6398 307.988 21.4772 308.554 19.9376ZM333.666 23.4254V23.8024H328.387V23.4254C329.581 23.0797 329.644 22.4827 329.644 20.8802V14.1246C329.644 11.8623 328.796 10.574 326.785 10.574C325.214 10.574 323.894 12.1765 323.894 13.3391C323.894 13.559 323.894 13.8104 323.894 14.0932V20.8802C323.894 22.6084 324.051 23.1426 325.182 23.4254V23.8024H319.904V23.4254C321.098 23.0797 321.161 22.4827 321.161 20.8802V14.1246C321.161 11.8623 320.312 10.574 318.301 10.574C316.73 10.574 315.568 12.2079 315.348 13.2763V20.9117C315.348 22.6398 315.505 23.1112 316.636 23.394V23.8024H311.357V23.394C312.551 23.0483 312.583 22.5142 312.583 20.9117V12.2708C312.583 11.171 312.331 10.6369 311.011 10.2912V9.91416L315.348 9.00294V12.2393C316.039 10.4483 317.798 9.00294 319.778 9.00294C321.978 9.00294 323.391 10.0084 323.8 12.365C324.366 10.5112 326.251 9.00294 328.262 9.00294C330.838 9.00294 332.378 10.2284 332.378 14.0304V20.8802C332.378 22.6084 332.567 23.1426 333.666 23.4254ZM346.708 16.5441C346.708 10.8568 345.106 9.41142 342.718 9.41142C340.298 9.41142 338.664 10.8568 338.664 16.5441C338.664 22.2314 340.298 23.6767 342.718 23.6767C345.106 23.6767 346.708 22.2314 346.708 16.5441ZM349.945 16.5441C349.945 20.6603 347.525 24.0852 342.718 24.0852C337.942 24.0852 335.459 20.6603 335.459 16.5441C335.459 12.3965 337.942 9.00294 342.718 9.00294C347.525 9.00294 349.945 12.3965 349.945 16.5441ZM360.471 21.2259L360.785 21.383C360.345 22.7655 358.931 24.0852 357.109 24.0852C354.815 24.0852 353.432 23.0797 353.432 19.2777V9.69421H351.83L351.767 9.28574H353.432V4.8239L356.166 4.384V9.28574H359.905L359.811 9.69421H356.166V19.1835C356.166 21.6972 357.077 22.5456 358.554 22.5456C359.465 22.5456 360.219 21.8857 360.471 21.2259ZM364.725 6.39497C363.814 6.39497 363.123 5.67227 363.123 4.79247C363.123 3.88125 363.814 3.18998 364.725 3.18998C365.605 3.18998 366.328 3.88125 366.328 4.79247C366.328 5.67227 365.605 6.39497 364.725 6.39497ZM367.679 23.394V23.8024H362.4V23.394C363.594 23.0483 363.657 22.4827 363.657 20.8802V12.1765C363.657 11.0768 363.406 10.6369 362.086 10.2912V9.91416L366.391 9.00294V20.8802C366.391 22.6398 366.548 23.1112 367.679 23.394ZM381.382 16.5441C381.382 10.8568 379.78 9.41142 377.392 9.41142C374.972 9.41142 373.338 10.8568 373.338 16.5441C373.338 22.2314 374.972 23.6767 377.392 23.6767C379.78 23.6767 381.382 22.2314 381.382 16.5441ZM384.619 16.5441C384.619 20.6603 382.199 24.0852 377.392 24.0852C372.616 24.0852 370.134 20.6603 370.134 16.5441C370.134 12.3965 372.616 9.00294 377.392 9.00294C382.199 9.00294 384.619 12.3965 384.619 16.5441ZM400.989 23.4254V23.8024H395.71V23.4254C396.904 23.0797 396.967 22.4827 396.967 20.8802V14.1246C396.967 11.988 395.836 10.574 393.762 10.574C392.128 10.574 390.809 12.1451 390.557 13.2763V20.9117C390.557 22.6398 390.714 23.1112 391.845 23.394V23.8024H386.567V23.394C387.761 23.0483 387.792 22.5142 387.792 20.9117V12.1451C387.792 11.0453 387.541 10.6369 386.221 10.2912V9.91416L390.557 9.00294V12.3022C391.217 10.4797 393.385 9.00294 395.365 9.00294C397.91 9.00294 399.701 10.2284 399.701 14.0304V20.8802C399.701 22.6084 399.889 23.1426 400.989 23.4254ZM418.895 21.2259L419.209 21.383C418.769 22.7655 417.355 24.0852 415.533 24.0852C413.239 24.0852 411.856 23.0797 411.856 19.2777V9.69421H410.254L410.191 9.28574H411.856V4.8239L414.59 4.384V9.28574H418.329L418.235 9.69421H414.59V19.1835C414.59 21.6972 415.501 22.5456 416.978 22.5456C417.889 22.5456 418.644 21.8857 418.895 21.2259ZM432.105 16.5441C432.105 10.8568 430.502 9.41142 428.114 9.41142C425.695 9.41142 424.061 10.8568 424.061 16.5441C424.061 22.2314 425.695 23.6767 428.114 23.6767C430.502 23.6767 432.105 22.2314 432.105 16.5441ZM435.341 16.5441C435.341 20.6603 432.922 24.0852 428.114 24.0852C423.338 24.0852 420.856 20.6603 420.856 16.5441C420.856 12.3965 423.338 9.00294 428.114 9.00294C432.922 9.00294 435.341 12.3965 435.341 16.5441ZM457.304 17.1097C457.304 12.1451 455.639 9.94559 452.937 9.94559C450.832 9.94559 449.512 11.4538 449.323 13.6219V19.5291C449.512 22.3256 451.177 23.6767 453.157 23.6767C455.231 23.6767 457.304 22.1685 457.304 17.1097ZM460.604 16.6698C460.604 21.5715 457.43 24.0852 453.251 24.0852C451.649 24.0852 450.329 23.6453 449.323 22.8912V29.3326C449.323 31.0922 449.512 31.4378 450.612 31.7206V32.1291H445.333V31.7206C446.527 31.375 446.59 30.9351 446.59 29.3326V11.9566C446.59 10.8882 446.307 10.5426 445.019 10.2912V9.91416L449.323 9.00294V11.4538C450.297 9.78848 452.403 9.00294 454.005 9.00294C458.184 9.00294 460.604 12.3336 460.604 16.6698ZM466.182 15.8528H473.535C473.535 11.2653 471.493 9.41142 469.984 9.41142C468.193 9.41142 466.182 11.8937 466.182 15.8528ZM475.357 19.9376L475.734 20.0947C475.389 21.5715 473.661 24.0852 469.953 24.0852C466.025 24.0852 463.229 20.8174 463.229 16.6698C463.229 12.0194 466.182 9.00294 470.079 9.00294C473.724 9.00294 476.237 11.3281 476.237 16.2613H466.182C466.308 20.5032 468.193 22.1999 470.676 22.4513C472.561 22.6398 474.792 21.4772 475.357 19.9376ZM490.038 16.5441C490.038 10.8568 488.435 9.41142 486.047 9.41142C483.628 9.41142 481.994 10.8568 481.994 16.5441C481.994 22.2314 483.628 23.6767 486.047 23.6767C488.435 23.6767 490.038 22.2314 490.038 16.5441ZM493.274 16.5441C493.274 20.6603 490.855 24.0852 486.047 24.0852C481.271 24.0852 478.789 20.6603 478.789 16.5441C478.789 12.3965 481.271 9.00294 486.047 9.00294C490.855 9.00294 493.274 12.3965 493.274 16.5441ZM507.382 17.1097C507.382 12.1451 505.717 9.94559 503.015 9.94559C500.909 9.94559 499.59 11.4538 499.401 13.6219V19.5291C499.59 22.3256 501.255 23.6767 503.235 23.6767C505.308 23.6767 507.382 22.1685 507.382 17.1097ZM510.681 16.6698C510.681 21.5715 507.508 24.0852 503.329 24.0852C501.726 24.0852 500.407 23.6453 499.401 22.8912V29.3326C499.401 31.0922 499.59 31.4378 500.689 31.7206V32.1291H495.411V31.7206C496.605 31.375 496.668 30.9351 496.668 29.3326V11.9566C496.668 10.8882 496.385 10.5426 495.096 10.2912V9.91416L499.401 9.00294V11.4538C500.375 9.78848 502.48 9.00294 504.083 9.00294C508.262 9.00294 510.681 12.3336 510.681 16.6698ZM518.491 23.394V23.8024H513.212V23.394C514.406 23.0483 514.469 22.5142 514.469 20.9117V3.6613C514.469 2.56155 514.186 2.12165 512.898 1.87028V1.4618L517.234 0.613426V20.9117C517.234 22.6398 517.391 23.1112 518.491 23.394ZM523.502 15.8528H530.855C530.855 11.2653 528.812 9.41142 527.304 9.41142C525.513 9.41142 523.502 11.8937 523.502 15.8528ZM532.677 19.9376L533.054 20.0947C532.708 21.5715 530.98 24.0852 527.272 24.0852C523.345 24.0852 520.548 20.8174 520.548 16.6698C520.548 12.0194 523.502 9.00294 527.398 9.00294C531.043 9.00294 533.557 11.3281 533.557 16.2613H523.502C523.628 20.5032 525.513 22.1999 527.995 22.4513C529.88 22.6398 532.111 21.4772 532.677 19.9376ZM552.039 16.0413C548.394 16.9211 546.792 18.3037 546.792 20.189C546.792 21.1002 547.357 22.6713 549.274 22.6713C550.939 22.6713 551.725 21.4772 552.039 20.7231C552.039 20.6917 552.039 16.0413 552.039 16.0413ZM556.281 22.6084C556.281 22.6084 557.004 22.6084 557.224 21.7915L557.601 21.9486C557.412 22.8912 556.344 24.0852 554.71 24.0852C554.71 24.0852 552.228 24.1481 552.039 21.4458C551.599 22.9541 549.777 24.0852 547.577 24.0852C547.577 24.0852 543.995 24.0852 543.995 20.8488C543.995 17.7067 546.666 17.0154 552.039 15.6329V13.8104C552.039 10.574 550.405 8.75157 547.892 9.91416C546.666 10.5112 546.478 11.1082 546.666 11.1396C547.043 11.2024 547.389 11.3595 547.64 11.7052C548.112 12.3336 547.986 13.2763 547.326 13.7476C546.698 14.2503 545.786 14.1246 545.315 13.4648C544.969 12.9935 544.907 12.365 545.158 11.9251C545.378 11.4538 545.912 10.5112 547.609 9.59995C548.96 8.90868 550.5 9.00294 550.5 9.00294C553.924 9.00294 554.867 11.5481 554.867 15.2872V20.6289C554.867 20.6289 554.836 22.6084 556.281 22.6084ZM573.04 23.4254V23.8024H567.761V23.4254C568.955 23.0797 569.018 22.4827 569.018 20.8802V14.1246C569.018 11.988 567.887 10.574 565.813 10.574C564.179 10.574 562.859 12.1451 562.608 13.2763V20.9117C562.608 22.6398 562.765 23.1112 563.896 23.394V23.8024H558.617V23.394C559.811 23.0483 559.843 22.5142 559.843 20.9117V12.1451C559.843 11.0453 559.591 10.6369 558.272 10.2912V9.91416L562.608 9.00294V12.3022C563.268 10.4797 565.436 9.00294 567.415 9.00294C569.96 9.00294 571.751 10.2284 571.751 14.0304V20.8802C571.751 22.6084 571.94 23.1426 573.04 23.4254ZM586.264 19.4663V13.9675C586.264 10.9196 584.378 9.41142 582.462 9.41142C580.388 9.41142 578.283 10.8882 578.283 15.9157C578.283 20.9117 579.885 23.174 582.619 23.174C584.693 23.174 586.264 21.6658 586.264 19.4663ZM590.568 23.0797V23.4882L587.143 24.0538C586.264 24.2109 586.264 23.4882 586.264 23.4882V21.76C585.29 23.3625 583.184 24.0852 581.645 24.0852C577.434 24.0852 575.015 20.7546 575.015 16.3556C575.015 11.4852 578.188 9.00294 582.399 9.00294C583.939 9.00294 585.227 9.44284 586.264 10.1655V3.62988C586.264 2.53013 585.949 2.12165 584.661 1.87028V1.4618L588.966 0.613426V21.3516C588.966 22.8912 589.312 23.0797 590.568 23.0797ZM612.561 19.7805L612.907 19.9376C612.561 21.5087 610.958 24.0852 607.094 24.0852C603.574 24.0852 600.244 21.1945 600.244 16.5755C600.244 12.7107 603.072 9.00294 607.879 9.00294C610.958 9.00294 611.901 10.4169 612.184 10.9196C612.435 11.3595 612.498 11.9566 612.215 12.4593C611.807 13.1191 610.864 13.4019 610.204 12.9935C609.482 12.585 609.262 11.6738 609.67 11.0139C609.89 10.6369 610.236 10.3855 610.55 10.3541C610.833 10.2912 609.984 9.41142 607.879 9.41142C606.622 9.41142 603.166 10.3541 603.166 16.2299C603.166 20.4089 605.523 22.1371 607.754 22.357C610.047 22.5456 611.995 21.0688 612.561 19.7805ZM617.508 6.39497C616.597 6.39497 615.906 5.67227 615.906 4.79247C615.906 3.88125 616.597 3.18998 617.508 3.18998C618.388 3.18998 619.111 3.88125 619.111 4.79247C619.111 5.67227 618.388 6.39497 617.508 6.39497ZM620.462 23.394V23.8024H615.183V23.394C616.377 23.0483 616.44 22.4827 616.44 20.8802V12.1765C616.44 11.0768 616.188 10.6369 614.869 10.2912V9.91416L619.173 9.00294V20.8802C619.173 22.6398 619.331 23.1112 620.462 23.394ZM630.897 21.2259L631.212 21.383C630.772 22.7655 629.358 24.0852 627.535 24.0852C625.241 24.0852 623.859 23.0797 623.859 19.2777V9.69421H622.256L622.194 9.28574H623.859V4.8239L626.593 4.384V9.28574H630.332L630.237 9.69421H626.593V19.1835C626.593 21.6972 627.504 22.5456 628.981 22.5456C629.892 22.5456 630.646 21.8857 630.897 21.2259ZM635.152 6.39497C634.241 6.39497 633.55 5.67227 633.55 4.79247C633.55 3.88125 634.241 3.18998 635.152 3.18998C636.032 3.18998 636.754 3.88125 636.754 4.79247C636.754 5.67227 636.032 6.39497 635.152 6.39497ZM638.106 23.394V23.8024H632.827V23.394C634.021 23.0483 634.084 22.4827 634.084 20.8802V12.1765C634.084 11.0768 633.832 10.6369 632.513 10.2912V9.91416L636.817 9.00294V20.8802C636.817 22.6398 636.974 23.1112 638.106 23.394ZM643.388 15.8528H650.741C650.741 11.2653 648.698 9.41142 647.19 9.41142C645.399 9.41142 643.388 11.8937 643.388 15.8528ZM652.563 19.9376L652.94 20.0947C652.595 21.5715 650.866 24.0852 647.159 24.0852C643.231 24.0852 640.434 20.8174 640.434 16.6698C640.434 12.0194 643.388 9.00294 647.284 9.00294C650.929 9.00294 653.443 11.3281 653.443 16.2613H643.388C643.514 20.5032 645.399 22.1999 647.881 22.4513C649.767 22.6398 651.998 21.4772 652.563 19.9376ZM665.735 22.5456C665.735 22.5456 664.667 24.0852 661.745 24.0852C657.943 24.0852 656.246 22.8284 656.246 22.8284V18.5551H656.655C656.875 20.6289 657.66 23.6767 661.745 23.6767C665.075 23.6767 664.667 20.3461 662.279 18.775L659.105 16.8583C656.089 14.8473 655.398 12.962 656.655 10.794C656.655 10.794 657.597 9.00294 660.802 9.00294C664.416 9.00294 665.924 10.0084 665.924 10.0084V13.8418H665.547C665.327 11.988 664.447 9.41142 660.802 9.41142C657.817 9.41142 657.597 12.365 660.331 14.0932L663.504 16.0728C666.332 17.8324 667.244 20.3775 665.735 22.5456Z" fill="black"/>
</svg>
