<svg width="638" height="144" viewBox="0 0 638 144" fill="none" xmlns="http://www.w3.org/2000/svg">
<path d="M81.4344 38.4C81.4344 2.79999 64.2344 3.2 43.8344 3.2H37.6344V73.6H43.8344C65.0344 73.6 81.4344 73.6 81.4344 38.4ZM131.234 138V141H114.434C83.6344 140.8 87.8344 140.8 75.0344 97.4C69.0344 76.6 49.6344 76.6 47.0344 76.6H37.6344V118.4C37.6344 132.2 43.2344 138 51.6344 138V141H0.034375V138C8.63438 138 13.4344 132.4 13.4344 117.2V19.8C13.4344 7.39999 8.83438 3.2 0.034375 3.2V0.199989H43.8344C83.6344 0.199989 108.834 5 108.834 38.4C108.834 64.2 93.2344 72.8 70.6344 74.8C83.8344 74.4 98.6344 79.4 108.634 119.4C112.634 134.6 126.034 137.6 131.234 138ZM162.139 90H204.939C204.939 62.8 194.339 49.8 184.139 49.8C172.539 49.8 162.139 67.8 162.139 90ZM219.739 115.6L222.539 117C219.939 126.8 208.339 142.8 183.139 142.8C157.739 142.8 139.739 120.4 139.739 95.4C139.739 66.6 158.739 46.8 184.939 46.8C211.139 46.8 225.739 61.6 225.739 93H162.139C163.339 116.2 174.339 126.8 188.739 129C200.339 130.8 215.339 125.2 219.739 115.6ZM322.706 115.4L325.106 116.8C322.506 126.8 311.506 142.8 286.706 142.8C262.506 142.8 242.906 121 242.906 94.6C242.906 71 260.706 46.8 293.106 46.8C310.106 46.8 317.306 54.2 319.906 57.2C322.306 60.2 323.706 65 321.906 68.8C319.706 74.4 313.106 77.6 307.306 75.4C301.506 73.2 298.906 66.6 301.106 61C302.106 58 304.306 55.8 306.906 54.8C308.706 54.2 303.706 49.8 293.106 49.8C285.506 49.8 264.906 56 264.906 91.8C264.906 116 278.106 126.2 292.106 128.4C304.506 130.2 318.506 122.6 322.706 115.4ZM391.548 47.6C395.548 46.6 401.748 47.4 405.348 50.8C410.348 55.8 410.348 64 405.348 69C400.348 74 392.348 74.2 386.948 69.2C384.548 66.6 383.348 63.4 383.548 60.4C383.948 57.6 373.148 61 366.348 73.6V119.4C366.348 130.6 367.348 136 374.548 138V141H336.948V138C344.548 135.6 344.948 129.8 344.948 119.4V69.4C344.948 62.6 343.148 59.6 334.948 56.6V53.6L366.348 46.8V68.4C375.348 53.4 385.148 49.2 391.548 47.6ZM516.241 135.2V138L490.041 142.6C484.841 143.4 484.841 139.2 484.841 139.2V122C480.641 133 465.841 142.8 452.841 142.8C437.841 142.8 426.041 136.8 426.041 112.4V68.6C426.041 56 426.441 54.8 414.841 53.6V50.6L447.041 46.8V111.8C447.041 125 454.241 130.6 465.841 130.6C473.441 130.6 481.041 124.6 484.841 116.4V68.6C484.841 56.4 485.441 54.4 475.441 53.6V50.6L506.041 46.8V123.4C506.041 133 507.841 134.2 516.241 135.2ZM544.434 30.4C537.834 30.4 532.634 25.2 532.634 18.6C532.634 12 537.834 6.59999 544.434 6.59999C551.034 6.59999 556.634 12 556.634 18.6C556.634 25.2 551.034 30.4 544.434 30.4ZM565.234 138V141H528.034V138C535.634 135.6 536.034 129.8 536.034 119.6V69.6C536.034 62.8 534.034 60 525.834 56.6V53.6L557.034 46.8V119.6C557.034 130.6 558.034 136 565.234 138ZM634.973 123L637.573 124.6C634.173 133.6 623.573 142.8 610.973 142.8C595.973 142.8 586.773 136.4 586.773 112.2V51.6H576.773L576.173 48.6H586.773V21L607.973 17.6V48.6H631.773L630.973 51.6H607.973V111.6C607.973 125.2 613.173 130.8 622.973 130.8C628.773 130.8 633.373 126.6 634.973 123Z" fill="black"/>
</svg>
