<svg width="519" height="117" viewBox="0 0 519 117" fill="none" xmlns="http://www.w3.org/2000/svg">
<path d="M82.8156 103.32C82.8156 103.32 75.6156 116.44 50.3356 116.44C21.8556 116.44 9.37563 107 9.37563 107V76.28H11.7756C14.3356 90.84 22.4956 114.04 50.3356 114.04C70.9756 114.04 75.2956 88.92 56.0956 75.16L30.6556 58.84C11.6156 46.68 0.095625 31.48 12.8956 13.24C12.8956 13.24 20.7356 0.919991 44.5756 0.919991C69.8556 0.919991 83.2956 8.6 83.2956 8.6V35.48H80.8956C78.6556 23.32 70.6556 3.32 44.5756 3.32C27.2956 3.32 17.5356 25.08 39.9356 39.64L65.5356 56.44C86.8156 70.52 93.0556 87.96 82.8156 103.32ZM119.446 74.2H153.686C153.686 52.44 145.206 42.04 137.046 42.04C127.766 42.04 119.446 56.44 119.446 74.2ZM165.526 94.68L167.766 95.8C165.686 103.64 156.406 116.44 136.246 116.44C115.926 116.44 101.526 98.52 101.526 78.52C101.526 55.48 116.726 39.64 137.686 39.64C158.646 39.64 170.326 51.48 170.326 76.6H119.446C120.406 95.16 129.206 103.64 140.726 105.4C150.006 106.84 162.006 102.36 165.526 94.68ZM224.379 40.28C227.579 39.48 232.539 40.12 235.419 42.84C239.419 46.84 239.419 53.4 235.419 57.4C231.419 61.4 225.019 61.56 220.699 57.56C218.779 55.48 217.819 52.92 217.979 50.52C218.299 48.28 209.659 51 204.219 61.08V97.72C204.219 106.68 205.019 111 210.779 112.6V115H180.699V112.6C186.779 110.68 187.099 106.04 187.099 97.72V57.72C187.099 52.28 185.659 49.88 179.099 47.48V45.08L204.219 39.64V56.92C211.419 44.92 219.259 41.56 224.379 40.28ZM292.133 41.08H323.173V43.32C318.373 43.32 312.453 43.64 303.173 66.04L283.653 116.44H281.573C253.253 55 251.493 51.64 251.493 51.64C247.653 43.48 243.333 43.48 240.453 43.32V41.08H275.973V43.32C266.213 43.32 271.973 55 271.973 55L289.893 93.56L300.453 66.2C300.453 66.2 309.573 43.32 292.133 43.32V41.08ZM342.626 26.52C337.346 26.52 333.186 22.36 333.186 17.08C333.186 11.8 337.346 7.47999 342.626 7.47999C347.906 7.47999 352.386 11.8 352.386 17.08C352.386 22.36 347.906 26.52 342.626 26.52ZM359.266 112.6V115H329.506V112.6C335.586 110.68 335.906 106.04 335.906 97.88V57.88C335.906 52.44 334.306 50.2 327.746 47.48V45.08L352.706 39.64V97.88C352.706 106.68 353.506 111 359.266 112.6ZM436.337 94.52L438.257 95.64C436.177 103.64 427.377 116.44 407.537 116.44C388.177 116.44 372.497 99 372.497 77.88C372.497 59 386.737 39.64 412.657 39.64C426.257 39.64 432.017 45.56 434.097 47.96C436.017 50.36 437.137 54.2 435.697 57.24C433.937 61.72 428.657 64.28 424.017 62.52C419.377 60.76 417.297 55.48 419.057 51C419.857 48.6 421.617 46.84 423.697 46.04C425.137 45.56 421.137 42.04 412.657 42.04C406.577 42.04 390.097 47 390.097 75.64C390.097 95 400.657 103.16 411.857 104.92C421.777 106.36 432.977 100.28 436.337 94.52ZM467.571 74.2H501.811C501.811 52.44 493.331 42.04 485.171 42.04C475.891 42.04 467.571 56.44 467.571 74.2ZM513.651 94.68L515.891 95.8C513.811 103.64 504.531 116.44 484.371 116.44C464.051 116.44 449.651 98.52 449.651 78.52C449.651 55.48 464.851 39.64 485.811 39.64C506.771 39.64 518.451 51.48 518.451 76.6H467.571C468.531 95.16 477.331 103.64 488.851 105.4C498.131 106.84 510.131 102.36 513.651 94.68Z" fill="black"/>
</svg>
