<svg width="106" height="27" viewBox="0 0 106 27" fill="none" xmlns="http://www.w3.org/2000/svg">
<path d="M18.975 0.247998H29.843V0.703999C24.333 0.703999 24.447 6.176 24.447 9.71V27H23.231L7.08095 6.176V17.5C7.08095 20.844 7.08095 26.506 12.059 26.506V27H1.07695V26.506C6.58695 26.506 6.58695 20.92 6.58695 17.5V5.606L5.02895 3.592C2.59695 0.551998 1.49495 0.779998 0.506953 0.703999V0.247998H7.53695L23.953 21.452V9.71C23.953 6.176 23.991 0.703999 18.975 0.703999V0.247998ZM50.5773 19.096H51.0713V27H31.9573V26.506C33.5533 26.506 34.0093 25.138 34.0093 22.554V4.314C34.0093 1.958 33.6293 0.741998 31.9573 0.741998V0.247998H50.5773V7.088H50.0833C49.6273 0.818 43.0533 0.741998 39.9753 0.741998H37.9233V13.244H40.3933C41.4193 13.244 45.4473 13.244 45.6373 9.406H46.1313V17.576H45.6373C45.4473 13.776 41.3433 13.738 40.3933 13.738H37.9233V26.506H39.6713C43.0533 26.506 49.7793 26.696 50.5773 19.096ZM75.95 23.162C78.002 26.316 78.99 26.468 80.51 26.544V27H70.744V26.544C73.328 26.202 71.466 23.276 70.82 22.25L66.45 15.296L64.36 18.412C62.042 22.82 59.382 26.544 64.398 26.544V27H54.594V26.544C56.57 26.544 58.09 26.62 63.942 17.994L66.108 14.802C63.258 10.622 58.926 4.162 58.926 4.162C56.684 0.893999 55.62 0.741998 54.252 0.741998V0.247998H64.702V0.741998C63.22 0.741998 62.118 1.768 64.284 5.15L68.274 11.42L70.212 8.532C72.264 4.808 74.772 0.741998 69.68 0.741998V0.247998H80.244V0.741998C77.926 0.741998 76.102 0.703999 70.63 8.912L68.616 11.914C70.44 14.536 75.95 23.162 75.95 23.162ZM81.9329 0.247998H105.189V6.936H104.695C104.543 0.818 98.1969 0.741998 97.6649 0.741998H95.4229V23.314C95.4229 25.822 96.6009 26.506 98.1969 26.506V27H88.9249V26.506C90.5209 26.506 91.6609 25.822 91.6609 23.314V0.741998H89.4189C88.2409 0.741998 82.5789 0.818 82.4269 6.936H81.9329V0.247998Z" fill="black"/>
</svg>
