<svg width="96" height="27" viewBox="0 0 96 27" fill="none" xmlns="http://www.w3.org/2000/svg">
<path d="M6.448 15.068H7.132C11.768 15.068 15.568 14.954 15.568 7.924C15.568 0.703999 11.578 0.741998 7.132 0.741998H6.448V15.068ZM6.448 15.562V21.794C6.448 26.354 7.816 26.506 10.21 26.506V27H0.178V26.506C2.04 26.506 2.686 25.518 2.686 21.908V4.314C2.686 1.692 2.154 0.741998 0.254 0.741998V0.247998H7.132C14.694 0.247998 19.71 1.16 19.71 7.924C19.71 14.65 14.694 15.562 7.132 15.562H6.448ZM36.965 7.506C36.965 0.589998 33.469 0.741998 29.403 0.741998H28.225V14.232H29.403C33.697 14.232 36.965 14.27 36.965 7.506ZM45.249 26.506V27H42.361C37.497 27 38.067 26.962 35.901 18.716C34.837 14.726 30.999 14.726 30.011 14.726H28.225V23.048C28.225 25.67 29.061 26.506 30.657 26.506V27H22.145V26.506C23.779 26.506 24.501 25.746 24.501 22.554V3.63C24.501 1.274 23.817 0.741998 22.145 0.741998V0.247998H29.403C36.965 0.247998 41.145 1.16 41.145 7.506C41.145 12.674 38.181 14.194 34.077 14.46C36.585 14.574 39.207 14.84 41.183 23.162C41.867 26.05 44.261 26.43 45.249 26.506ZM65.2589 19.096H65.7529V27H46.6389V26.506C48.2349 26.506 48.6909 25.138 48.6909 22.554V4.314C48.6909 1.958 48.3109 0.741998 46.6389 0.741998V0.247998H65.2589V7.088H64.7649C64.3089 0.818 57.7349 0.741998 54.6569 0.741998H52.6049V13.244H55.0749C56.1009 13.244 60.1289 13.244 60.3189 9.406H60.8129V17.576H60.3189C60.1289 13.776 56.0249 13.738 55.0749 13.738H52.6049V26.506H54.3529C57.7349 26.506 64.4609 26.696 65.2589 19.096ZM85.9957 0.247998H95.4197V0.741998C92.9117 0.741998 91.9617 0.741998 88.5037 9.824L81.9677 27H81.4357C76.7617 15.828 72.2397 3.516 72.2397 3.516C71.1377 0.818 69.9217 0.741998 68.6297 0.741998V0.247998H78.8517V0.741998C75.6977 0.741998 76.4957 3.858 76.5717 4.124L83.3357 22.25L88.0477 9.748C89.2257 6.214 91.4677 0.741998 85.9957 0.741998V0.247998Z" fill="black"/>
</svg>
