<svg width="179" height="30" viewBox="0 0 179 30" fill="none" xmlns="http://www.w3.org/2000/svg">
<path d="M21.64 15.12C21.64 4.16 18.76 1.08 14.04 1.08C9.28 1.08 6.36 4.16 6.36 15.12C6.36 26.12 9.28 28.76 14.04 28.76C18.76 28.76 21.64 26.12 21.64 15.12ZM27.44 15.12C27.44 23.08 22.84 29.36 14.04 29.36C5.24 29.36 0.64 23.08 0.64 15.12C0.64 7.2 5.24 0.479998 14.04 0.479998C22.84 0.479998 27.44 7.2 27.44 15.12ZM50.1153 27.84V28.4L44.8753 29.32C43.8353 29.48 43.8353 28.64 43.8353 28.64V25.2C42.9953 27.4 40.0353 29.36 37.4353 29.36C34.4353 29.36 32.0753 28.16 32.0753 23.28V14.52C32.0753 12 32.1553 11.76 29.8353 11.52V10.92L36.2753 10.16V23.16C36.2753 25.8 37.7153 26.92 40.0353 26.92C41.5553 26.92 43.0753 25.72 43.8353 24.08V14.52C43.8353 12.08 43.9553 11.68 41.9553 11.52V10.92L48.0753 10.16V25.48C48.0753 27.4 48.4353 27.64 50.1153 27.84ZM62.7941 10.32C63.5941 10.12 64.8341 10.28 65.5541 10.96C66.5541 11.96 66.5541 13.6 65.5541 14.6C64.5541 15.6 62.9541 15.64 61.8741 14.64C61.3941 14.12 61.1541 13.48 61.1941 12.88C61.2741 12.32 59.1141 13 57.7541 15.52V24.68C57.7541 26.92 57.9541 28 59.3941 28.4V29H51.8741V28.4C53.3941 27.92 53.4741 26.76 53.4741 24.68V14.68C53.4741 13.32 53.1141 12.72 51.4741 12.12V11.52L57.7541 10.16V14.48C59.5541 11.48 61.5141 10.64 62.7941 10.32ZM90.0059 10.52H97.7659V11.08C96.5659 11.08 95.0859 11.16 92.7659 16.76L87.8859 29.36H87.3659C80.2859 14 79.8459 13.16 79.8459 13.16C78.8859 11.12 77.8059 11.12 77.0859 11.08V10.52H85.9659V11.08C83.5259 11.08 84.9659 14 84.9659 14L89.4459 23.64L92.0859 16.8C92.0859 16.8 94.3659 11.08 90.0059 11.08V10.52ZM102.629 6.88C101.309 6.88 100.269 5.84 100.269 4.52C100.269 3.2 101.309 2.12 102.629 2.12C103.949 2.12 105.069 3.2 105.069 4.52C105.069 5.84 103.949 6.88 102.629 6.88ZM106.789 28.4V29H99.3491V28.4C100.869 27.92 100.949 26.76 100.949 24.72V14.72C100.949 13.36 100.549 12.8 98.9091 12.12V11.52L105.149 10.16V24.72C105.149 26.92 105.349 28 106.789 28.4ZM122.617 27.28C122.617 27.28 121.177 29.36 117.297 29.36C112.457 29.36 110.177 27.64 110.177 27.64V22.4H110.777C111.217 24.52 112.337 28.76 117.297 28.76C120.817 28.76 120.817 24.84 117.777 22.84L113.737 20.4C109.857 17.92 108.897 15.12 110.817 12.32C110.817 12.32 112.177 10.16 116.217 10.16C120.817 10.16 122.777 11.4 122.777 11.4V16.08H122.177C121.777 14.2 120.577 10.76 116.217 10.76C113.017 10.76 112.297 14.16 115.777 16.36L119.817 18.88C123.417 21.12 124.577 24.48 122.617 27.28ZM130.52 6.88C129.2 6.88 128.16 5.84 128.16 4.52C128.16 3.2 129.2 2.12 130.52 2.12C131.84 2.12 132.96 3.2 132.96 4.52C132.96 5.84 131.84 6.88 130.52 6.88ZM134.68 28.4V29H127.24V28.4C128.76 27.92 128.84 26.76 128.84 24.72V14.72C128.84 13.36 128.44 12.8 126.8 12.12V11.52L133.04 10.16V24.72C133.04 26.92 133.24 28 134.68 28.4ZM151.548 19.76C151.548 12.52 150.188 10.76 147.188 10.76C144.228 10.76 142.828 12.52 142.828 19.76C142.828 27 144.228 28.76 147.188 28.76C150.188 28.76 151.548 27 151.548 19.76ZM156.588 19.76C156.588 25 153.308 29.36 147.188 29.36C141.108 29.36 137.828 25 137.828 19.76C137.828 14.48 141.108 10.16 147.188 10.16C153.308 10.16 156.588 14.48 156.588 19.76ZM178.062 28.4V29H170.582V28.4C172.102 27.96 172.182 26.76 172.182 24.72V16.52C172.182 14.2 170.822 12.6 168.502 12.6C166.702 12.6 164.902 14.44 164.742 15.96V24.76C164.742 26.96 164.982 28 166.382 28.4V29H158.942V28.4C160.462 27.96 160.502 26.8 160.502 24.76V14.68C160.502 13.28 160.142 12.8 158.502 12.12V11.52L164.742 10.16V14.4C165.622 12 168.622 10.16 171.142 10.16C174.302 10.16 176.422 11.56 176.422 16.4V24.72C176.422 26.92 176.622 28.04 178.062 28.4Z" fill="black"/>
</svg>
